solid OpenSCAD_Model
  facet normal 0 0 -1
    outer loop
      vertex 153.67 -19.05 -3.834
      vertex -15.05 -15.55 -3.834
      vertex 153.67 -15.55 -3.834
    endloop
  endfacet
  facet normal -0 0 -1
    outer loop
      vertex -15.55 -15.05 -3.834
      vertex -19.05 -19.05 -3.834
      vertex -15.55 72.2 -3.834
    endloop
  endfacet
  facet normal -0 0 -1
    outer loop
      vertex -15.05 -15.55 -3.834
      vertex -19.05 -19.05 -3.834
      vertex -15.55 -15.05 -3.834
    endloop
  endfacet
  facet normal 0 0 -1
    outer loop
      vertex -19.05 -19.05 -3.834
      vertex -15.05 -15.55 -3.834
      vertex 153.67 -19.05 -3.834
    endloop
  endfacet
  facet normal 0 0 -1
    outer loop
      vertex 167.95 72.2 -3.834
      vertex 171.45 34.29 -3.834
      vertex 167.95 34.29 -3.834
    endloop
  endfacet
  facet normal 0 0 -1
    outer loop
      vertex 171.45 34.29 -3.834
      vertex 167.95 72.2 -3.834
      vertex 171.45 76.2 -3.834
    endloop
  endfacet
  facet normal 0 0 -1
    outer loop
      vertex 167.45 72.7 -3.834
      vertex 171.45 76.2 -3.834
      vertex 167.95 72.2 -3.834
    endloop
  endfacet
  facet normal 0 0 -1
    outer loop
      vertex -15.05 72.7 -3.834
      vertex 171.45 76.2 -3.834
      vertex 167.45 72.7 -3.834
    endloop
  endfacet
  facet normal 0 0 -1
    outer loop
      vertex -15.05 72.7 -3.834
      vertex -19.05 76.2 -3.834
      vertex 171.45 76.2 -3.834
    endloop
  endfacet
  facet normal 0 0 -1
    outer loop
      vertex -15.55 72.2 -3.834
      vertex -19.05 76.2 -3.834
      vertex -15.05 72.7 -3.834
    endloop
  endfacet
  facet normal 0 0 -1
    outer loop
      vertex -19.05 76.2 -3.834
      vertex -15.55 72.2 -3.834
      vertex -19.05 -19.05 -3.834
    endloop
  endfacet
  facet normal 0 0 -1
    outer loop
      vertex 171.355 -19.05 -3.834
      vertex 168.91 -19.05 -3.834
      vertex 171.355 -2 -3.834
    endloop
  endfacet
  facet normal 0 0 -1
    outer loop
      vertex 171.355 -2 -3.834
      vertex 171.45 -1.26999 -3.834
      vertex 171.45 -2 -3.834
    endloop
  endfacet
  facet normal 0 0 -1
    outer loop
      vertex 168.91 -1.26999 -3.834
      vertex 171.355 -2 -3.834
      vertex 168.91 -19.05 -3.834
    endloop
  endfacet
  facet normal 0 0 -1
    outer loop
      vertex 171.355 -2 -3.834
      vertex 168.91 -1.26999 -3.834
      vertex 171.45 -1.26999 -3.834
    endloop
  endfacet
  facet normal 1 0 0
    outer loop
      vertex 171.45 -0.5 30
      vertex 171.45 -1.26999 1.5
      vertex 171.45 -0.5 1.5
    endloop
  endfacet
  facet normal 1 0 0
    outer loop
      vertex 171.45 -1.26999 1.5
      vertex 171.45 -2 1.5
      vertex 171.45 -1.26999 -3.834
    endloop
  endfacet
  facet normal 1 0 0
    outer loop
      vertex 171.45 -0.5 30
      vertex 171.45 -2 1.5
      vertex 171.45 -1.26999 1.5
    endloop
  endfacet
  facet normal 1 -0 0
    outer loop
      vertex 171.45 -19.05 30
      vertex 171.45 -2 1.5
      vertex 171.45 -0.5 30
    endloop
  endfacet
  facet normal 1 0 0
    outer loop
      vertex 171.45 -2 1.5
      vertex 171.45 -19.05 30
      vertex 171.45 -19.05 1.5
    endloop
  endfacet
  facet normal 1 0 0
    outer loop
      vertex 171.45 -1.26999 -3.834
      vertex 171.45 -2 1.5
      vertex 171.45 -2 -3.834
    endloop
  endfacet
  facet normal 1 0 0
    outer loop
      vertex 171.45 76.2 30
      vertex 171.45 34.29 1.5
      vertex 171.45 76.2 -3.834
    endloop
  endfacet
  facet normal 1 -0 0
    outer loop
      vertex 171.45 13.6 30
      vertex 171.45 34.29 1.5
      vertex 171.45 76.2 30
    endloop
  endfacet
  facet normal 1 0 0
    outer loop
      vertex 171.45 34.29 1.5
      vertex 171.45 13.6 30
      vertex 171.45 13.6 1.5
    endloop
  endfacet
  facet normal 1 0 0
    outer loop
      vertex 171.45 76.2 -3.834
      vertex 171.45 34.29 1.5
      vertex 171.45 34.29 -3.834
    endloop
  endfacet
  facet normal 0 -1 0
    outer loop
      vertex 168.91 -19.05 -3.834
      vertex 171.355 -19.05 1.5
      vertex 168.91 -19.05 1.5
    endloop
  endfacet
  facet normal 0 -1 -0
    outer loop
      vertex 171.355 -19.05 1.5
      vertex 168.91 -19.05 -3.834
      vertex 171.355 -19.05 -3.834
    endloop
  endfacet
  facet normal 0 -1 0
    outer loop
      vertex -19.05 -19.05 30
      vertex 153.67 -19.05 1.5
      vertex 171.45 -19.05 30
    endloop
  endfacet
  facet normal 0 -1 0
    outer loop
      vertex -19.05 -19.05 -3.834
      vertex 153.67 -19.05 1.5
      vertex -19.05 -19.05 30
    endloop
  endfacet
  facet normal 0 -1 -0
    outer loop
      vertex 153.67 -19.05 1.5
      vertex -19.05 -19.05 -3.834
      vertex 153.67 -19.05 -3.834
    endloop
  endfacet
  facet normal 0 -1 0
    outer loop
      vertex 168.91 -19.05 1.5
      vertex 171.45 -19.05 30
      vertex 153.67 -19.05 1.5
    endloop
  endfacet
  facet normal 0 -1 0
    outer loop
      vertex 171.355 -19.05 1.5
      vertex 171.45 -19.05 30
      vertex 168.91 -19.05 1.5
    endloop
  endfacet
  facet normal 0 -1 -0
    outer loop
      vertex 171.45 -19.05 30
      vertex 171.355 -19.05 1.5
      vertex 171.45 -19.05 1.5
    endloop
  endfacet
  facet normal 0 0 1
    outer loop
      vertex 171.45 76.2 30
      vertex 170.68 33.02 30
      vertex 171.45 13.6 30
    endloop
  endfacet
  facet normal -0 0 1
    outer loop
      vertex 167.95 72.2 30
      vertex 170.68 33.02 30
      vertex 171.45 76.2 30
    endloop
  endfacet
  facet normal 0 0 1
    outer loop
      vertex 170.68 33.02 30
      vertex 167.95 72.2 30
      vertex 170.18 33.52 30
    endloop
  endfacet
  facet normal 0 0 1
    outer loop
      vertex 171.45 76.2 30
      vertex 167.45 72.7 30
      vertex 167.95 72.2 30
    endloop
  endfacet
  facet normal 0 0 1
    outer loop
      vertex 171.45 76.2 30
      vertex -15.05 72.7 30
      vertex 167.45 72.7 30
    endloop
  endfacet
  facet normal 0 0 1
    outer loop
      vertex -15.55 72.2 30
      vertex -19.05 76.2 30
      vertex -15.55 -15.05 30
    endloop
  endfacet
  facet normal 0 0 1
    outer loop
      vertex -15.05 72.7 30
      vertex -19.05 76.2 30
      vertex -15.55 72.2 30
    endloop
  endfacet
  facet normal -0 0 1
    outer loop
      vertex -19.05 76.2 30
      vertex -15.05 72.7 30
      vertex 171.45 76.2 30
    endloop
  endfacet
  facet normal 0 0 1
    outer loop
      vertex 171.45 13.6 30
      vertex 170.68 33.02 30
      vertex 170.68 13.6 30
    endloop
  endfacet
  facet normal 0 0 1
    outer loop
      vertex 170.18 33.52 30
      vertex 167.95 72.2 30
      vertex 167.95 33.52 30
    endloop
  endfacet
  facet normal 0 0 1
    outer loop
      vertex 169.355 2.03999 30
      vertex 167.95 2.03999 30
      vertex 169.355 0 30
    endloop
  endfacet
  facet normal 0 0 1
    outer loop
      vertex 167.95 -15.05 30
      vertex 171.45 -0.5 30
      vertex 169.855 -0.5 30
    endloop
  endfacet
  facet normal 0 0 1
    outer loop
      vertex 167.95 -15.05 30
      vertex 169.855 -0.5 30
      vertex 169.355 0 30
    endloop
  endfacet
  facet normal 0 0 1
    outer loop
      vertex 167.95 -15.05 30
      vertex 169.355 0 30
      vertex 167.95 2.03999 30
    endloop
  endfacet
  facet normal 0 0 1
    outer loop
      vertex 171.45 -0.5 30
      vertex 167.95 -15.05 30
      vertex 171.45 -19.05 30
    endloop
  endfacet
  facet normal -0 0 1
    outer loop
      vertex 167.45 -15.55 30
      vertex 171.45 -19.05 30
      vertex 167.95 -15.05 30
    endloop
  endfacet
  facet normal -0 0 1
    outer loop
      vertex -15.05 -15.55 30
      vertex 171.45 -19.05 30
      vertex 167.45 -15.55 30
    endloop
  endfacet
  facet normal 0 0 1
    outer loop
      vertex -15.05 -15.55 30
      vertex -19.05 -19.05 30
      vertex 171.45 -19.05 30
    endloop
  endfacet
  facet normal 0 0 1
    outer loop
      vertex -15.55 -15.05 30
      vertex -19.05 -19.05 30
      vertex -15.05 -15.55 30
    endloop
  endfacet
  facet normal 0 0 1
    outer loop
      vertex -19.05 -19.05 30
      vertex -15.55 -15.05 30
      vertex -19.05 76.2 30
    endloop
  endfacet
  facet normal -1 0 0
    outer loop
      vertex -19.05 -19.05 -3.834
      vertex -19.05 76.2 30
      vertex -19.05 76.2 -3.834
    endloop
  endfacet
  facet normal -1 -0 0
    outer loop
      vertex -19.05 76.2 30
      vertex -19.05 -19.05 -3.834
      vertex -19.05 -19.05 30
    endloop
  endfacet
  facet normal 0 1 -0
    outer loop
      vertex 171.45 76.2 -3.834
      vertex -19.05 76.2 30
      vertex 171.45 76.2 30
    endloop
  endfacet
  facet normal 0 1 0
    outer loop
      vertex -19.05 76.2 30
      vertex 171.45 76.2 -3.834
      vertex -19.05 76.2 -3.834
    endloop
  endfacet
  facet normal -1 0 0
    outer loop
      vertex 167.95 -15.05 1.5
      vertex 167.95 2.03999 30
      vertex 167.95 2.03999 1.5
    endloop
  endfacet
  facet normal -1 -0 0
    outer loop
      vertex 167.95 2.03999 30
      vertex 167.95 -15.05 1.5
      vertex 167.95 -15.05 30
    endloop
  endfacet
  facet normal 0 1 -0
    outer loop
      vertex 169.355 2.03999 1.5
      vertex 167.95 2.03999 30
      vertex 169.355 2.03999 30
    endloop
  endfacet
  facet normal 0 1 0
    outer loop
      vertex 167.95 2.03999 30
      vertex 169.355 2.03999 1.5
      vertex 167.95 2.03999 1.5
    endloop
  endfacet
  facet normal 1 -0 0
    outer loop
      vertex 169.355 0 30
      vertex 169.355 2.03999 1.5
      vertex 169.355 2.03999 30
    endloop
  endfacet
  facet normal 1 0 0
    outer loop
      vertex 169.355 2.03999 1.5
      vertex 169.355 0 30
      vertex 169.355 0 1.5
    endloop
  endfacet
  facet normal 0.707107 0.707107 0
    outer loop
      vertex 169.855 -0.5 30
      vertex 169.355 0 1.5
      vertex 169.355 0 30
    endloop
  endfacet
  facet normal 0.707107 0.707107 0
    outer loop
      vertex 169.355 0 1.5
      vertex 169.855 -0.5 30
      vertex 169.855 -0.5 1.5
    endloop
  endfacet
  facet normal 0 1 -0
    outer loop
      vertex 171.45 -0.5 1.5
      vertex 169.855 -0.5 30
      vertex 171.45 -0.5 30
    endloop
  endfacet
  facet normal 0 1 0
    outer loop
      vertex 169.855 -0.5 30
      vertex 171.45 -0.5 1.5
      vertex 169.855 -0.5 1.5
    endloop
  endfacet
  facet normal 0 -1 0
    outer loop
      vertex 170.68 13.6 1.5
      vertex 171.45 13.6 30
      vertex 170.68 13.6 30
    endloop
  endfacet
  facet normal 0 -1 -0
    outer loop
      vertex 171.45 13.6 30
      vertex 170.68 13.6 1.5
      vertex 171.45 13.6 1.5
    endloop
  endfacet
  facet normal -1 0 0
    outer loop
      vertex 170.68 13.6 1.5
      vertex 170.68 33.02 30
      vertex 170.68 33.02 1.5
    endloop
  endfacet
  facet normal -1 -0 0
    outer loop
      vertex 170.68 33.02 30
      vertex 170.68 13.6 1.5
      vertex 170.68 13.6 30
    endloop
  endfacet
  facet normal -0.707107 -0.707107 0
    outer loop
      vertex 170.68 33.02 1.5
      vertex 170.18 33.52 30
      vertex 170.18 33.52 1.5
    endloop
  endfacet
  facet normal -0.707107 -0.707107 0
    outer loop
      vertex 170.18 33.52 30
      vertex 170.68 33.02 1.5
      vertex 170.68 33.02 30
    endloop
  endfacet
  facet normal 0 -1 0
    outer loop
      vertex 167.95 33.52 1.5
      vertex 170.18 33.52 30
      vertex 167.95 33.52 30
    endloop
  endfacet
  facet normal 0 -1 -0
    outer loop
      vertex 170.18 33.52 30
      vertex 167.95 33.52 1.5
      vertex 170.18 33.52 1.5
    endloop
  endfacet
  facet normal -1 0 0
    outer loop
      vertex 167.95 34.29 1.5
      vertex 167.95 72.2 -3.834
      vertex 167.95 34.29 -3.834
    endloop
  endfacet
  facet normal -1 0 0
    outer loop
      vertex 167.95 72.2 -3.834
      vertex 167.95 34.29 1.5
      vertex 167.95 72.2 30
    endloop
  endfacet
  facet normal -1 0 0
    outer loop
      vertex 167.95 33.52 30
      vertex 167.95 34.29 1.5
      vertex 167.95 33.52 1.5
    endloop
  endfacet
  facet normal -1 0 0
    outer loop
      vertex 167.95 34.29 1.5
      vertex 167.95 33.52 30
      vertex 167.95 72.2 30
    endloop
  endfacet
  facet normal -0.707107 -0.707107 0
    outer loop
      vertex 167.95 72.2 -3.834
      vertex 167.45 72.7 30
      vertex 167.45 72.7 -3.834
    endloop
  endfacet
  facet normal -0.707107 -0.707107 0
    outer loop
      vertex 167.45 72.7 30
      vertex 167.95 72.2 -3.834
      vertex 167.95 72.2 30
    endloop
  endfacet
  facet normal 0 -1 0
    outer loop
      vertex -15.05 72.7 -3.834
      vertex 167.45 72.7 30
      vertex -15.05 72.7 30
    endloop
  endfacet
  facet normal 0 -1 -0
    outer loop
      vertex 167.45 72.7 30
      vertex -15.05 72.7 -3.834
      vertex 167.45 72.7 -3.834
    endloop
  endfacet
  facet normal 0.707107 -0.707107 0
    outer loop
      vertex -15.55 72.2 30
      vertex -15.05 72.7 -3.834
      vertex -15.05 72.7 30
    endloop
  endfacet
  facet normal 0.707107 -0.707107 0
    outer loop
      vertex -15.05 72.7 -3.834
      vertex -15.55 72.2 30
      vertex -15.55 72.2 -3.834
    endloop
  endfacet
  facet normal 1 -0 0
    outer loop
      vertex -15.55 -15.05 30
      vertex -15.55 72.2 -3.834
      vertex -15.55 72.2 30
    endloop
  endfacet
  facet normal 1 0 0
    outer loop
      vertex -15.55 72.2 -3.834
      vertex -15.55 -15.05 30
      vertex -15.55 -15.05 -3.834
    endloop
  endfacet
  facet normal 0.707107 0.707107 0
    outer loop
      vertex -15.05 -15.55 30
      vertex -15.55 -15.05 -3.834
      vertex -15.55 -15.05 30
    endloop
  endfacet
  facet normal 0.707107 0.707107 0
    outer loop
      vertex -15.55 -15.05 -3.834
      vertex -15.05 -15.55 30
      vertex -15.05 -15.55 -3.834
    endloop
  endfacet
  facet normal 0 1 0
    outer loop
      vertex 153.67 -15.55 1.5
      vertex 167.45 -15.55 30
      vertex 167.45 -15.55 1.5
    endloop
  endfacet
  facet normal 0 1 0
    outer loop
      vertex 167.45 -15.55 30
      vertex 153.67 -15.55 1.5
      vertex -15.05 -15.55 30
    endloop
  endfacet
  facet normal 0 1 0
    outer loop
      vertex -15.05 -15.55 -3.834
      vertex 153.67 -15.55 1.5
      vertex 153.67 -15.55 -3.834
    endloop
  endfacet
  facet normal 0 1 0
    outer loop
      vertex 153.67 -15.55 1.5
      vertex -15.05 -15.55 -3.834
      vertex -15.05 -15.55 30
    endloop
  endfacet
  facet normal -0.707107 0.707107 0
    outer loop
      vertex 167.45 -15.55 1.5
      vertex 167.95 -15.05 30
      vertex 167.95 -15.05 1.5
    endloop
  endfacet
  facet normal -0.707107 0.707107 0
    outer loop
      vertex 167.95 -15.05 30
      vertex 167.45 -15.55 1.5
      vertex 167.45 -15.55 30
    endloop
  endfacet
  facet normal 0 0 -1
    outer loop
      vertex 168.91 -19.05 1.5
      vertex 167.95 -15.05 1.5
      vertex 168.91 -1.26999 1.5
    endloop
  endfacet
  facet normal 0 0 -1
    outer loop
      vertex 168.91 -19.05 1.5
      vertex 167.45 -15.55 1.5
      vertex 167.95 -15.05 1.5
    endloop
  endfacet
  facet normal 0 0 -1
    outer loop
      vertex 153.67 -19.05 1.5
      vertex 167.45 -15.55 1.5
      vertex 168.91 -19.05 1.5
    endloop
  endfacet
  facet normal -0 0 -1
    outer loop
      vertex 167.45 -15.55 1.5
      vertex 153.67 -19.05 1.5
      vertex 153.67 -15.55 1.5
    endloop
  endfacet
  facet normal 0 0 -1
    outer loop
      vertex 171.45 -1.26999 1.5
      vertex 169.855 -0.5 1.5
      vertex 171.45 -0.5 1.5
    endloop
  endfacet
  facet normal 0 0 -1
    outer loop
      vertex 168.91 -1.26999 1.5
      vertex 169.855 -0.5 1.5
      vertex 171.45 -1.26999 1.5
    endloop
  endfacet
  facet normal 0 0 -1
    outer loop
      vertex 168.91 -1.26999 1.5
      vertex 169.355 0 1.5
      vertex 169.855 -0.5 1.5
    endloop
  endfacet
  facet normal 0 0 -1
    outer loop
      vertex 167.95 2.03999 1.5
      vertex 169.355 0 1.5
      vertex 168.91 -1.26999 1.5
    endloop
  endfacet
  facet normal 0 0 -1
    outer loop
      vertex 169.355 0 1.5
      vertex 167.95 2.03999 1.5
      vertex 169.355 2.03999 1.5
    endloop
  endfacet
  facet normal 0 0 -1
    outer loop
      vertex 167.95 2.03999 1.5
      vertex 168.91 -1.26999 1.5
      vertex 167.95 -15.05 1.5
    endloop
  endfacet
  facet normal 0 0 -1
    outer loop
      vertex 171.355 -19.05 1.5
      vertex 171.45 -2 1.5
      vertex 171.45 -19.05 1.5
    endloop
  endfacet
  facet normal -0 0 -1
    outer loop
      vertex 171.45 -2 1.5
      vertex 171.355 -19.05 1.5
      vertex 171.355 -2 1.5
    endloop
  endfacet
  facet normal 0 0 -1
    outer loop
      vertex 170.68 33.02 1.5
      vertex 171.45 13.6 1.5
      vertex 170.68 13.6 1.5
    endloop
  endfacet
  facet normal 0 0 -1
    outer loop
      vertex 171.45 13.6 1.5
      vertex 170.68 33.02 1.5
      vertex 171.45 34.29 1.5
    endloop
  endfacet
  facet normal 0 0 -1
    outer loop
      vertex 170.18 33.52 1.5
      vertex 171.45 34.29 1.5
      vertex 170.68 33.02 1.5
    endloop
  endfacet
  facet normal 0 0 -1
    outer loop
      vertex 167.95 34.29 1.5
      vertex 170.18 33.52 1.5
      vertex 167.95 33.52 1.5
    endloop
  endfacet
  facet normal 0 0 -1
    outer loop
      vertex 170.18 33.52 1.5
      vertex 167.95 34.29 1.5
      vertex 171.45 34.29 1.5
    endloop
  endfacet
  facet normal 0 1 -0
    outer loop
      vertex 171.45 -1.26999 -3.834
      vertex 168.91 -1.26999 1.5
      vertex 171.45 -1.26999 1.5
    endloop
  endfacet
  facet normal 0 1 0
    outer loop
      vertex 168.91 -1.26999 1.5
      vertex 171.45 -1.26999 -3.834
      vertex 168.91 -1.26999 -3.834
    endloop
  endfacet
  facet normal 0 -1 0
    outer loop
      vertex 171.355 -2 -3.834
      vertex 171.45 -2 1.5
      vertex 171.355 -2 1.5
    endloop
  endfacet
  facet normal 0 -1 -0
    outer loop
      vertex 171.45 -2 1.5
      vertex 171.355 -2 -3.834
      vertex 171.45 -2 -3.834
    endloop
  endfacet
  facet normal 1 -0 0
    outer loop
      vertex 171.355 -19.05 1.5
      vertex 171.355 -2 -3.834
      vertex 171.355 -2 1.5
    endloop
  endfacet
  facet normal 1 0 0
    outer loop
      vertex 171.355 -2 -3.834
      vertex 171.355 -19.05 1.5
      vertex 171.355 -19.05 -3.834
    endloop
  endfacet
  facet normal 0 -1 0
    outer loop
      vertex 167.95 34.29 -3.834
      vertex 171.45 34.29 1.5
      vertex 167.95 34.29 1.5
    endloop
  endfacet
  facet normal 0 -1 -0
    outer loop
      vertex 171.45 34.29 1.5
      vertex 167.95 34.29 -3.834
      vertex 171.45 34.29 -3.834
    endloop
  endfacet
  facet normal 1 -0 0
    outer loop
      vertex 153.67 -19.05 1.5
      vertex 153.67 -15.55 -3.834
      vertex 153.67 -15.55 1.5
    endloop
  endfacet
  facet normal 1 0 0
    outer loop
      vertex 153.67 -15.55 -3.834
      vertex 153.67 -19.05 1.5
      vertex 153.67 -19.05 -3.834
    endloop
  endfacet
  facet normal -1 0 0
    outer loop
      vertex 168.91 -19.05 -3.834
      vertex 168.91 -1.26999 1.5
      vertex 168.91 -1.26999 -3.834
    endloop
  endfacet
  facet normal -1 -0 0
    outer loop
      vertex 168.91 -1.26999 1.5
      vertex 168.91 -19.05 -3.834
      vertex 168.91 -19.05 1.5
    endloop
  endfacet
  facet normal 0.831671 -0.555268 0
    outer loop
      vertex 174.986 -22.5855 32
      vertex 176.069 -20.9634 30
      vertex 176.069 -20.9634 32
    endloop
  endfacet
  facet normal 0.831671 -0.555268 0
    outer loop
      vertex 176.069 -20.9634 30
      vertex 174.986 -22.5855 32
      vertex 174.986 -22.5855 30
    endloop
  endfacet
  facet normal 0.555374 -0.831601 0
    outer loop
      vertex 173.363 -23.6694 30
      vertex 174.986 -22.5855 32
      vertex 173.363 -23.6694 32
    endloop
  endfacet
  facet normal 0.555374 -0.831601 0
    outer loop
      vertex 174.986 -22.5855 32
      vertex 173.363 -23.6694 30
      vertex 174.986 -22.5855 30
    endloop
  endfacet
  facet normal -0.195091 -0.980785 0
    outer loop
      vertex -20.9634 -23.6694 30
      vertex -19.05 -24.05 32
      vertex -20.9634 -23.6694 32
    endloop
  endfacet
  facet normal -0.195091 -0.980785 -0
    outer loop
      vertex -19.05 -24.05 32
      vertex -20.9634 -23.6694 30
      vertex -19.05 -24.05 30
    endloop
  endfacet
  facet normal -0.195091 0.980785 0
    outer loop
      vertex -19.05 81.2 30
      vertex -20.9634 80.8194 32
      vertex -19.05 81.2 32
    endloop
  endfacet
  facet normal -0.195091 0.980785 0
    outer loop
      vertex -20.9634 80.8194 32
      vertex -19.05 81.2 30
      vertex -20.9634 80.8194 30
    endloop
  endfacet
  facet normal 0.980746 0.195288 0
    outer loop
      vertex 176.45 76.2 32
      vertex 176.069 78.1134 30
      vertex 176.069 78.1134 32
    endloop
  endfacet
  facet normal 0.980746 0.195288 0
    outer loop
      vertex 176.069 78.1134 30
      vertex 176.45 76.2 32
      vertex 176.45 76.2 30
    endloop
  endfacet
  facet normal -1 0 0
    outer loop
      vertex -24.05 -19.05 30
      vertex -24.05 76.2 32
      vertex -24.05 76.2 30
    endloop
  endfacet
  facet normal -1 -0 0
    outer loop
      vertex -24.05 76.2 32
      vertex -24.05 -19.05 30
      vertex -24.05 -19.05 32
    endloop
  endfacet
  facet normal -0.555587 0.831458 0
    outer loop
      vertex -20.9634 80.8194 30
      vertex -22.5855 79.7355 32
      vertex -20.9634 80.8194 32
    endloop
  endfacet
  facet normal -0.555587 0.831458 0
    outer loop
      vertex -22.5855 79.7355 32
      vertex -20.9634 80.8194 30
      vertex -22.5855 79.7355 30
    endloop
  endfacet
  facet normal 0.555374 0.831601 -0
    outer loop
      vertex 174.986 79.7355 30
      vertex 173.363 80.8194 32
      vertex 174.986 79.7355 32
    endloop
  endfacet
  facet normal 0.555374 0.831601 0
    outer loop
      vertex 173.363 80.8194 32
      vertex 174.986 79.7355 30
      vertex 173.363 80.8194 30
    endloop
  endfacet
  facet normal 0.19513 0.980777 -0
    outer loop
      vertex 173.363 80.8194 30
      vertex 171.45 81.2 32
      vertex 173.363 80.8194 32
    endloop
  endfacet
  facet normal 0.19513 0.980777 0
    outer loop
      vertex 171.45 81.2 32
      vertex 173.363 80.8194 30
      vertex 171.45 81.2 30
    endloop
  endfacet
  facet normal 0 -1 0
    outer loop
      vertex -19.05 -24.05 30
      vertex 171.45 -24.05 32
      vertex -19.05 -24.05 32
    endloop
  endfacet
  facet normal 0 -1 -0
    outer loop
      vertex 171.45 -24.05 32
      vertex -19.05 -24.05 30
      vertex 171.45 -24.05 30
    endloop
  endfacet
  facet normal -0.980785 0.195091 0
    outer loop
      vertex -24.05 76.2 30
      vertex -23.6694 78.1134 32
      vertex -23.6694 78.1134 30
    endloop
  endfacet
  facet normal -0.980785 0.195091 0
    outer loop
      vertex -23.6694 78.1134 32
      vertex -24.05 76.2 30
      vertex -24.05 76.2 32
    endloop
  endfacet
  facet normal -0.980785 -0.195091 0
    outer loop
      vertex -23.6694 -20.9634 30
      vertex -24.05 -19.05 32
      vertex -24.05 -19.05 30
    endloop
  endfacet
  facet normal -0.980785 -0.195091 0
    outer loop
      vertex -24.05 -19.05 32
      vertex -23.6694 -20.9634 30
      vertex -23.6694 -20.9634 32
    endloop
  endfacet
  facet normal -0.831458 0.555587 0
    outer loop
      vertex -23.6694 78.1134 30
      vertex -22.5855 79.7355 32
      vertex -22.5855 79.7355 30
    endloop
  endfacet
  facet normal -0.831458 0.555587 0
    outer loop
      vertex -22.5855 79.7355 32
      vertex -23.6694 78.1134 30
      vertex -23.6694 78.1134 32
    endloop
  endfacet
  facet normal 0 0 -1
    outer loop
      vertex 171.45 -24.05 30
      vertex 176.45 -19.05 30
      vertex 176.069 -20.9634 30
    endloop
  endfacet
  facet normal -0 0 -1
    outer loop
      vertex 176.45 -19.05 30
      vertex 171.45 -24.05 30
      vertex 176.45 76.2 30
    endloop
  endfacet
  facet normal 0 0 -1
    outer loop
      vertex 171.45 -24.05 30
      vertex 176.069 -20.9634 30
      vertex 174.986 -22.5855 30
    endloop
  endfacet
  facet normal 0 0 -1
    outer loop
      vertex 171.45 81.2 30
      vertex 176.45 76.2 30
      vertex 171.45 -24.05 30
    endloop
  endfacet
  facet normal 0 0 -1
    outer loop
      vertex 171.45 -24.05 30
      vertex 174.986 -22.5855 30
      vertex 173.363 -23.6694 30
    endloop
  endfacet
  facet normal 0 0 -1
    outer loop
      vertex 176.45 76.2 30
      vertex 171.45 81.2 30
      vertex 176.069 78.1134 30
    endloop
  endfacet
  facet normal 0 0 -1
    outer loop
      vertex 176.069 78.1134 30
      vertex 171.45 81.2 30
      vertex 174.986 79.7355 30
    endloop
  endfacet
  facet normal 0 0 -1
    outer loop
      vertex 174.986 79.7355 30
      vertex 171.45 81.2 30
      vertex 173.363 80.8194 30
    endloop
  endfacet
  facet normal 0 0 -1
    outer loop
      vertex -19.05 -24.05 30
      vertex 171.45 81.2 30
      vertex 171.45 -24.05 30
    endloop
  endfacet
  facet normal 0 0 -1
    outer loop
      vertex -19.05 -24.05 30
      vertex -19.05 81.2 30
      vertex 171.45 81.2 30
    endloop
  endfacet
  facet normal 0 0 -1
    outer loop
      vertex -24.05 -19.05 30
      vertex -19.05 -24.05 30
      vertex -20.9634 -23.6694 30
    endloop
  endfacet
  facet normal 0 0 -1
    outer loop
      vertex -19.05 -24.05 30
      vertex -24.05 -19.05 30
      vertex -19.05 81.2 30
    endloop
  endfacet
  facet normal 0 0 -1
    outer loop
      vertex -24.05 -19.05 30
      vertex -20.9634 -23.6694 30
      vertex -22.5855 -22.5855 30
    endloop
  endfacet
  facet normal 0 0 -1
    outer loop
      vertex -24.05 76.2 30
      vertex -19.05 81.2 30
      vertex -24.05 -19.05 30
    endloop
  endfacet
  facet normal 0 0 -1
    outer loop
      vertex -24.05 -19.05 30
      vertex -22.5855 -22.5855 30
      vertex -23.6694 -20.9634 30
    endloop
  endfacet
  facet normal 0 0 -1
    outer loop
      vertex -19.05 81.2 30
      vertex -24.05 76.2 30
      vertex -20.9634 80.8194 30
    endloop
  endfacet
  facet normal 0 0 -1
    outer loop
      vertex -20.9634 80.8194 30
      vertex -24.05 76.2 30
      vertex -22.5855 79.7355 30
    endloop
  endfacet
  facet normal 0 0 -1
    outer loop
      vertex -22.5855 79.7355 30
      vertex -24.05 76.2 30
      vertex -23.6694 78.1134 30
    endloop
  endfacet
  facet normal 0.19513 -0.980777 0
    outer loop
      vertex 171.45 -24.05 30
      vertex 173.363 -23.6694 32
      vertex 171.45 -24.05 32
    endloop
  endfacet
  facet normal 0.19513 -0.980777 0
    outer loop
      vertex 173.363 -23.6694 32
      vertex 171.45 -24.05 30
      vertex 173.363 -23.6694 30
    endloop
  endfacet
  facet normal -0.555587 -0.831458 0
    outer loop
      vertex -22.5855 -22.5855 30
      vertex -20.9634 -23.6694 32
      vertex -22.5855 -22.5855 32
    endloop
  endfacet
  facet normal -0.555587 -0.831458 -0
    outer loop
      vertex -20.9634 -23.6694 32
      vertex -22.5855 -22.5855 30
      vertex -20.9634 -23.6694 30
    endloop
  endfacet
  facet normal 0.831671 0.555268 0
    outer loop
      vertex 176.069 78.1134 32
      vertex 174.986 79.7355 30
      vertex 174.986 79.7355 32
    endloop
  endfacet
  facet normal 0.831671 0.555268 0
    outer loop
      vertex 174.986 79.7355 30
      vertex 176.069 78.1134 32
      vertex 176.069 78.1134 30
    endloop
  endfacet
  facet normal -0.831458 -0.555587 0
    outer loop
      vertex -22.5855 -22.5855 30
      vertex -23.6694 -20.9634 32
      vertex -23.6694 -20.9634 30
    endloop
  endfacet
  facet normal -0.831458 -0.555587 0
    outer loop
      vertex -23.6694 -20.9634 32
      vertex -22.5855 -22.5855 30
      vertex -22.5855 -22.5855 32
    endloop
  endfacet
  facet normal 1 -0 0
    outer loop
      vertex 176.45 -19.05 32
      vertex 176.45 76.2 30
      vertex 176.45 76.2 32
    endloop
  endfacet
  facet normal 1 0 0
    outer loop
      vertex 176.45 76.2 30
      vertex 176.45 -19.05 32
      vertex 176.45 -19.05 30
    endloop
  endfacet
  facet normal 0 1 -0
    outer loop
      vertex 171.45 81.2 30
      vertex -19.05 81.2 32
      vertex 171.45 81.2 32
    endloop
  endfacet
  facet normal 0 1 0
    outer loop
      vertex -19.05 81.2 32
      vertex 171.45 81.2 30
      vertex -19.05 81.2 30
    endloop
  endfacet
  facet normal 0.980746 -0.195288 0
    outer loop
      vertex 176.069 -20.9634 32
      vertex 176.45 -19.05 30
      vertex 176.45 -19.05 32
    endloop
  endfacet
  facet normal 0.980746 -0.195288 0
    outer loop
      vertex 176.45 -19.05 30
      vertex 176.069 -20.9634 32
      vertex 176.069 -20.9634 30
    endloop
  endfacet
  facet normal 0 0 1
    outer loop
      vertex 171.45 81.2 32
      vertex 176.45 76.2 32
      vertex 176.069 78.1134 32
    endloop
  endfacet
  facet normal 0 0 1
    outer loop
      vertex 176.45 76.2 32
      vertex 171.45 81.2 32
      vertex 176.45 -19.05 32
    endloop
  endfacet
  facet normal 0 0 1
    outer loop
      vertex 171.45 81.2 32
      vertex 176.069 78.1134 32
      vertex 174.986 79.7355 32
    endloop
  endfacet
  facet normal 0 0 1
    outer loop
      vertex 171.45 -24.05 32
      vertex 176.45 -19.05 32
      vertex 171.45 81.2 32
    endloop
  endfacet
  facet normal 0 0 1
    outer loop
      vertex 171.45 81.2 32
      vertex 174.986 79.7355 32
      vertex 173.363 80.8194 32
    endloop
  endfacet
  facet normal 0 0 1
    outer loop
      vertex 176.45 -19.05 32
      vertex 171.45 -24.05 32
      vertex 176.069 -20.9634 32
    endloop
  endfacet
  facet normal 0 0 1
    outer loop
      vertex 176.069 -20.9634 32
      vertex 171.45 -24.05 32
      vertex 174.986 -22.5855 32
    endloop
  endfacet
  facet normal 0 0 1
    outer loop
      vertex 174.986 -22.5855 32
      vertex 171.45 -24.05 32
      vertex 173.363 -23.6694 32
    endloop
  endfacet
  facet normal -0 0 1
    outer loop
      vertex -19.05 81.2 32
      vertex 171.45 -24.05 32
      vertex 171.45 81.2 32
    endloop
  endfacet
  facet normal 0 0 1
    outer loop
      vertex -19.05 81.2 32
      vertex -19.05 -24.05 32
      vertex 171.45 -24.05 32
    endloop
  endfacet
  facet normal 0 0 1
    outer loop
      vertex -24.05 76.2 32
      vertex -19.05 81.2 32
      vertex -20.9634 80.8194 32
    endloop
  endfacet
  facet normal 0 0 1
    outer loop
      vertex -19.05 81.2 32
      vertex -24.05 76.2 32
      vertex -19.05 -24.05 32
    endloop
  endfacet
  facet normal 0 0 1
    outer loop
      vertex -24.05 76.2 32
      vertex -20.9634 80.8194 32
      vertex -22.5855 79.7355 32
    endloop
  endfacet
  facet normal -0 0 1
    outer loop
      vertex -24.05 -19.05 32
      vertex -19.05 -24.05 32
      vertex -24.05 76.2 32
    endloop
  endfacet
  facet normal 0 0 1
    outer loop
      vertex -24.05 76.2 32
      vertex -22.5855 79.7355 32
      vertex -23.6694 78.1134 32
    endloop
  endfacet
  facet normal 0 0 1
    outer loop
      vertex -19.05 -24.05 32
      vertex -24.05 -19.05 32
      vertex -20.9634 -23.6694 32
    endloop
  endfacet
  facet normal 0 0 1
    outer loop
      vertex -20.9634 -23.6694 32
      vertex -24.05 -19.05 32
      vertex -22.5855 -22.5855 32
    endloop
  endfacet
  facet normal 0 0 1
    outer loop
      vertex -22.5855 -22.5855 32
      vertex -24.05 -19.05 32
      vertex -23.6694 -20.9634 32
    endloop
  endfacet
endsolid OpenSCAD_Model
