solid OpenSCAD_Model
  facet normal 0 0 1
    outer loop
      vertex 13.8313 22.045 -3.834
      vertex 13.9312 26.275 -3.834
      vertex 13.8313 26.275 -3.834
    endloop
  endfacet
  facet normal 0 0 1
    outer loop
      vertex 29.0312 26.275 -3.834
      vertex 28.9312 26.275 -3.834
      vertex 29.0312 22.045 -3.834
    endloop
  endfacet
  facet normal 0 0 1
    outer loop
      vertex 37.7812 36.345 -3.834
      vertex 35.0563 36.545 -3.834
      vertex 35.0563 36.345 -3.834
    endloop
  endfacet
  facet normal -0 0 1
    outer loop
      vertex 13.9312 21.075 -3.834
      vertex 14.0265 17.295 -3.834
      vertex 28.9312 21.075 -3.834
    endloop
  endfacet
  facet normal 0 0 1
    outer loop
      vertex 13.9312 26.275 -3.834
      vertex 13.8313 22.045 -3.834
      vertex 13.9312 21.075 -3.834
    endloop
  endfacet
  facet normal 0 0 1
    outer loop
      vertex 11.3015 17.495 -3.834
      vertex 13.9312 21.075 -3.834
      vertex 13.8313 22.045 -3.834
    endloop
  endfacet
  facet normal 0 0 1
    outer loop
      vertex 13.9312 21.075 -3.834
      vertex 11.3015 17.495 -3.834
      vertex 14.0265 17.295 -3.834
    endloop
  endfacet
  facet normal 0 0 1
    outer loop
      vertex 14.0265 17.295 -3.834
      vertex 11.3015 17.495 -3.834
      vertex 11.3015 17.295 -3.834
    endloop
  endfacet
  facet normal 0 0 1
    outer loop
      vertex 29.0312 30.875 -3.834
      vertex 28.9312 36.075 -3.834
      vertex 28.9312 30.875 -3.834
    endloop
  endfacet
  facet normal 0 0 1
    outer loop
      vertex 13.8313 22.045 -3.834
      vertex 8.0015 17.495 -3.834
      vertex 11.3015 17.495 -3.834
    endloop
  endfacet
  facet normal 0 0 1
    outer loop
      vertex 8.0015 17.495 -3.834
      vertex 5.2765 17.295 -3.834
      vertex 8.0015 17.295 -3.834
    endloop
  endfacet
  facet normal -0 0 1
    outer loop
      vertex 5.08125 22.045 -3.834
      vertex 8.0015 17.495 -3.834
      vertex 13.8313 22.045 -3.834
    endloop
  endfacet
  facet normal 0 0 1
    outer loop
      vertex -18.55 -18.55 -3.834
      vertex 5.2765 17.295 -3.834
      vertex 5.08125 22.045 -3.834
    endloop
  endfacet
  facet normal 0 0 1
    outer loop
      vertex 8.0015 17.495 -3.834
      vertex 5.08125 22.045 -3.834
      vertex 5.2765 17.295 -3.834
    endloop
  endfacet
  facet normal 0 0 1
    outer loop
      vertex 13.9312 36.075 -3.834
      vertex 13.8313 30.875 -3.834
      vertex 13.9312 30.875 -3.834
    endloop
  endfacet
  facet normal 0 0 1
    outer loop
      vertex 13.8313 36.345 -3.834
      vertex 11.1062 36.545 -3.834
      vertex 11.1062 36.345 -3.834
    endloop
  endfacet
  facet normal 0 0 1
    outer loop
      vertex 14.0265 2.995 -3.834
      vertex 52.1265 7.225 -3.834
      vertex 14.0265 7.225 -3.834
    endloop
  endfacet
  facet normal 0 0 1
    outer loop
      vertex 105.227 7.225 -3.834
      vertex 67.1265 7.225 -3.834
      vertex 105.227 2.995 -3.834
    endloop
  endfacet
  facet normal 0 0 1
    outer loop
      vertex 117.037 21.075 -3.834
      vertex 111.252 17.495 -3.834
      vertex 113.977 17.295 -3.834
    endloop
  endfacet
  facet normal 0 0 1
    outer loop
      vertex 117.037 21.075 -3.834
      vertex 107.951 17.495 -3.834
      vertex 111.252 17.495 -3.834
    endloop
  endfacet
  facet normal 0 0 1
    outer loop
      vertex 107.951 17.495 -3.834
      vertex 105.227 17.295 -3.834
      vertex 107.951 17.295 -3.834
    endloop
  endfacet
  facet normal -0 0 1
    outer loop
      vertex 102.037 21.075 -3.834
      vertex 107.951 17.495 -3.834
      vertex 117.037 21.075 -3.834
    endloop
  endfacet
  facet normal 0 0 1
    outer loop
      vertex 107.951 17.495 -3.834
      vertex 102.037 21.075 -3.834
      vertex 105.227 17.295 -3.834
    endloop
  endfacet
  facet normal -0 0 1
    outer loop
      vertex 95.6062 21.075 -3.834
      vertex 105.227 17.295 -3.834
      vertex 102.037 21.075 -3.834
    endloop
  endfacet
  facet normal 0 0 1
    outer loop
      vertex 95.6062 21.075 -3.834
      vertex 102.037 21.075 -3.834
      vertex 95.6062 36.075 -3.834
    endloop
  endfacet
  facet normal 0 0 1
    outer loop
      vertex 105.227 17.295 -3.834
      vertex 95.6062 21.075 -3.834
      vertex 105.227 11.825 -3.834
    endloop
  endfacet
  facet normal -0 0 1
    outer loop
      vertex 80.6062 21.075 -3.834
      vertex 105.227 11.825 -3.834
      vertex 95.6062 21.075 -3.834
    endloop
  endfacet
  facet normal 0 0 1
    outer loop
      vertex 67.1265 11.825 -3.834
      vertex 80.6062 21.075 -3.834
      vertex 67.1265 17.025 -3.834
    endloop
  endfacet
  facet normal 0 0 1
    outer loop
      vertex 80.6062 21.075 -3.834
      vertex 67.1265 11.825 -3.834
      vertex 105.227 11.825 -3.834
    endloop
  endfacet
  facet normal 0 0 1
    outer loop
      vertex 170.95 75.7 -3.834
      vertex 151.13 34.29 -3.834
      vertex 170.95 34.29 -3.834
    endloop
  endfacet
  facet normal 0 0 1
    outer loop
      vertex 151.13 34.29 -3.834
      vertex 139.429 30.9935 -3.834
      vertex 151.13 -1.27 -3.834
    endloop
  endfacet
  facet normal -0 0 1
    outer loop
      vertex 134.299 45.0889 -3.834
      vertex 151.13 34.29 -3.834
      vertex 170.95 75.7 -3.834
    endloop
  endfacet
  facet normal 0 0 1
    outer loop
      vertex 151.13 34.29 -3.834
      vertex 134.299 45.0889 -3.834
      vertex 139.429 30.9935 -3.834
    endloop
  endfacet
  facet normal 0 0 1
    outer loop
      vertex 170.95 75.7 -3.834
      vertex 120.203 39.9586 -3.834
      vertex 134.299 45.0889 -3.834
    endloop
  endfacet
  facet normal 0 0 1
    outer loop
      vertex 120.203 39.9586 -3.834
      vertex 102.037 36.075 -3.834
      vertex 117.037 36.075 -3.834
    endloop
  endfacet
  facet normal 0 0 1
    outer loop
      vertex 95.6062 36.075 -3.834
      vertex 120.203 39.9586 -3.834
      vertex 170.95 75.7 -3.834
    endloop
  endfacet
  facet normal 0 0 1
    outer loop
      vertex 102.037 36.075 -3.834
      vertex 95.6062 36.075 -3.834
      vertex 102.037 21.075 -3.834
    endloop
  endfacet
  facet normal 0 0 1
    outer loop
      vertex 120.203 39.9586 -3.834
      vertex 95.6062 36.075 -3.834
      vertex 102.037 36.075 -3.834
    endloop
  endfacet
  facet normal 0 0 1
    outer loop
      vertex 170.95 75.7 -3.834
      vertex 80.6062 36.075 -3.834
      vertex 95.6062 36.075 -3.834
    endloop
  endfacet
  facet normal 0 0 1
    outer loop
      vertex 67.0312 21.075 -3.834
      vertex 80.6062 21.075 -3.834
      vertex 80.6062 36.075 -3.834
    endloop
  endfacet
  facet normal 0 0 1
    outer loop
      vertex 67.0312 21.075 -3.834
      vertex 80.6062 36.075 -3.834
      vertex 67.0312 36.075 -3.834
    endloop
  endfacet
  facet normal -0 0 1
    outer loop
      vertex -18.55 75.7 -3.834
      vertex 80.6062 36.075 -3.834
      vertex 170.95 75.7 -3.834
    endloop
  endfacet
  facet normal 0 0 1
    outer loop
      vertex 80.6062 36.075 -3.834
      vertex -18.55 75.7 -3.834
      vertex 67.0312 36.075 -3.834
    endloop
  endfacet
  facet normal 0 0 1
    outer loop
      vertex 37.7812 22.045 -3.834
      vertex 52.0312 36.075 -3.834
      vertex 37.7812 36.345 -3.834
    endloop
  endfacet
  facet normal 0 0 1
    outer loop
      vertex 67.0312 36.075 -3.834
      vertex -18.55 75.7 -3.834
      vertex 52.0312 36.075 -3.834
    endloop
  endfacet
  facet normal 0 0 1
    outer loop
      vertex 52.0312 36.075 -3.834
      vertex -18.55 75.7 -3.834
      vertex 37.7812 36.345 -3.834
    endloop
  endfacet
  facet normal 0 0 1
    outer loop
      vertex 37.7812 36.345 -3.834
      vertex -18.55 75.7 -3.834
      vertex 35.0563 36.545 -3.834
    endloop
  endfacet
  facet normal 0 0 1
    outer loop
      vertex 31.7562 36.545 -3.834
      vertex 29.0312 36.345 -3.834
      vertex 31.7562 36.345 -3.834
    endloop
  endfacet
  facet normal 0 0 1
    outer loop
      vertex 35.0563 36.545 -3.834
      vertex -18.55 75.7 -3.834
      vertex 31.7562 36.545 -3.834
    endloop
  endfacet
  facet normal 0 0 1
    outer loop
      vertex 29.0312 36.345 -3.834
      vertex 28.9312 36.075 -3.834
      vertex 29.0312 30.875 -3.834
    endloop
  endfacet
  facet normal 0 0 1
    outer loop
      vertex 29.0312 36.345 -3.834
      vertex 13.9312 36.075 -3.834
      vertex 28.9312 36.075 -3.834
    endloop
  endfacet
  facet normal 0 0 1
    outer loop
      vertex 31.7562 36.545 -3.834
      vertex -18.55 75.7 -3.834
      vertex 29.0312 36.345 -3.834
    endloop
  endfacet
  facet normal 0 0 1
    outer loop
      vertex 13.8313 30.875 -3.834
      vertex 13.9312 36.075 -3.834
      vertex 13.8313 36.345 -3.834
    endloop
  endfacet
  facet normal 0 0 1
    outer loop
      vertex 29.0312 36.345 -3.834
      vertex 13.8313 36.345 -3.834
      vertex 13.9312 36.075 -3.834
    endloop
  endfacet
  facet normal 0 0 1
    outer loop
      vertex 29.0312 36.345 -3.834
      vertex -18.55 75.7 -3.834
      vertex 13.8313 36.345 -3.834
    endloop
  endfacet
  facet normal 0 0 1
    outer loop
      vertex 13.8313 36.345 -3.834
      vertex -18.55 75.7 -3.834
      vertex 11.1062 36.545 -3.834
    endloop
  endfacet
  facet normal 0 0 1
    outer loop
      vertex 7.80625 36.545 -3.834
      vertex 5.08125 36.345 -3.834
      vertex 7.80625 36.345 -3.834
    endloop
  endfacet
  facet normal 0 0 1
    outer loop
      vertex 11.1062 36.545 -3.834
      vertex -18.55 75.7 -3.834
      vertex 7.80625 36.545 -3.834
    endloop
  endfacet
  facet normal 0 0 1
    outer loop
      vertex 5.08125 36.345 -3.834
      vertex -18.55 75.7 -3.834
      vertex 5.08125 22.045 -3.834
    endloop
  endfacet
  facet normal 0 0 1
    outer loop
      vertex 7.80625 36.545 -3.834
      vertex -18.55 75.7 -3.834
      vertex 5.08125 36.345 -3.834
    endloop
  endfacet
  facet normal -0 0 1
    outer loop
      vertex 151.13 -1.27 -3.834
      vertex 153.67 -18.55 -3.834
      vertex 153.67 -1.27 -3.834
    endloop
  endfacet
  facet normal -0 0 1
    outer loop
      vertex 125.333 25.8632 -3.834
      vertex 151.13 -1.27 -3.834
      vertex 139.429 30.9935 -3.834
    endloop
  endfacet
  facet normal -0 0 1
    outer loop
      vertex 113.977 2.995 -3.834
      vertex 151.13 -1.27 -3.834
      vertex 125.333 25.8632 -3.834
    endloop
  endfacet
  facet normal -0 0 1
    outer loop
      vertex 117.037 36.075 -3.834
      vertex 125.333 25.8632 -3.834
      vertex 120.203 39.9586 -3.834
    endloop
  endfacet
  facet normal 0 0 1
    outer loop
      vertex 117.037 21.075 -3.834
      vertex 125.333 25.8632 -3.834
      vertex 117.037 36.075 -3.834
    endloop
  endfacet
  facet normal 0 0 1
    outer loop
      vertex 113.977 2.995 -3.834
      vertex 125.333 25.8632 -3.834
      vertex 117.037 21.075 -3.834
    endloop
  endfacet
  facet normal 0 0 1
    outer loop
      vertex 113.977 2.995 -3.834
      vertex 117.037 21.075 -3.834
      vertex 113.977 17.295 -3.834
    endloop
  endfacet
  facet normal 0 0 1
    outer loop
      vertex 151.13 -1.27 -3.834
      vertex 113.977 2.995 -3.834
      vertex 153.67 -18.55 -3.834
    endloop
  endfacet
  facet normal -0 0 1
    outer loop
      vertex 105.227 2.995 -3.834
      vertex 153.67 -18.55 -3.834
      vertex 113.977 2.995 -3.834
    endloop
  endfacet
  facet normal 0 0 1
    outer loop
      vertex 67.1265 2.025 -3.834
      vertex 105.227 2.995 -3.834
      vertex 67.1265 7.225 -3.834
    endloop
  endfacet
  facet normal 0 0 1
    outer loop
      vertex 105.227 2.995 -3.834
      vertex 67.1265 2.025 -3.834
      vertex 153.67 -18.55 -3.834
    endloop
  endfacet
  facet normal 0 0 1
    outer loop
      vertex -18.55 -18.55 -3.834
      vertex 67.1265 2.025 -3.834
      vertex 52.1265 2.025 -3.834
    endloop
  endfacet
  facet normal 0 0 1
    outer loop
      vertex 52.1265 7.225 -3.834
      vertex 14.0265 2.995 -3.834
      vertex 52.1265 2.025 -3.834
    endloop
  endfacet
  facet normal 0 0 1
    outer loop
      vertex -18.55 -18.55 -3.834
      vertex 52.1265 2.025 -3.834
      vertex 14.0265 2.995 -3.834
    endloop
  endfacet
  facet normal 0 0 1
    outer loop
      vertex -18.55 -18.55 -3.834
      vertex 14.0265 2.995 -3.834
      vertex 5.2765 2.995 -3.834
    endloop
  endfacet
  facet normal 0 0 1
    outer loop
      vertex -18.55 -18.55 -3.834
      vertex 5.08125 22.045 -3.834
      vertex -18.55 75.7 -3.834
    endloop
  endfacet
  facet normal 0 0 1
    outer loop
      vertex 67.1265 2.025 -3.834
      vertex -18.55 -18.55 -3.834
      vertex 153.67 -18.55 -3.834
    endloop
  endfacet
  facet normal 0 0 1
    outer loop
      vertex 5.2765 17.295 -3.834
      vertex -18.55 -18.55 -3.834
      vertex 5.2765 2.995 -3.834
    endloop
  endfacet
  facet normal 0 0 1
    outer loop
      vertex 113.977 17.295 -3.834
      vertex 111.252 17.495 -3.834
      vertex 111.252 17.295 -3.834
    endloop
  endfacet
  facet normal 0 0 1
    outer loop
      vertex 80.6062 21.075 -3.834
      vertex 67.0312 21.075 -3.834
      vertex 67.1265 17.025 -3.834
    endloop
  endfacet
  facet normal 0 0 1
    outer loop
      vertex 67.0312 21.075 -3.834
      vertex 52.1265 17.025 -3.834
      vertex 67.1265 17.025 -3.834
    endloop
  endfacet
  facet normal -0 0 1
    outer loop
      vertex 52.0312 21.075 -3.834
      vertex 52.1265 17.025 -3.834
      vertex 67.0312 21.075 -3.834
    endloop
  endfacet
  facet normal 0 0 1
    outer loop
      vertex 37.7812 22.045 -3.834
      vertex 52.1265 17.025 -3.834
      vertex 52.0312 21.075 -3.834
    endloop
  endfacet
  facet normal 0 0 1
    outer loop
      vertex 52.0312 36.075 -3.834
      vertex 37.7812 22.045 -3.834
      vertex 52.0312 21.075 -3.834
    endloop
  endfacet
  facet normal 0 0 1
    outer loop
      vertex 52.1265 17.025 -3.834
      vertex 37.7812 22.045 -3.834
      vertex 52.1265 11.825 -3.834
    endloop
  endfacet
  facet normal 0 0 1
    outer loop
      vertex 28.9312 21.075 -3.834
      vertex 37.7812 22.045 -3.834
      vertex 29.0312 22.045 -3.834
    endloop
  endfacet
  facet normal 0 0 1
    outer loop
      vertex 28.9312 21.075 -3.834
      vertex 29.0312 22.045 -3.834
      vertex 28.9312 26.275 -3.834
    endloop
  endfacet
  facet normal 0 0 1
    outer loop
      vertex 37.7812 22.045 -3.834
      vertex 28.9312 21.075 -3.834
      vertex 52.1265 11.825 -3.834
    endloop
  endfacet
  facet normal 0 0 1
    outer loop
      vertex 14.0265 11.825 -3.834
      vertex 28.9312 21.075 -3.834
      vertex 14.0265 17.295 -3.834
    endloop
  endfacet
  facet normal 0 0 1
    outer loop
      vertex 28.9312 21.075 -3.834
      vertex 14.0265 11.825 -3.834
      vertex 52.1265 11.825 -3.834
    endloop
  endfacet
  facet normal -0 0 1
    outer loop
      vertex 168.91 -1.27 -3.834
      vertex 170.95 -18.55 -3.834
      vertex 170.95 -1.27 -3.834
    endloop
  endfacet
  facet normal 0 0 1
    outer loop
      vertex 170.95 -18.55 -3.834
      vertex 168.91 -1.27 -3.834
      vertex 168.91 -18.55 -3.834
    endloop
  endfacet
  facet normal 0 0 1
    outer loop
      vertex 134.299 45.0889 -3.834
      vertex 138.788 31.2924 -3.834
      vertex 139.429 30.9935 -3.834
    endloop
  endfacet
  facet normal 0 0 1
    outer loop
      vertex 134.299 45.0889 -3.834
      vertex 134 44.4481 -3.834
      vertex 138.788 31.2924 -3.834
    endloop
  endfacet
  facet normal 0 0 1
    outer loop
      vertex 134.299 45.0889 -3.834
      vertex 120.844 39.6598 -3.834
      vertex 134 44.4481 -3.834
    endloop
  endfacet
  facet normal 0 -0 1
    outer loop
      vertex 120.844 39.6598 -3.834
      vertex 134.299 45.0889 -3.834
      vertex 120.203 39.9586 -3.834
    endloop
  endfacet
  facet normal 0 0 1
    outer loop
      vertex 125.632 26.5041 -3.834
      vertex 139.429 30.9935 -3.834
      vertex 138.788 31.2924 -3.834
    endloop
  endfacet
  facet normal -0 0 1
    outer loop
      vertex 125.632 26.5041 -3.834
      vertex 125.333 25.8632 -3.834
      vertex 139.429 30.9935 -3.834
    endloop
  endfacet
  facet normal 0 0 1
    outer loop
      vertex 120.844 39.6598 -3.834
      vertex 125.333 25.8632 -3.834
      vertex 125.632 26.5041 -3.834
    endloop
  endfacet
  facet normal 0 0 1
    outer loop
      vertex 125.333 25.8632 -3.834
      vertex 120.844 39.6598 -3.834
      vertex 120.203 39.9586 -3.834
    endloop
  endfacet
  facet normal 0 0 1
    outer loop
      vertex 67.1265 17.025 -3.834
      vertex 66.6265 16.525 -3.834
      vertex 67.1265 11.825 -3.834
    endloop
  endfacet
  facet normal 0 0 1
    outer loop
      vertex 67.1265 17.025 -3.834
      vertex 52.6265 16.525 -3.834
      vertex 66.6265 16.525 -3.834
    endloop
  endfacet
  facet normal -0 0 1
    outer loop
      vertex 52.1265 17.025 -3.834
      vertex 52.6265 16.525 -3.834
      vertex 67.1265 17.025 -3.834
    endloop
  endfacet
  facet normal 0 0 1
    outer loop
      vertex 52.1265 11.825 -3.834
      vertex 52.6265 16.525 -3.834
      vertex 52.1265 17.025 -3.834
    endloop
  endfacet
  facet normal 0 0 1
    outer loop
      vertex 52.6265 16.525 -3.834
      vertex 52.1265 11.825 -3.834
      vertex 52.6265 11.825 -3.834
    endloop
  endfacet
  facet normal 0 0 1
    outer loop
      vertex 67.1265 11.825 -3.834
      vertex 66.6265 16.525 -3.834
      vertex 66.6265 11.825 -3.834
    endloop
  endfacet
  facet normal 0 0 1
    outer loop
      vertex 52.6265 7.225 -3.834
      vertex 52.1265 7.225 -3.834
      vertex 52.6265 2.525 -3.834
    endloop
  endfacet
  facet normal 0 0 1
    outer loop
      vertex 66.6265 2.525 -3.834
      vertex 67.1265 7.225 -3.834
      vertex 66.6265 7.225 -3.834
    endloop
  endfacet
  facet normal 0 0 1
    outer loop
      vertex 67.1265 7.225 -3.834
      vertex 66.6265 2.525 -3.834
      vertex 67.1265 2.025 -3.834
    endloop
  endfacet
  facet normal -0 0 1
    outer loop
      vertex 52.6265 2.525 -3.834
      vertex 67.1265 2.025 -3.834
      vertex 66.6265 2.525 -3.834
    endloop
  endfacet
  facet normal 0 0 1
    outer loop
      vertex 52.6265 2.525 -3.834
      vertex 52.1265 2.025 -3.834
      vertex 67.1265 2.025 -3.834
    endloop
  endfacet
  facet normal 0 0 1
    outer loop
      vertex 52.1265 2.025 -3.834
      vertex 52.6265 2.525 -3.834
      vertex 52.1265 7.225 -3.834
    endloop
  endfacet
  facet normal 0 0 1
    outer loop
      vertex 67.0312 36.075 -3.834
      vertex 66.5312 35.575 -3.834
      vertex 67.0312 21.075 -3.834
    endloop
  endfacet
  facet normal 0 0 1
    outer loop
      vertex 67.0312 36.075 -3.834
      vertex 52.5312 35.575 -3.834
      vertex 66.5312 35.575 -3.834
    endloop
  endfacet
  facet normal 0 0 1
    outer loop
      vertex 52.5312 35.575 -3.834
      vertex 52.0312 36.075 -3.834
      vertex 52.5312 21.575 -3.834
    endloop
  endfacet
  facet normal -0 0 1
    outer loop
      vertex 52.0312 36.075 -3.834
      vertex 52.5312 35.575 -3.834
      vertex 67.0312 36.075 -3.834
    endloop
  endfacet
  facet normal -0 0 1
    outer loop
      vertex 66.5312 21.575 -3.834
      vertex 67.0312 21.075 -3.834
      vertex 66.5312 35.575 -3.834
    endloop
  endfacet
  facet normal -0 0 1
    outer loop
      vertex 52.5312 21.575 -3.834
      vertex 67.0312 21.075 -3.834
      vertex 66.5312 21.575 -3.834
    endloop
  endfacet
  facet normal 0 0 1
    outer loop
      vertex 52.5312 21.575 -3.834
      vertex 52.0312 21.075 -3.834
      vertex 67.0312 21.075 -3.834
    endloop
  endfacet
  facet normal 0 0 1
    outer loop
      vertex 52.0312 21.075 -3.834
      vertex 52.5312 21.575 -3.834
      vertex 52.0312 36.075 -3.834
    endloop
  endfacet
  facet normal 0 0 1
    outer loop
      vertex 95.6062 36.075 -3.834
      vertex 95.1062 35.575 -3.834
      vertex 95.6062 21.075 -3.834
    endloop
  endfacet
  facet normal 0 0 1
    outer loop
      vertex 95.6062 36.075 -3.834
      vertex 81.1062 35.575 -3.834
      vertex 95.1062 35.575 -3.834
    endloop
  endfacet
  facet normal 0 0 1
    outer loop
      vertex 81.1062 35.575 -3.834
      vertex 80.6062 36.075 -3.834
      vertex 81.1062 21.575 -3.834
    endloop
  endfacet
  facet normal -0 0 1
    outer loop
      vertex 80.6062 36.075 -3.834
      vertex 81.1062 35.575 -3.834
      vertex 95.6062 36.075 -3.834
    endloop
  endfacet
  facet normal -0 0 1
    outer loop
      vertex 95.1062 21.575 -3.834
      vertex 95.6062 21.075 -3.834
      vertex 95.1062 35.575 -3.834
    endloop
  endfacet
  facet normal -0 0 1
    outer loop
      vertex 81.1062 21.575 -3.834
      vertex 95.6062 21.075 -3.834
      vertex 95.1062 21.575 -3.834
    endloop
  endfacet
  facet normal 0 0 1
    outer loop
      vertex 81.1062 21.575 -3.834
      vertex 80.6062 21.075 -3.834
      vertex 95.6062 21.075 -3.834
    endloop
  endfacet
  facet normal 0 0 1
    outer loop
      vertex 80.6062 21.075 -3.834
      vertex 81.1062 21.575 -3.834
      vertex 80.6062 36.075 -3.834
    endloop
  endfacet
  facet normal 0 0 1
    outer loop
      vertex 117.037 36.075 -3.834
      vertex 116.537 35.575 -3.834
      vertex 117.037 21.075 -3.834
    endloop
  endfacet
  facet normal 0 0 1
    outer loop
      vertex 117.037 36.075 -3.834
      vertex 102.537 35.575 -3.834
      vertex 116.537 35.575 -3.834
    endloop
  endfacet
  facet normal 0 0 1
    outer loop
      vertex 102.537 35.575 -3.834
      vertex 102.037 36.075 -3.834
      vertex 102.537 21.575 -3.834
    endloop
  endfacet
  facet normal -0 0 1
    outer loop
      vertex 102.037 36.075 -3.834
      vertex 102.537 35.575 -3.834
      vertex 117.037 36.075 -3.834
    endloop
  endfacet
  facet normal -0 0 1
    outer loop
      vertex 116.537 21.575 -3.834
      vertex 117.037 21.075 -3.834
      vertex 116.537 35.575 -3.834
    endloop
  endfacet
  facet normal -0 0 1
    outer loop
      vertex 102.537 21.575 -3.834
      vertex 117.037 21.075 -3.834
      vertex 116.537 21.575 -3.834
    endloop
  endfacet
  facet normal 0 0 1
    outer loop
      vertex 102.537 21.575 -3.834
      vertex 102.037 21.075 -3.834
      vertex 117.037 21.075 -3.834
    endloop
  endfacet
  facet normal 0 0 1
    outer loop
      vertex 102.037 21.075 -3.834
      vertex 102.537 21.575 -3.834
      vertex 102.037 36.075 -3.834
    endloop
  endfacet
  facet normal 0 0 1
    outer loop
      vertex 28.9312 36.075 -3.834
      vertex 28.4312 35.575 -3.834
      vertex 28.9312 30.875 -3.834
    endloop
  endfacet
  facet normal 0 0 1
    outer loop
      vertex 28.9312 36.075 -3.834
      vertex 14.4312 35.575 -3.834
      vertex 28.4312 35.575 -3.834
    endloop
  endfacet
  facet normal -0 0 1
    outer loop
      vertex 13.9312 36.075 -3.834
      vertex 14.4312 35.575 -3.834
      vertex 28.9312 36.075 -3.834
    endloop
  endfacet
  facet normal 0 0 1
    outer loop
      vertex 13.9312 30.875 -3.834
      vertex 14.4312 35.575 -3.834
      vertex 13.9312 36.075 -3.834
    endloop
  endfacet
  facet normal 0 0 1
    outer loop
      vertex 14.4312 35.575 -3.834
      vertex 13.9312 30.875 -3.834
      vertex 14.4312 30.875 -3.834
    endloop
  endfacet
  facet normal 0 0 1
    outer loop
      vertex 28.9312 30.875 -3.834
      vertex 28.4312 35.575 -3.834
      vertex 28.4312 30.875 -3.834
    endloop
  endfacet
  facet normal 0 0 1
    outer loop
      vertex 14.4312 26.275 -3.834
      vertex 13.9312 26.275 -3.834
      vertex 14.4312 21.575 -3.834
    endloop
  endfacet
  facet normal 0 0 1
    outer loop
      vertex 28.4312 21.575 -3.834
      vertex 28.9312 26.275 -3.834
      vertex 28.4312 26.275 -3.834
    endloop
  endfacet
  facet normal 0 0 1
    outer loop
      vertex 28.9312 26.275 -3.834
      vertex 28.4312 21.575 -3.834
      vertex 28.9312 21.075 -3.834
    endloop
  endfacet
  facet normal -0 0 1
    outer loop
      vertex 14.4312 21.575 -3.834
      vertex 28.9312 21.075 -3.834
      vertex 28.4312 21.575 -3.834
    endloop
  endfacet
  facet normal 0 0 1
    outer loop
      vertex 14.4312 21.575 -3.834
      vertex 13.9312 21.075 -3.834
      vertex 28.9312 21.075 -3.834
    endloop
  endfacet
  facet normal 0 0 1
    outer loop
      vertex 13.9312 21.075 -3.834
      vertex 14.4312 21.575 -3.834
      vertex 13.9312 26.275 -3.834
    endloop
  endfacet
  facet normal -1 0 0
    outer loop
      vertex 66.6265 11.825 -5.334
      vertex 66.6265 16.525 -3.834
      vertex 66.6265 16.525 -5.334
    endloop
  endfacet
  facet normal -1 -0 0
    outer loop
      vertex 66.6265 16.525 -3.834
      vertex 66.6265 11.825 -5.334
      vertex 66.6265 11.825 -3.834
    endloop
  endfacet
  facet normal -1 0 0
    outer loop
      vertex 66.6265 2.525 -5.334
      vertex 66.6265 7.225 -3.834
      vertex 66.6265 7.225 -5.334
    endloop
  endfacet
  facet normal -1 -0 0
    outer loop
      vertex 66.6265 7.225 -3.834
      vertex 66.6265 2.525 -5.334
      vertex 66.6265 2.525 -3.834
    endloop
  endfacet
  facet normal 1 -0 0
    outer loop
      vertex 52.6265 11.825 -3.834
      vertex 52.6265 16.525 -5.334
      vertex 52.6265 16.525 -3.834
    endloop
  endfacet
  facet normal 1 0 0
    outer loop
      vertex 52.6265 16.525 -5.334
      vertex 52.6265 11.825 -3.834
      vertex 52.6265 11.825 -5.334
    endloop
  endfacet
  facet normal 1 -0 0
    outer loop
      vertex 52.6265 2.525 -3.834
      vertex 52.6265 7.225 -5.334
      vertex 52.6265 7.225 -3.834
    endloop
  endfacet
  facet normal 1 0 0
    outer loop
      vertex 52.6265 7.225 -5.334
      vertex 52.6265 2.525 -3.834
      vertex 52.6265 2.525 -5.334
    endloop
  endfacet
  facet normal 0 -1 0
    outer loop
      vertex 52.6265 16.525 -5.334
      vertex 66.6265 16.525 -3.834
      vertex 52.6265 16.525 -3.834
    endloop
  endfacet
  facet normal 0 -1 -0
    outer loop
      vertex 66.6265 16.525 -3.834
      vertex 52.6265 16.525 -5.334
      vertex 66.6265 16.525 -5.334
    endloop
  endfacet
  facet normal 0 1 -0
    outer loop
      vertex 66.6265 2.525 -5.334
      vertex 52.6265 2.525 -3.834
      vertex 66.6265 2.525 -3.834
    endloop
  endfacet
  facet normal 0 1 0
    outer loop
      vertex 52.6265 2.525 -3.834
      vertex 66.6265 2.525 -5.334
      vertex 52.6265 2.525 -5.334
    endloop
  endfacet
  facet normal 0 0 -1
    outer loop
      vertex 118.011 38.6 -5.334
      vertex -0.5 38.6 -5.334
      vertex 116.967 41.4678 -5.334
    endloop
  endfacet
  facet normal 0 0 -1
    outer loop
      vertex 170.95 -18.55 -5.334
      vertex 142.665 29.4844 -5.334
      vertex 170.95 75.7 -5.334
    endloop
  endfacet
  facet normal 0 0 -1
    outer loop
      vertex 119.753 -0.5 -5.334
      vertex 142.665 29.4844 -5.334
      vertex 170.95 -18.55 -5.334
    endloop
  endfacet
  facet normal 0 0 -1
    outer loop
      vertex 142.665 29.4844 -5.334
      vertex 119.753 -0.5 -5.334
      vertex 123.824 22.6269 -5.334
    endloop
  endfacet
  facet normal 0 0 -1
    outer loop
      vertex -18.55 -18.55 -5.334
      vertex 119.753 -0.5 -5.334
      vertex 170.95 -18.55 -5.334
    endloop
  endfacet
  facet normal 0 0 -1
    outer loop
      vertex -0.499999 -0.5 -5.334
      vertex -0.5 18.55 -5.334
      vertex -0.499999 18.55 -5.334
    endloop
  endfacet
  facet normal -0 0 -1
    outer loop
      vertex -0.5 18.55 -5.334
      vertex -18.55 -18.55 -5.334
      vertex -0.5 38.6 -5.334
    endloop
  endfacet
  facet normal -0 0 -1
    outer loop
      vertex -0.499999 -0.5 -5.334
      vertex -18.55 -18.55 -5.334
      vertex -0.5 18.55 -5.334
    endloop
  endfacet
  facet normal -0 0 -1
    outer loop
      vertex 119.753 -0.5 -5.334
      vertex -18.55 -18.55 -5.334
      vertex -0.499999 -0.5 -5.334
    endloop
  endfacet
  facet normal 0 0 -1
    outer loop
      vertex 135.808 48.3253 -5.334
      vertex 170.95 75.7 -5.334
      vertex 142.665 29.4844 -5.334
    endloop
  endfacet
  facet normal 0 0 -1
    outer loop
      vertex 116.967 41.4678 -5.334
      vertex 170.95 75.7 -5.334
      vertex 135.808 48.3253 -5.334
    endloop
  endfacet
  facet normal 0 0 -1
    outer loop
      vertex -18.55 75.7 -5.334
      vertex 116.967 41.4678 -5.334
      vertex -0.5 38.6 -5.334
    endloop
  endfacet
  facet normal 0 0 -1
    outer loop
      vertex 116.967 41.4678 -5.334
      vertex -18.55 75.7 -5.334
      vertex 170.95 75.7 -5.334
    endloop
  endfacet
  facet normal 0 0 -1
    outer loop
      vertex -18.55 75.7 -5.334
      vertex -0.5 38.6 -5.334
      vertex -18.55 -18.55 -5.334
    endloop
  endfacet
  facet normal 0 0 -1
    outer loop
      vertex 119.753 19.55 -5.334
      vertex 123.824 22.6269 -5.334
      vertex 119.753 -0.5 -5.334
    endloop
  endfacet
  facet normal 0 0 -1
    outer loop
      vertex 119.562 19.55 -5.334
      vertex 123.824 22.6269 -5.334
      vertex 119.753 19.55 -5.334
    endloop
  endfacet
  facet normal -0 0 -1
    outer loop
      vertex 123.824 22.6269 -5.334
      vertex 119.562 19.55 -5.334
      vertex 119.562 34.3362 -5.334
    endloop
  endfacet
  facet normal 0 0 -1
    outer loop
      vertex 6.08125 29.45 -5.334
      vertex 5.25625 29.45 -5.334
      vertex 6.08125 35.345 -5.334
    endloop
  endfacet
  facet normal 0 0 -1
    outer loop
      vertex 7.80625 35.345 -5.334
      vertex 6.08125 35.345 -5.334
      vertex 7.80625 36.545 -5.334
    endloop
  endfacet
  facet normal 0 0 -1
    outer loop
      vertex 12.8313 35.345 -5.334
      vertex 14.4312 30.875 -5.334
      vertex 12.8313 30.875 -5.334
    endloop
  endfacet
  facet normal 0 0 -1
    outer loop
      vertex 30.0312 30.875 -5.334
      vertex 28.4312 30.875 -5.334
      vertex 30.0312 35.345 -5.334
    endloop
  endfacet
  facet normal 0 0 -1
    outer loop
      vertex 31.7562 35.345 -5.334
      vertex 30.0312 35.345 -5.334
      vertex 31.7562 36.545 -5.334
    endloop
  endfacet
  facet normal 0 0 -1
    outer loop
      vertex 36.7812 23.045 -5.334
      vertex 52.6265 16.525 -5.334
      vertex 52.6265 11.825 -5.334
    endloop
  endfacet
  facet normal 0 0 -1
    outer loop
      vertex 37.6063 29.45 -5.334
      vertex 52.5312 21.575 -5.334
      vertex 37.6063 26.275 -5.334
    endloop
  endfacet
  facet normal 0 0 -1
    outer loop
      vertex 52.6265 16.525 -5.334
      vertex 36.7812 23.045 -5.334
      vertex 52.5312 21.575 -5.334
    endloop
  endfacet
  facet normal 0 0 -1
    outer loop
      vertex 52.5312 21.575 -5.334
      vertex 36.7812 23.045 -5.334
      vertex 37.6063 26.275 -5.334
    endloop
  endfacet
  facet normal 0 0 -1
    outer loop
      vertex 28.4312 21.575 -5.334
      vertex 36.7812 23.045 -5.334
      vertex 52.6265 11.825 -5.334
    endloop
  endfacet
  facet normal 0 0 -1
    outer loop
      vertex 28.4312 26.275 -5.334
      vertex 30.0312 23.045 -5.334
      vertex 28.4312 21.575 -5.334
    endloop
  endfacet
  facet normal -0 0 -1
    outer loop
      vertex 36.7812 23.045 -5.334
      vertex 28.4312 21.575 -5.334
      vertex 30.0312 23.045 -5.334
    endloop
  endfacet
  facet normal 0 0 -1
    outer loop
      vertex 13.0265 11.825 -5.334
      vertex 28.4312 21.575 -5.334
      vertex 52.6265 11.825 -5.334
    endloop
  endfacet
  facet normal 0 0 -1
    outer loop
      vertex 13.0265 16.295 -5.334
      vertex 28.4312 21.575 -5.334
      vertex 13.0265 11.825 -5.334
    endloop
  endfacet
  facet normal -0 0 -1
    outer loop
      vertex 28.4312 21.575 -5.334
      vertex 13.0265 16.295 -5.334
      vertex 14.4312 21.575 -5.334
    endloop
  endfacet
  facet normal 0 0 -1
    outer loop
      vertex 11.3015 17.495 -5.334
      vertex 14.4312 21.575 -5.334
      vertex 13.0265 16.295 -5.334
    endloop
  endfacet
  facet normal 0 0 -1
    outer loop
      vertex 14.4312 21.575 -5.334
      vertex 12.8313 23.045 -5.334
      vertex 14.4312 26.275 -5.334
    endloop
  endfacet
  facet normal -0 0 -1
    outer loop
      vertex 14.4312 26.275 -5.334
      vertex 12.8313 23.045 -5.334
      vertex 12.8313 26.275 -5.334
    endloop
  endfacet
  facet normal 0 0 -1
    outer loop
      vertex 52.6265 16.525 -5.334
      vertex 66.5312 21.575 -5.334
      vertex 66.6265 16.525 -5.334
    endloop
  endfacet
  facet normal -0 0 -1
    outer loop
      vertex 66.5312 21.575 -5.334
      vertex 52.6265 16.525 -5.334
      vertex 52.5312 21.575 -5.334
    endloop
  endfacet
  facet normal 0 0 -1
    outer loop
      vertex 106.227 3.995 -5.334
      vertex 66.6265 7.225 -5.334
      vertex 106.227 7.225 -5.334
    endloop
  endfacet
  facet normal -0 0 -1
    outer loop
      vertex 37.6063 26.275 -5.334
      vertex 36.7812 23.045 -5.334
      vertex 36.7812 26.275 -5.334
    endloop
  endfacet
  facet normal 0 0 -1
    outer loop
      vertex 30.0312 23.045 -5.334
      vertex 28.4312 26.275 -5.334
      vertex 30.0312 26.275 -5.334
    endloop
  endfacet
  facet normal 0 0 -1
    outer loop
      vertex 5.4515 10.4 -5.334
      vertex 6.2765 16.295 -5.334
      vertex 6.2765 10.4 -5.334
    endloop
  endfacet
  facet normal 0 0 -1
    outer loop
      vertex -0.499999 18.55 -5.334
      vertex 6.2765 16.295 -5.334
      vertex 5.4515 10.4 -5.334
    endloop
  endfacet
  facet normal 0 0 -1
    outer loop
      vertex 6.2765 16.295 -5.334
      vertex -0.499999 18.55 -5.334
      vertex 6.08125 23.045 -5.334
    endloop
  endfacet
  facet normal 0 -0 -1
    outer loop
      vertex 5.25625 26.275 -5.334
      vertex 6.08125 23.045 -5.334
      vertex -0.499999 18.55 -5.334
    endloop
  endfacet
  facet normal 0 0 -1
    outer loop
      vertex 8.0015 16.295 -5.334
      vertex 6.2765 16.295 -5.334
      vertex 8.0015 17.495 -5.334
    endloop
  endfacet
  facet normal 0 0 -1
    outer loop
      vertex 107.951 16.295 -5.334
      vertex 106.227 16.295 -5.334
      vertex 107.951 17.495 -5.334
    endloop
  endfacet
  facet normal 0 0 -1
    outer loop
      vertex 113.801 10.4 -5.334
      vertex 119.753 19.55 -5.334
      vertex 119.753 -0.5 -5.334
    endloop
  endfacet
  facet normal 0 0 -1
    outer loop
      vertex 116.537 21.575 -5.334
      vertex 119.562 34.3362 -5.334
      vertex 119.562 19.55 -5.334
    endloop
  endfacet
  facet normal -0 0 -1
    outer loop
      vertex 119.753 19.55 -5.334
      vertex 113.801 10.4 -5.334
      vertex 119.562 19.55 -5.334
    endloop
  endfacet
  facet normal -0 0 -1
    outer loop
      vertex 119.562 34.3362 -5.334
      vertex 116.537 21.575 -5.334
      vertex 116.537 35.575 -5.334
    endloop
  endfacet
  facet normal 0 0 -1
    outer loop
      vertex 113.801 10.4 -5.334
      vertex 119.753 -0.5 -5.334
      vertex 113.801 7.225 -5.334
    endloop
  endfacet
  facet normal 0 0 -1
    outer loop
      vertex 119.753 -0.5 -5.334
      vertex 112.977 3.995 -5.334
      vertex 113.801 7.225 -5.334
    endloop
  endfacet
  facet normal 0 0 -1
    outer loop
      vertex 119.753 -0.5 -5.334
      vertex 106.227 3.995 -5.334
      vertex 112.977 3.995 -5.334
    endloop
  endfacet
  facet normal 0 0 -1
    outer loop
      vertex 66.6265 7.225 -5.334
      vertex 106.227 3.995 -5.334
      vertex 66.6265 2.525 -5.334
    endloop
  endfacet
  facet normal 0 0 -1
    outer loop
      vertex 119.753 -0.5 -5.334
      vertex 66.6265 2.525 -5.334
      vertex 106.227 3.995 -5.334
    endloop
  endfacet
  facet normal 0 0 -1
    outer loop
      vertex 119.753 -0.5 -5.334
      vertex 52.6265 2.525 -5.334
      vertex 66.6265 2.525 -5.334
    endloop
  endfacet
  facet normal 0 0 -1
    outer loop
      vertex 52.6265 2.525 -5.334
      vertex 13.0265 3.995 -5.334
      vertex 52.6265 7.225 -5.334
    endloop
  endfacet
  facet normal 0 0 -1
    outer loop
      vertex -0.499999 -0.5 -5.334
      vertex 52.6265 2.525 -5.334
      vertex 119.753 -0.5 -5.334
    endloop
  endfacet
  facet normal -0 0 -1
    outer loop
      vertex 52.6265 2.525 -5.334
      vertex -0.499999 -0.5 -5.334
      vertex 13.0265 3.995 -5.334
    endloop
  endfacet
  facet normal 0 0 -1
    outer loop
      vertex 6.2765 3.995 -5.334
      vertex 5.4515 7.225 -5.334
      vertex 6.2765 7.225 -5.334
    endloop
  endfacet
  facet normal 0 0 -1
    outer loop
      vertex -0.499999 -0.5 -5.334
      vertex 5.4515 10.4 -5.334
      vertex 5.4515 7.225 -5.334
    endloop
  endfacet
  facet normal 0 0 -1
    outer loop
      vertex 6.08125 23.045 -5.334
      vertex 5.25625 26.275 -5.334
      vertex 6.08125 26.275 -5.334
    endloop
  endfacet
  facet normal -0 0 -1
    outer loop
      vertex 5.4515 10.4 -5.334
      vertex -0.499999 -0.5 -5.334
      vertex -0.499999 18.55 -5.334
    endloop
  endfacet
  facet normal -0 0 -1
    outer loop
      vertex 6.2765 3.995 -5.334
      vertex -0.499999 -0.5 -5.334
      vertex 5.4515 7.225 -5.334
    endloop
  endfacet
  facet normal -0 0 -1
    outer loop
      vertex 13.0265 3.995 -5.334
      vertex -0.499999 -0.5 -5.334
      vertex 6.2765 3.995 -5.334
    endloop
  endfacet
  facet normal 0 0 -1
    outer loop
      vertex 119.562 34.3362 -5.334
      vertex 116.537 35.575 -5.334
      vertex 118.011 38.6 -5.334
    endloop
  endfacet
  facet normal 0 0 -1
    outer loop
      vertex 102.537 35.575 -5.334
      vertex 118.011 38.6 -5.334
      vertex 116.537 35.575 -5.334
    endloop
  endfacet
  facet normal 0 0 -1
    outer loop
      vertex 95.1062 35.575 -5.334
      vertex 102.537 35.575 -5.334
      vertex 95.1062 21.575 -5.334
    endloop
  endfacet
  facet normal 0 0 -1
    outer loop
      vertex 95.1062 35.575 -5.334
      vertex 118.011 38.6 -5.334
      vertex 102.537 35.575 -5.334
    endloop
  endfacet
  facet normal 0 0 -1
    outer loop
      vertex 81.1062 35.575 -5.334
      vertex 118.011 38.6 -5.334
      vertex 95.1062 35.575 -5.334
    endloop
  endfacet
  facet normal 0 0 -1
    outer loop
      vertex 66.5312 21.575 -5.334
      vertex 81.1062 21.575 -5.334
      vertex 66.6265 16.525 -5.334
    endloop
  endfacet
  facet normal 0 0 -1
    outer loop
      vertex 81.1062 21.575 -5.334
      vertex 66.5312 21.575 -5.334
      vertex 81.1062 35.575 -5.334
    endloop
  endfacet
  facet normal 0 0 -1
    outer loop
      vertex 66.5312 35.575 -5.334
      vertex 81.1062 35.575 -5.334
      vertex 66.5312 21.575 -5.334
    endloop
  endfacet
  facet normal 0 0 -1
    outer loop
      vertex 66.5312 35.575 -5.334
      vertex 118.011 38.6 -5.334
      vertex 81.1062 35.575 -5.334
    endloop
  endfacet
  facet normal 0 0 -1
    outer loop
      vertex 35.0563 36.545 -5.334
      vertex 66.5312 35.575 -5.334
      vertex 52.5312 35.575 -5.334
    endloop
  endfacet
  facet normal 0 0 -1
    outer loop
      vertex 52.5312 21.575 -5.334
      vertex 37.6063 29.45 -5.334
      vertex 52.5312 35.575 -5.334
    endloop
  endfacet
  facet normal 0 0 -1
    outer loop
      vertex 36.7812 35.345 -5.334
      vertex 37.6063 29.45 -5.334
      vertex 36.7812 29.45 -5.334
    endloop
  endfacet
  facet normal 0 0 -1
    outer loop
      vertex 37.6063 29.45 -5.334
      vertex 36.7812 35.345 -5.334
      vertex 52.5312 35.575 -5.334
    endloop
  endfacet
  facet normal 0 0 -1
    outer loop
      vertex 35.0563 36.545 -5.334
      vertex 52.5312 35.575 -5.334
      vertex 36.7812 35.345 -5.334
    endloop
  endfacet
  facet normal 0 0 -1
    outer loop
      vertex 35.0563 36.545 -5.334
      vertex 36.7812 35.345 -5.334
      vertex 35.0563 35.345 -5.334
    endloop
  endfacet
  facet normal 0 0 -1
    outer loop
      vertex 66.5312 35.575 -5.334
      vertex 35.0563 36.545 -5.334
      vertex 118.011 38.6 -5.334
    endloop
  endfacet
  facet normal 0 0 -1
    outer loop
      vertex -0.5 38.6 -5.334
      vertex 35.0563 36.545 -5.334
      vertex 31.7562 36.545 -5.334
    endloop
  endfacet
  facet normal 0 0 -1
    outer loop
      vertex 28.4312 35.575 -5.334
      vertex 30.0312 35.345 -5.334
      vertex 28.4312 30.875 -5.334
    endloop
  endfacet
  facet normal 0 0 -1
    outer loop
      vertex 28.4312 35.575 -5.334
      vertex 31.7562 36.545 -5.334
      vertex 30.0312 35.345 -5.334
    endloop
  endfacet
  facet normal 0 0 -1
    outer loop
      vertex 14.4312 35.575 -5.334
      vertex 31.7562 36.545 -5.334
      vertex 28.4312 35.575 -5.334
    endloop
  endfacet
  facet normal 0 0 -1
    outer loop
      vertex 14.4312 30.875 -5.334
      vertex 12.8313 35.345 -5.334
      vertex 14.4312 35.575 -5.334
    endloop
  endfacet
  facet normal 0 0 -1
    outer loop
      vertex 11.1062 36.545 -5.334
      vertex 12.8313 35.345 -5.334
      vertex 11.1062 35.345 -5.334
    endloop
  endfacet
  facet normal 0 0 -1
    outer loop
      vertex 12.8313 35.345 -5.334
      vertex 11.1062 36.545 -5.334
      vertex 14.4312 35.575 -5.334
    endloop
  endfacet
  facet normal 0 0 -1
    outer loop
      vertex 11.1062 36.545 -5.334
      vertex 31.7562 36.545 -5.334
      vertex 14.4312 35.575 -5.334
    endloop
  endfacet
  facet normal 0 0 -1
    outer loop
      vertex -0.5 38.6 -5.334
      vertex 31.7562 36.545 -5.334
      vertex 11.1062 36.545 -5.334
    endloop
  endfacet
  facet normal 0 0 -1
    outer loop
      vertex -0.5 38.6 -5.334
      vertex 11.1062 36.545 -5.334
      vertex 7.80625 36.545 -5.334
    endloop
  endfacet
  facet normal 0 0 -1
    outer loop
      vertex -0.5 18.55 -5.334
      vertex 5.25625 26.275 -5.334
      vertex -0.499999 18.55 -5.334
    endloop
  endfacet
  facet normal -0 0 -1
    outer loop
      vertex 5.25625 26.275 -5.334
      vertex -0.5 18.55 -5.334
      vertex 5.25625 29.45 -5.334
    endloop
  endfacet
  facet normal 0 0 -1
    outer loop
      vertex -0.5 38.6 -5.334
      vertex 5.25625 29.45 -5.334
      vertex -0.5 18.55 -5.334
    endloop
  endfacet
  facet normal 0 0 -1
    outer loop
      vertex 35.0563 36.545 -5.334
      vertex -0.5 38.6 -5.334
      vertex 118.011 38.6 -5.334
    endloop
  endfacet
  facet normal 0 0 -1
    outer loop
      vertex 6.08125 35.345 -5.334
      vertex -0.5 38.6 -5.334
      vertex 7.80625 36.545 -5.334
    endloop
  endfacet
  facet normal 0 0 -1
    outer loop
      vertex 5.25625 29.45 -5.334
      vertex -0.5 38.6 -5.334
      vertex 6.08125 35.345 -5.334
    endloop
  endfacet
  facet normal 0 0 -1
    outer loop
      vertex 112.977 16.295 -5.334
      vertex 119.562 19.55 -5.334
      vertex 113.801 10.4 -5.334
    endloop
  endfacet
  facet normal 0 0 -1
    outer loop
      vertex 112.977 16.295 -5.334
      vertex 113.801 10.4 -5.334
      vertex 112.977 10.4 -5.334
    endloop
  endfacet
  facet normal -0 0 -1
    outer loop
      vertex 119.562 19.55 -5.334
      vertex 112.977 16.295 -5.334
      vertex 116.537 21.575 -5.334
    endloop
  endfacet
  facet normal 0 0 -1
    outer loop
      vertex 111.252 17.495 -5.334
      vertex 112.977 16.295 -5.334
      vertex 111.252 16.295 -5.334
    endloop
  endfacet
  facet normal 0 0 -1
    outer loop
      vertex 112.977 16.295 -5.334
      vertex 111.252 17.495 -5.334
      vertex 116.537 21.575 -5.334
    endloop
  endfacet
  facet normal 0 0 -1
    outer loop
      vertex 107.951 17.495 -5.334
      vertex 116.537 21.575 -5.334
      vertex 111.252 17.495 -5.334
    endloop
  endfacet
  facet normal 0 0 -1
    outer loop
      vertex 107.951 17.495 -5.334
      vertex 102.537 21.575 -5.334
      vertex 116.537 21.575 -5.334
    endloop
  endfacet
  facet normal 0 0 -1
    outer loop
      vertex 102.537 21.575 -5.334
      vertex 107.951 17.495 -5.334
      vertex 106.227 16.295 -5.334
    endloop
  endfacet
  facet normal -0 0 -1
    outer loop
      vertex 113.801 7.225 -5.334
      vertex 112.977 3.995 -5.334
      vertex 112.977 7.225 -5.334
    endloop
  endfacet
  facet normal 0 0 -1
    outer loop
      vertex 11.3015 17.495 -5.334
      vertex 13.0265 16.295 -5.334
      vertex 11.3015 16.295 -5.334
    endloop
  endfacet
  facet normal -0 0 -1
    outer loop
      vertex 14.4312 21.575 -5.334
      vertex 11.3015 17.495 -5.334
      vertex 12.8313 23.045 -5.334
    endloop
  endfacet
  facet normal 0 0 -1
    outer loop
      vertex 8.0015 17.495 -5.334
      vertex 12.8313 23.045 -5.334
      vertex 11.3015 17.495 -5.334
    endloop
  endfacet
  facet normal 0 0 -1
    outer loop
      vertex 6.08125 23.045 -5.334
      vertex 8.0015 17.495 -5.334
      vertex 6.2765 16.295 -5.334
    endloop
  endfacet
  facet normal 0 0 -1
    outer loop
      vertex 8.0015 17.495 -5.334
      vertex 6.08125 23.045 -5.334
      vertex 12.8313 23.045 -5.334
    endloop
  endfacet
  facet normal -0 0 -1
    outer loop
      vertex 52.6265 7.225 -5.334
      vertex 13.0265 3.995 -5.334
      vertex 13.0265 7.225 -5.334
    endloop
  endfacet
  facet normal 0 0 -1
    outer loop
      vertex 95.1062 21.575 -5.334
      vertex 106.227 16.295 -5.334
      vertex 106.227 11.825 -5.334
    endloop
  endfacet
  facet normal 0 0 -1
    outer loop
      vertex 102.537 21.575 -5.334
      vertex 95.1062 21.575 -5.334
      vertex 102.537 35.575 -5.334
    endloop
  endfacet
  facet normal 0 0 -1
    outer loop
      vertex 106.227 16.295 -5.334
      vertex 95.1062 21.575 -5.334
      vertex 102.537 21.575 -5.334
    endloop
  endfacet
  facet normal 0 0 -1
    outer loop
      vertex 106.227 11.825 -5.334
      vertex 81.1062 21.575 -5.334
      vertex 95.1062 21.575 -5.334
    endloop
  endfacet
  facet normal 0 0 -1
    outer loop
      vertex 66.6265 16.525 -5.334
      vertex 81.1062 21.575 -5.334
      vertex 66.6265 11.825 -5.334
    endloop
  endfacet
  facet normal 0 0 -1
    outer loop
      vertex 66.6265 11.825 -5.334
      vertex 81.1062 21.575 -5.334
      vertex 106.227 11.825 -5.334
    endloop
  endfacet
  facet normal -0 0 -1
    outer loop
      vertex 142.665 29.4844 -5.334
      vertex 125.632 26.5041 -5.334
      vertex 138.788 31.2924 -5.334
    endloop
  endfacet
  facet normal 0 0 -1
    outer loop
      vertex 123.824 22.6269 -5.334
      vertex 125.632 26.5041 -5.334
      vertex 142.665 29.4844 -5.334
    endloop
  endfacet
  facet normal 0 0 -1
    outer loop
      vertex 119.562 34.3362 -5.334
      vertex 125.632 26.5041 -5.334
      vertex 123.824 22.6269 -5.334
    endloop
  endfacet
  facet normal 0 0 -1
    outer loop
      vertex 125.632 26.5041 -5.334
      vertex 119.562 34.3362 -5.334
      vertex 120.844 39.6598 -5.334
    endloop
  endfacet
  facet normal 0 0 -1
    outer loop
      vertex 138.788 31.2924 -5.334
      vertex 135.808 48.3253 -5.334
      vertex 142.665 29.4844 -5.334
    endloop
  endfacet
  facet normal 0 0 -1
    outer loop
      vertex 134 44.4481 -5.334
      vertex 135.808 48.3253 -5.334
      vertex 138.788 31.2924 -5.334
    endloop
  endfacet
  facet normal 0 0 -1
    outer loop
      vertex 120.844 39.6598 -5.334
      vertex 135.808 48.3253 -5.334
      vertex 134 44.4481 -5.334
    endloop
  endfacet
  facet normal 0 0 -1
    outer loop
      vertex 118.011 38.6 -5.334
      vertex 120.844 39.6598 -5.334
      vertex 119.562 34.3362 -5.334
    endloop
  endfacet
  facet normal 0 0 -1
    outer loop
      vertex 116.967 41.4678 -5.334
      vertex 120.844 39.6598 -5.334
      vertex 118.011 38.6 -5.334
    endloop
  endfacet
  facet normal 0 0 -1
    outer loop
      vertex 120.844 39.6598 -5.334
      vertex 116.967 41.4678 -5.334
      vertex 135.808 48.3253 -5.334
    endloop
  endfacet
  facet normal -1 0 0
    outer loop
      vertex 112.977 10.4 -5.334
      vertex 112.977 16.295 -3.834
      vertex 112.977 16.295 -5.334
    endloop
  endfacet
  facet normal -1 -0 0
    outer loop
      vertex 112.977 16.295 -3.834
      vertex 112.977 10.4 -5.334
      vertex 112.977 10.4 -3.834
    endloop
  endfacet
  facet normal -1 0 0
    outer loop
      vertex 112.977 3.995 -5.334
      vertex 112.977 7.225 -3.834
      vertex 112.977 7.225 -5.334
    endloop
  endfacet
  facet normal -1 -0 0
    outer loop
      vertex 112.977 7.225 -3.834
      vertex 112.977 3.995 -5.334
      vertex 112.977 3.995 -3.834
    endloop
  endfacet
  facet normal 1 -0 0
    outer loop
      vertex 106.227 3.995 -3.834
      vertex 106.227 7.225 -5.334
      vertex 106.227 7.225 -3.834
    endloop
  endfacet
  facet normal 1 0 0
    outer loop
      vertex 106.227 7.225 -5.334
      vertex 106.227 3.995 -3.834
      vertex 106.227 3.995 -5.334
    endloop
  endfacet
  facet normal 1 -0 0
    outer loop
      vertex 106.227 11.825 -3.834
      vertex 106.227 16.295 -5.334
      vertex 106.227 16.295 -3.834
    endloop
  endfacet
  facet normal 1 0 0
    outer loop
      vertex 106.227 16.295 -5.334
      vertex 106.227 11.825 -3.834
      vertex 106.227 11.825 -5.334
    endloop
  endfacet
  facet normal 0 -1 0
    outer loop
      vertex 111.252 16.295 -5.334
      vertex 112.977 16.295 -3.834
      vertex 111.252 16.295 -3.834
    endloop
  endfacet
  facet normal 0 -1 -0
    outer loop
      vertex 112.977 16.295 -3.834
      vertex 111.252 16.295 -5.334
      vertex 112.977 16.295 -5.334
    endloop
  endfacet
  facet normal 0 -1 0
    outer loop
      vertex 106.227 16.295 -5.334
      vertex 107.951 16.295 -3.834
      vertex 106.227 16.295 -3.834
    endloop
  endfacet
  facet normal 0 -1 -0
    outer loop
      vertex 107.951 16.295 -3.834
      vertex 106.227 16.295 -5.334
      vertex 107.951 16.295 -5.334
    endloop
  endfacet
  facet normal 0 1 -0
    outer loop
      vertex 112.977 3.995 -5.334
      vertex 106.227 3.995 -3.834
      vertex 112.977 3.995 -3.834
    endloop
  endfacet
  facet normal 0 1 0
    outer loop
      vertex 106.227 3.995 -3.834
      vertex 112.977 3.995 -5.334
      vertex 106.227 3.995 -5.334
    endloop
  endfacet
  facet normal -1 0 0
    outer loop
      vertex 113.801 7.225 -5.334
      vertex 113.801 10.4 -3.834
      vertex 113.801 10.4 -5.334
    endloop
  endfacet
  facet normal -1 -0 0
    outer loop
      vertex 113.801 10.4 -3.834
      vertex 113.801 7.225 -5.334
      vertex 113.801 7.225 -3.834
    endloop
  endfacet
  facet normal 0 -1 0
    outer loop
      vertex 112.977 10.4 -5.334
      vertex 113.801 10.4 -3.834
      vertex 112.977 10.4 -3.834
    endloop
  endfacet
  facet normal 0 -1 -0
    outer loop
      vertex 113.801 10.4 -3.834
      vertex 112.977 10.4 -5.334
      vertex 113.801 10.4 -5.334
    endloop
  endfacet
  facet normal 0 1 -0
    outer loop
      vertex 113.801 7.225 -5.334
      vertex 112.977 7.225 -3.834
      vertex 113.801 7.225 -3.834
    endloop
  endfacet
  facet normal 0 1 0
    outer loop
      vertex 112.977 7.225 -3.834
      vertex 113.801 7.225 -5.334
      vertex 112.977 7.225 -5.334
    endloop
  endfacet
  facet normal -1 0 0
    outer loop
      vertex 111.252 17.495 -5.334
      vertex 111.252 17.295 -3.834
      vertex 111.252 17.495 -3.834
    endloop
  endfacet
  facet normal -1 0 0
    outer loop
      vertex 111.252 16.295 -5.334
      vertex 111.252 17.295 -3.834
      vertex 111.252 17.495 -5.334
    endloop
  endfacet
  facet normal -1 -0 0
    outer loop
      vertex 111.252 17.295 -3.834
      vertex 111.252 16.295 -5.334
      vertex 111.252 16.295 -3.834
    endloop
  endfacet
  facet normal 1 0 0
    outer loop
      vertex 107.951 17.495 -3.834
      vertex 107.951 17.295 -3.834
      vertex 107.951 17.495 -5.334
    endloop
  endfacet
  facet normal 1 0 0
    outer loop
      vertex 107.951 16.295 -5.334
      vertex 107.951 17.295 -3.834
      vertex 107.951 16.295 -3.834
    endloop
  endfacet
  facet normal 1 0 0
    outer loop
      vertex 107.951 17.295 -3.834
      vertex 107.951 16.295 -5.334
      vertex 107.951 17.495 -5.334
    endloop
  endfacet
  facet normal 0 -1 0
    outer loop
      vertex 107.951 17.495 -5.334
      vertex 111.252 17.495 -3.834
      vertex 107.951 17.495 -3.834
    endloop
  endfacet
  facet normal 0 -1 -0
    outer loop
      vertex 111.252 17.495 -3.834
      vertex 107.951 17.495 -5.334
      vertex 111.252 17.495 -5.334
    endloop
  endfacet
  facet normal 0 0 1
    outer loop
      vertex 106.227 7.225 -3.834
      vertex 105.227 7.225 -3.834
      vertex 106.227 3.995 -3.834
    endloop
  endfacet
  facet normal 0 0 1
    outer loop
      vertex 113.977 17.295 -3.834
      vertex 113.801 10.4 -3.834
      vertex 113.977 2.995 -3.834
    endloop
  endfacet
  facet normal 0 0 1
    outer loop
      vertex 113.977 17.295 -3.834
      vertex 112.977 16.295 -3.834
      vertex 113.801 10.4 -3.834
    endloop
  endfacet
  facet normal -0 0 1
    outer loop
      vertex 111.252 17.295 -3.834
      vertex 112.977 16.295 -3.834
      vertex 113.977 17.295 -3.834
    endloop
  endfacet
  facet normal 0 0 1
    outer loop
      vertex 112.977 16.295 -3.834
      vertex 111.252 17.295 -3.834
      vertex 111.252 16.295 -3.834
    endloop
  endfacet
  facet normal -0 0 1
    outer loop
      vertex 113.801 7.225 -3.834
      vertex 113.977 2.995 -3.834
      vertex 113.801 10.4 -3.834
    endloop
  endfacet
  facet normal 0 0 1
    outer loop
      vertex 112.977 3.995 -3.834
      vertex 113.801 7.225 -3.834
      vertex 112.977 7.225 -3.834
    endloop
  endfacet
  facet normal 0 0 1
    outer loop
      vertex 113.801 7.225 -3.834
      vertex 112.977 3.995 -3.834
      vertex 113.977 2.995 -3.834
    endloop
  endfacet
  facet normal -0 0 1
    outer loop
      vertex 106.227 3.995 -3.834
      vertex 113.977 2.995 -3.834
      vertex 112.977 3.995 -3.834
    endloop
  endfacet
  facet normal 0 0 1
    outer loop
      vertex 106.227 3.995 -3.834
      vertex 105.227 2.995 -3.834
      vertex 113.977 2.995 -3.834
    endloop
  endfacet
  facet normal 0 0 1
    outer loop
      vertex 105.227 2.995 -3.834
      vertex 106.227 3.995 -3.834
      vertex 105.227 7.225 -3.834
    endloop
  endfacet
  facet normal 0 0 1
    outer loop
      vertex 113.801 10.4 -3.834
      vertex 112.977 16.295 -3.834
      vertex 112.977 10.4 -3.834
    endloop
  endfacet
  facet normal 0 0 1
    outer loop
      vertex 107.951 17.295 -3.834
      vertex 106.227 16.295 -3.834
      vertex 107.951 16.295 -3.834
    endloop
  endfacet
  facet normal -0 0 1
    outer loop
      vertex 105.227 17.295 -3.834
      vertex 106.227 16.295 -3.834
      vertex 107.951 17.295 -3.834
    endloop
  endfacet
  facet normal 0 0 1
    outer loop
      vertex 105.227 11.825 -3.834
      vertex 106.227 16.295 -3.834
      vertex 105.227 17.295 -3.834
    endloop
  endfacet
  facet normal 0 0 1
    outer loop
      vertex 106.227 16.295 -3.834
      vertex 105.227 11.825 -3.834
      vertex 106.227 11.825 -3.834
    endloop
  endfacet
  facet normal -1 0 0
    outer loop
      vertex 13.0265 11.825 -5.334
      vertex 13.0265 16.295 -3.834
      vertex 13.0265 16.295 -5.334
    endloop
  endfacet
  facet normal -1 -0 0
    outer loop
      vertex 13.0265 16.295 -3.834
      vertex 13.0265 11.825 -5.334
      vertex 13.0265 11.825 -3.834
    endloop
  endfacet
  facet normal -1 0 0
    outer loop
      vertex 13.0265 3.995 -5.334
      vertex 13.0265 7.225 -3.834
      vertex 13.0265 7.225 -5.334
    endloop
  endfacet
  facet normal -1 -0 0
    outer loop
      vertex 13.0265 7.225 -3.834
      vertex 13.0265 3.995 -5.334
      vertex 13.0265 3.995 -3.834
    endloop
  endfacet
  facet normal 1 -0 0
    outer loop
      vertex 6.2765 3.995 -3.834
      vertex 6.2765 7.225 -5.334
      vertex 6.2765 7.225 -3.834
    endloop
  endfacet
  facet normal 1 0 0
    outer loop
      vertex 6.2765 7.225 -5.334
      vertex 6.2765 3.995 -3.834
      vertex 6.2765 3.995 -5.334
    endloop
  endfacet
  facet normal 1 -0 0
    outer loop
      vertex 6.2765 10.4 -3.834
      vertex 6.2765 16.295 -5.334
      vertex 6.2765 16.295 -3.834
    endloop
  endfacet
  facet normal 1 0 0
    outer loop
      vertex 6.2765 16.295 -5.334
      vertex 6.2765 10.4 -3.834
      vertex 6.2765 10.4 -5.334
    endloop
  endfacet
  facet normal 0 -1 0
    outer loop
      vertex 11.3015 16.295 -5.334
      vertex 13.0265 16.295 -3.834
      vertex 11.3015 16.295 -3.834
    endloop
  endfacet
  facet normal 0 -1 -0
    outer loop
      vertex 13.0265 16.295 -3.834
      vertex 11.3015 16.295 -5.334
      vertex 13.0265 16.295 -5.334
    endloop
  endfacet
  facet normal 0 -1 0
    outer loop
      vertex 6.2765 16.295 -5.334
      vertex 8.0015 16.295 -3.834
      vertex 6.2765 16.295 -3.834
    endloop
  endfacet
  facet normal 0 -1 -0
    outer loop
      vertex 8.0015 16.295 -3.834
      vertex 6.2765 16.295 -5.334
      vertex 8.0015 16.295 -5.334
    endloop
  endfacet
  facet normal 0 1 -0
    outer loop
      vertex 13.0265 3.995 -5.334
      vertex 6.2765 3.995 -3.834
      vertex 13.0265 3.995 -3.834
    endloop
  endfacet
  facet normal 0 1 0
    outer loop
      vertex 6.2765 3.995 -3.834
      vertex 13.0265 3.995 -5.334
      vertex 6.2765 3.995 -5.334
    endloop
  endfacet
  facet normal 1 -0 0
    outer loop
      vertex 5.4515 7.225 -3.834
      vertex 5.4515 10.4 -5.334
      vertex 5.4515 10.4 -3.834
    endloop
  endfacet
  facet normal 1 0 0
    outer loop
      vertex 5.4515 10.4 -5.334
      vertex 5.4515 7.225 -3.834
      vertex 5.4515 7.225 -5.334
    endloop
  endfacet
  facet normal 0 -1 0
    outer loop
      vertex 5.4515 10.4 -5.334
      vertex 6.2765 10.4 -3.834
      vertex 5.4515 10.4 -3.834
    endloop
  endfacet
  facet normal 0 -1 -0
    outer loop
      vertex 6.2765 10.4 -3.834
      vertex 5.4515 10.4 -5.334
      vertex 6.2765 10.4 -5.334
    endloop
  endfacet
  facet normal 0 1 -0
    outer loop
      vertex 6.2765 7.225 -5.334
      vertex 5.4515 7.225 -3.834
      vertex 6.2765 7.225 -3.834
    endloop
  endfacet
  facet normal 0 1 0
    outer loop
      vertex 5.4515 7.225 -3.834
      vertex 6.2765 7.225 -5.334
      vertex 5.4515 7.225 -5.334
    endloop
  endfacet
  facet normal -1 0 0
    outer loop
      vertex 11.3015 17.495 -5.334
      vertex 11.3015 17.295 -3.834
      vertex 11.3015 17.495 -3.834
    endloop
  endfacet
  facet normal -1 0 0
    outer loop
      vertex 11.3015 16.295 -5.334
      vertex 11.3015 17.295 -3.834
      vertex 11.3015 17.495 -5.334
    endloop
  endfacet
  facet normal -1 -0 0
    outer loop
      vertex 11.3015 17.295 -3.834
      vertex 11.3015 16.295 -5.334
      vertex 11.3015 16.295 -3.834
    endloop
  endfacet
  facet normal 1 0 0
    outer loop
      vertex 8.0015 17.495 -3.834
      vertex 8.0015 17.295 -3.834
      vertex 8.0015 17.495 -5.334
    endloop
  endfacet
  facet normal 1 0 0
    outer loop
      vertex 8.0015 16.295 -5.334
      vertex 8.0015 17.295 -3.834
      vertex 8.0015 16.295 -3.834
    endloop
  endfacet
  facet normal 1 0 0
    outer loop
      vertex 8.0015 17.295 -3.834
      vertex 8.0015 16.295 -5.334
      vertex 8.0015 17.495 -5.334
    endloop
  endfacet
  facet normal 0 -1 0
    outer loop
      vertex 8.0015 17.495 -5.334
      vertex 11.3015 17.495 -3.834
      vertex 8.0015 17.495 -3.834
    endloop
  endfacet
  facet normal 0 -1 -0
    outer loop
      vertex 11.3015 17.495 -3.834
      vertex 8.0015 17.495 -5.334
      vertex 11.3015 17.495 -5.334
    endloop
  endfacet
  facet normal 0 0 1
    outer loop
      vertex 14.0265 17.295 -3.834
      vertex 13.0265 16.295 -3.834
      vertex 14.0265 11.825 -3.834
    endloop
  endfacet
  facet normal -0 0 1
    outer loop
      vertex 11.3015 17.295 -3.834
      vertex 13.0265 16.295 -3.834
      vertex 14.0265 17.295 -3.834
    endloop
  endfacet
  facet normal 0 0 1
    outer loop
      vertex 13.0265 16.295 -3.834
      vertex 11.3015 17.295 -3.834
      vertex 11.3015 16.295 -3.834
    endloop
  endfacet
  facet normal 0 0 1
    outer loop
      vertex 14.0265 11.825 -3.834
      vertex 13.0265 16.295 -3.834
      vertex 13.0265 11.825 -3.834
    endloop
  endfacet
  facet normal 0 0 1
    outer loop
      vertex 8.0015 17.295 -3.834
      vertex 6.2765 16.295 -3.834
      vertex 8.0015 16.295 -3.834
    endloop
  endfacet
  facet normal 0 0 1
    outer loop
      vertex 6.2765 16.295 -3.834
      vertex 5.4515 10.4 -3.834
      vertex 6.2765 10.4 -3.834
    endloop
  endfacet
  facet normal 0 0 1
    outer loop
      vertex 5.2765 2.995 -3.834
      vertex 5.4515 10.4 -3.834
      vertex 5.2765 17.295 -3.834
    endloop
  endfacet
  facet normal 0 0 1
    outer loop
      vertex 6.2765 16.295 -3.834
      vertex 5.2765 17.295 -3.834
      vertex 5.4515 10.4 -3.834
    endloop
  endfacet
  facet normal -0 0 1
    outer loop
      vertex 5.2765 17.295 -3.834
      vertex 6.2765 16.295 -3.834
      vertex 8.0015 17.295 -3.834
    endloop
  endfacet
  facet normal 0 0 1
    outer loop
      vertex 6.2765 7.225 -3.834
      vertex 5.4515 7.225 -3.834
      vertex 6.2765 3.995 -3.834
    endloop
  endfacet
  facet normal 0 0 1
    outer loop
      vertex 13.0265 3.995 -3.834
      vertex 14.0265 7.225 -3.834
      vertex 13.0265 7.225 -3.834
    endloop
  endfacet
  facet normal 0 0 1
    outer loop
      vertex 14.0265 7.225 -3.834
      vertex 13.0265 3.995 -3.834
      vertex 14.0265 2.995 -3.834
    endloop
  endfacet
  facet normal -0 0 1
    outer loop
      vertex 6.2765 3.995 -3.834
      vertex 14.0265 2.995 -3.834
      vertex 13.0265 3.995 -3.834
    endloop
  endfacet
  facet normal 0 0 1
    outer loop
      vertex 6.2765 3.995 -3.834
      vertex 5.2765 2.995 -3.834
      vertex 14.0265 2.995 -3.834
    endloop
  endfacet
  facet normal 0 0 1
    outer loop
      vertex 5.4515 7.225 -3.834
      vertex 5.2765 2.995 -3.834
      vertex 6.2765 3.995 -3.834
    endloop
  endfacet
  facet normal 0 0 1
    outer loop
      vertex 5.4515 10.4 -3.834
      vertex 5.2765 2.995 -3.834
      vertex 5.4515 7.225 -3.834
    endloop
  endfacet
  facet normal 0 -1 0
    outer loop
      vertex 13.0265 11.825 -3.834
      vertex 13.0265 11.825 -5.334
      vertex 14.0265 11.825 -3.834
    endloop
  endfacet
  facet normal 0 -1 0
    outer loop
      vertex 52.6265 11.825 -5.334
      vertex 52.1265 11.825 -3.834
      vertex 14.0265 11.825 -3.834
    endloop
  endfacet
  facet normal 0 -1 0
    outer loop
      vertex 52.6265 11.825 -5.334
      vertex 14.0265 11.825 -3.834
      vertex 13.0265 11.825 -5.334
    endloop
  endfacet
  facet normal 0 -1 0
    outer loop
      vertex 52.1265 11.825 -3.834
      vertex 52.6265 11.825 -5.334
      vertex 52.6265 11.825 -3.834
    endloop
  endfacet
  facet normal 0 -1 0
    outer loop
      vertex 66.6265 11.825 -5.334
      vertex 67.1265 11.825 -3.834
      vertex 66.6265 11.825 -3.834
    endloop
  endfacet
  facet normal 0 -1 -0
    outer loop
      vertex 67.1265 11.825 -3.834
      vertex 66.6265 11.825 -5.334
      vertex 105.227 11.825 -3.834
    endloop
  endfacet
  facet normal 0 -1 0
    outer loop
      vertex 106.227 11.825 -5.334
      vertex 105.227 11.825 -3.834
      vertex 66.6265 11.825 -5.334
    endloop
  endfacet
  facet normal 0 -1 0
    outer loop
      vertex 105.227 11.825 -3.834
      vertex 106.227 11.825 -5.334
      vertex 106.227 11.825 -3.834
    endloop
  endfacet
  facet normal 0 1 -0
    outer loop
      vertex 52.6265 7.225 -5.334
      vertex 52.1265 7.225 -3.834
      vertex 52.6265 7.225 -3.834
    endloop
  endfacet
  facet normal 0 1 0
    outer loop
      vertex 52.1265 7.225 -3.834
      vertex 52.6265 7.225 -5.334
      vertex 14.0265 7.225 -3.834
    endloop
  endfacet
  facet normal 0 1 0
    outer loop
      vertex 13.0265 7.225 -5.334
      vertex 14.0265 7.225 -3.834
      vertex 52.6265 7.225 -5.334
    endloop
  endfacet
  facet normal 0 1 0
    outer loop
      vertex 14.0265 7.225 -3.834
      vertex 13.0265 7.225 -5.334
      vertex 13.0265 7.225 -3.834
    endloop
  endfacet
  facet normal 0 1 0
    outer loop
      vertex 106.227 7.225 -3.834
      vertex 106.227 7.225 -5.334
      vertex 105.227 7.225 -3.834
    endloop
  endfacet
  facet normal 0 1 0
    outer loop
      vertex 66.6265 7.225 -5.334
      vertex 67.1265 7.225 -3.834
      vertex 105.227 7.225 -3.834
    endloop
  endfacet
  facet normal 0 1 0
    outer loop
      vertex 66.6265 7.225 -5.334
      vertex 105.227 7.225 -3.834
      vertex 106.227 7.225 -5.334
    endloop
  endfacet
  facet normal 0 1 0
    outer loop
      vertex 67.1265 7.225 -3.834
      vertex 66.6265 7.225 -5.334
      vertex 66.6265 7.225 -3.834
    endloop
  endfacet
  facet normal -0.939699 -0.342002 0
    outer loop
      vertex 138.788 31.2924 -5.334
      vertex 134 44.4481 -3.834
      vertex 134 44.4481 -5.334
    endloop
  endfacet
  facet normal -0.939699 -0.342002 0
    outer loop
      vertex 134 44.4481 -3.834
      vertex 138.788 31.2924 -5.334
      vertex 138.788 31.2924 -3.834
    endloop
  endfacet
  facet normal 0.939699 0.342002 0
    outer loop
      vertex 125.632 26.5041 -3.834
      vertex 120.844 39.6598 -5.334
      vertex 120.844 39.6598 -3.834
    endloop
  endfacet
  facet normal 0.939699 0.342002 0
    outer loop
      vertex 120.844 39.6598 -5.334
      vertex 125.632 26.5041 -3.834
      vertex 125.632 26.5041 -5.334
    endloop
  endfacet
  facet normal 0.342014 -0.939695 0
    outer loop
      vertex 120.844 39.6598 -5.334
      vertex 134 44.4481 -3.834
      vertex 120.844 39.6598 -3.834
    endloop
  endfacet
  facet normal 0.342014 -0.939695 0
    outer loop
      vertex 134 44.4481 -3.834
      vertex 120.844 39.6598 -5.334
      vertex 134 44.4481 -5.334
    endloop
  endfacet
  facet normal -0.342014 0.939695 0
    outer loop
      vertex 138.788 31.2924 -5.334
      vertex 125.632 26.5041 -3.834
      vertex 138.788 31.2924 -3.834
    endloop
  endfacet
  facet normal -0.342014 0.939695 0
    outer loop
      vertex 125.632 26.5041 -3.834
      vertex 138.788 31.2924 -5.334
      vertex 125.632 26.5041 -5.334
    endloop
  endfacet
  facet normal -1 0 0
    outer loop
      vertex 28.4312 30.875 -5.334
      vertex 28.4312 35.575 -3.834
      vertex 28.4312 35.575 -5.334
    endloop
  endfacet
  facet normal -1 -0 0
    outer loop
      vertex 28.4312 35.575 -3.834
      vertex 28.4312 30.875 -5.334
      vertex 28.4312 30.875 -3.834
    endloop
  endfacet
  facet normal -1 0 0
    outer loop
      vertex 28.4312 21.575 -5.334
      vertex 28.4312 26.275 -3.834
      vertex 28.4312 26.275 -5.334
    endloop
  endfacet
  facet normal -1 -0 0
    outer loop
      vertex 28.4312 26.275 -3.834
      vertex 28.4312 21.575 -5.334
      vertex 28.4312 21.575 -3.834
    endloop
  endfacet
  facet normal 1 -0 0
    outer loop
      vertex 14.4312 30.875 -3.834
      vertex 14.4312 35.575 -5.334
      vertex 14.4312 35.575 -3.834
    endloop
  endfacet
  facet normal 1 0 0
    outer loop
      vertex 14.4312 35.575 -5.334
      vertex 14.4312 30.875 -3.834
      vertex 14.4312 30.875 -5.334
    endloop
  endfacet
  facet normal 1 -0 0
    outer loop
      vertex 14.4312 21.575 -3.834
      vertex 14.4312 26.275 -5.334
      vertex 14.4312 26.275 -3.834
    endloop
  endfacet
  facet normal 1 0 0
    outer loop
      vertex 14.4312 26.275 -5.334
      vertex 14.4312 21.575 -3.834
      vertex 14.4312 21.575 -5.334
    endloop
  endfacet
  facet normal 0 -1 0
    outer loop
      vertex 14.4312 35.575 -5.334
      vertex 28.4312 35.575 -3.834
      vertex 14.4312 35.575 -3.834
    endloop
  endfacet
  facet normal 0 -1 -0
    outer loop
      vertex 28.4312 35.575 -3.834
      vertex 14.4312 35.575 -5.334
      vertex 28.4312 35.575 -5.334
    endloop
  endfacet
  facet normal 0 1 -0
    outer loop
      vertex 28.4312 21.575 -5.334
      vertex 14.4312 21.575 -3.834
      vertex 28.4312 21.575 -3.834
    endloop
  endfacet
  facet normal 0 1 0
    outer loop
      vertex 14.4312 21.575 -3.834
      vertex 28.4312 21.575 -5.334
      vertex 14.4312 21.575 -5.334
    endloop
  endfacet
  facet normal -1 0 0
    outer loop
      vertex 36.7812 29.45 -5.334
      vertex 36.7812 35.345 -3.834
      vertex 36.7812 35.345 -5.334
    endloop
  endfacet
  facet normal -1 -0 0
    outer loop
      vertex 36.7812 35.345 -3.834
      vertex 36.7812 29.45 -5.334
      vertex 36.7812 29.45 -3.834
    endloop
  endfacet
  facet normal -1 0 0
    outer loop
      vertex 36.7812 23.045 -5.334
      vertex 36.7812 26.275 -3.834
      vertex 36.7812 26.275 -5.334
    endloop
  endfacet
  facet normal -1 -0 0
    outer loop
      vertex 36.7812 26.275 -3.834
      vertex 36.7812 23.045 -5.334
      vertex 36.7812 23.045 -3.834
    endloop
  endfacet
  facet normal 1 -0 0
    outer loop
      vertex 30.0312 23.045 -3.834
      vertex 30.0312 26.275 -5.334
      vertex 30.0312 26.275 -3.834
    endloop
  endfacet
  facet normal 1 0 0
    outer loop
      vertex 30.0312 26.275 -5.334
      vertex 30.0312 23.045 -3.834
      vertex 30.0312 23.045 -5.334
    endloop
  endfacet
  facet normal 1 -0 0
    outer loop
      vertex 30.0312 30.875 -3.834
      vertex 30.0312 35.345 -5.334
      vertex 30.0312 35.345 -3.834
    endloop
  endfacet
  facet normal 1 0 0
    outer loop
      vertex 30.0312 35.345 -5.334
      vertex 30.0312 30.875 -3.834
      vertex 30.0312 30.875 -5.334
    endloop
  endfacet
  facet normal 0 -1 0
    outer loop
      vertex 35.0563 35.345 -5.334
      vertex 36.7812 35.345 -3.834
      vertex 35.0563 35.345 -3.834
    endloop
  endfacet
  facet normal 0 -1 -0
    outer loop
      vertex 36.7812 35.345 -3.834
      vertex 35.0563 35.345 -5.334
      vertex 36.7812 35.345 -5.334
    endloop
  endfacet
  facet normal 0 -1 0
    outer loop
      vertex 30.0312 35.345 -5.334
      vertex 31.7562 35.345 -3.834
      vertex 30.0312 35.345 -3.834
    endloop
  endfacet
  facet normal 0 -1 -0
    outer loop
      vertex 31.7562 35.345 -3.834
      vertex 30.0312 35.345 -5.334
      vertex 31.7562 35.345 -5.334
    endloop
  endfacet
  facet normal 0 1 -0
    outer loop
      vertex 36.7812 23.045 -5.334
      vertex 30.0312 23.045 -3.834
      vertex 36.7812 23.045 -3.834
    endloop
  endfacet
  facet normal 0 1 0
    outer loop
      vertex 30.0312 23.045 -3.834
      vertex 36.7812 23.045 -5.334
      vertex 30.0312 23.045 -5.334
    endloop
  endfacet
  facet normal -1 0 0
    outer loop
      vertex 37.6063 26.275 -5.334
      vertex 37.6063 29.45 -3.834
      vertex 37.6063 29.45 -5.334
    endloop
  endfacet
  facet normal -1 -0 0
    outer loop
      vertex 37.6063 29.45 -3.834
      vertex 37.6063 26.275 -5.334
      vertex 37.6063 26.275 -3.834
    endloop
  endfacet
  facet normal 0 -1 0
    outer loop
      vertex 36.7812 29.45 -5.334
      vertex 37.6063 29.45 -3.834
      vertex 36.7812 29.45 -3.834
    endloop
  endfacet
  facet normal 0 -1 -0
    outer loop
      vertex 37.6063 29.45 -3.834
      vertex 36.7812 29.45 -5.334
      vertex 37.6063 29.45 -5.334
    endloop
  endfacet
  facet normal 0 1 -0
    outer loop
      vertex 37.6063 26.275 -5.334
      vertex 36.7812 26.275 -3.834
      vertex 37.6063 26.275 -3.834
    endloop
  endfacet
  facet normal 0 1 0
    outer loop
      vertex 36.7812 26.275 -3.834
      vertex 37.6063 26.275 -5.334
      vertex 36.7812 26.275 -5.334
    endloop
  endfacet
  facet normal -1 0 0
    outer loop
      vertex 35.0563 36.545 -5.334
      vertex 35.0563 36.345 -3.834
      vertex 35.0563 36.545 -3.834
    endloop
  endfacet
  facet normal -1 0 0
    outer loop
      vertex 35.0563 35.345 -5.334
      vertex 35.0563 36.345 -3.834
      vertex 35.0563 36.545 -5.334
    endloop
  endfacet
  facet normal -1 -0 0
    outer loop
      vertex 35.0563 36.345 -3.834
      vertex 35.0563 35.345 -5.334
      vertex 35.0563 35.345 -3.834
    endloop
  endfacet
  facet normal 1 0 0
    outer loop
      vertex 31.7562 36.545 -3.834
      vertex 31.7562 36.345 -3.834
      vertex 31.7562 36.545 -5.334
    endloop
  endfacet
  facet normal 1 0 0
    outer loop
      vertex 31.7562 35.345 -5.334
      vertex 31.7562 36.345 -3.834
      vertex 31.7562 35.345 -3.834
    endloop
  endfacet
  facet normal 1 0 0
    outer loop
      vertex 31.7562 36.345 -3.834
      vertex 31.7562 35.345 -5.334
      vertex 31.7562 36.545 -5.334
    endloop
  endfacet
  facet normal 0 -1 0
    outer loop
      vertex 31.7562 36.545 -5.334
      vertex 35.0563 36.545 -3.834
      vertex 31.7562 36.545 -3.834
    endloop
  endfacet
  facet normal 0 -1 -0
    outer loop
      vertex 35.0563 36.545 -3.834
      vertex 31.7562 36.545 -5.334
      vertex 35.0563 36.545 -5.334
    endloop
  endfacet
  facet normal 0 0 1
    outer loop
      vertex 30.0312 26.275 -3.834
      vertex 29.0312 26.275 -3.834
      vertex 30.0312 23.045 -3.834
    endloop
  endfacet
  facet normal 0 0 1
    outer loop
      vertex 37.7812 36.345 -3.834
      vertex 37.6063 29.45 -3.834
      vertex 37.7812 22.045 -3.834
    endloop
  endfacet
  facet normal 0 0 1
    outer loop
      vertex 37.7812 36.345 -3.834
      vertex 36.7812 35.345 -3.834
      vertex 37.6063 29.45 -3.834
    endloop
  endfacet
  facet normal -0 0 1
    outer loop
      vertex 35.0563 36.345 -3.834
      vertex 36.7812 35.345 -3.834
      vertex 37.7812 36.345 -3.834
    endloop
  endfacet
  facet normal 0 0 1
    outer loop
      vertex 36.7812 35.345 -3.834
      vertex 35.0563 36.345 -3.834
      vertex 35.0563 35.345 -3.834
    endloop
  endfacet
  facet normal -0 0 1
    outer loop
      vertex 37.6063 26.275 -3.834
      vertex 37.7812 22.045 -3.834
      vertex 37.6063 29.45 -3.834
    endloop
  endfacet
  facet normal 0 0 1
    outer loop
      vertex 36.7812 23.045 -3.834
      vertex 37.6063 26.275 -3.834
      vertex 36.7812 26.275 -3.834
    endloop
  endfacet
  facet normal 0 0 1
    outer loop
      vertex 37.6063 26.275 -3.834
      vertex 36.7812 23.045 -3.834
      vertex 37.7812 22.045 -3.834
    endloop
  endfacet
  facet normal -0 0 1
    outer loop
      vertex 30.0312 23.045 -3.834
      vertex 37.7812 22.045 -3.834
      vertex 36.7812 23.045 -3.834
    endloop
  endfacet
  facet normal 0 0 1
    outer loop
      vertex 30.0312 23.045 -3.834
      vertex 29.0312 22.045 -3.834
      vertex 37.7812 22.045 -3.834
    endloop
  endfacet
  facet normal 0 0 1
    outer loop
      vertex 29.0312 22.045 -3.834
      vertex 30.0312 23.045 -3.834
      vertex 29.0312 26.275 -3.834
    endloop
  endfacet
  facet normal 0 0 1
    outer loop
      vertex 37.6063 29.45 -3.834
      vertex 36.7812 35.345 -3.834
      vertex 36.7812 29.45 -3.834
    endloop
  endfacet
  facet normal 0 0 1
    outer loop
      vertex 31.7562 36.345 -3.834
      vertex 30.0312 35.345 -3.834
      vertex 31.7562 35.345 -3.834
    endloop
  endfacet
  facet normal -0 0 1
    outer loop
      vertex 29.0312 36.345 -3.834
      vertex 30.0312 35.345 -3.834
      vertex 31.7562 36.345 -3.834
    endloop
  endfacet
  facet normal 0 0 1
    outer loop
      vertex 29.0312 30.875 -3.834
      vertex 30.0312 35.345 -3.834
      vertex 29.0312 36.345 -3.834
    endloop
  endfacet
  facet normal 0 0 1
    outer loop
      vertex 30.0312 35.345 -3.834
      vertex 29.0312 30.875 -3.834
      vertex 30.0312 30.875 -3.834
    endloop
  endfacet
  facet normal -1 0 0
    outer loop
      vertex 12.8313 30.875 -5.334
      vertex 12.8313 35.345 -3.834
      vertex 12.8313 35.345 -5.334
    endloop
  endfacet
  facet normal -1 -0 0
    outer loop
      vertex 12.8313 35.345 -3.834
      vertex 12.8313 30.875 -5.334
      vertex 12.8313 30.875 -3.834
    endloop
  endfacet
  facet normal -1 0 0
    outer loop
      vertex 12.8313 23.045 -5.334
      vertex 12.8313 26.275 -3.834
      vertex 12.8313 26.275 -5.334
    endloop
  endfacet
  facet normal -1 -0 0
    outer loop
      vertex 12.8313 26.275 -3.834
      vertex 12.8313 23.045 -5.334
      vertex 12.8313 23.045 -3.834
    endloop
  endfacet
  facet normal 1 -0 0
    outer loop
      vertex 6.08125 23.045 -3.834
      vertex 6.08125 26.275 -5.334
      vertex 6.08125 26.275 -3.834
    endloop
  endfacet
  facet normal 1 0 0
    outer loop
      vertex 6.08125 26.275 -5.334
      vertex 6.08125 23.045 -3.834
      vertex 6.08125 23.045 -5.334
    endloop
  endfacet
  facet normal 1 -0 0
    outer loop
      vertex 6.08125 29.45 -3.834
      vertex 6.08125 35.345 -5.334
      vertex 6.08125 35.345 -3.834
    endloop
  endfacet
  facet normal 1 0 0
    outer loop
      vertex 6.08125 35.345 -5.334
      vertex 6.08125 29.45 -3.834
      vertex 6.08125 29.45 -5.334
    endloop
  endfacet
  facet normal 0 -1 0
    outer loop
      vertex 11.1062 35.345 -5.334
      vertex 12.8313 35.345 -3.834
      vertex 11.1062 35.345 -3.834
    endloop
  endfacet
  facet normal 0 -1 -0
    outer loop
      vertex 12.8313 35.345 -3.834
      vertex 11.1062 35.345 -5.334
      vertex 12.8313 35.345 -5.334
    endloop
  endfacet
  facet normal 0 -1 0
    outer loop
      vertex 6.08125 35.345 -5.334
      vertex 7.80625 35.345 -3.834
      vertex 6.08125 35.345 -3.834
    endloop
  endfacet
  facet normal 0 -1 -0
    outer loop
      vertex 7.80625 35.345 -3.834
      vertex 6.08125 35.345 -5.334
      vertex 7.80625 35.345 -5.334
    endloop
  endfacet
  facet normal 0 1 -0
    outer loop
      vertex 12.8313 23.045 -5.334
      vertex 6.08125 23.045 -3.834
      vertex 12.8313 23.045 -3.834
    endloop
  endfacet
  facet normal 0 1 0
    outer loop
      vertex 6.08125 23.045 -3.834
      vertex 12.8313 23.045 -5.334
      vertex 6.08125 23.045 -5.334
    endloop
  endfacet
  facet normal 1 -0 0
    outer loop
      vertex 5.25625 26.275 -3.834
      vertex 5.25625 29.45 -5.334
      vertex 5.25625 29.45 -3.834
    endloop
  endfacet
  facet normal 1 0 0
    outer loop
      vertex 5.25625 29.45 -5.334
      vertex 5.25625 26.275 -3.834
      vertex 5.25625 26.275 -5.334
    endloop
  endfacet
  facet normal 0 -1 0
    outer loop
      vertex 5.25625 29.45 -5.334
      vertex 6.08125 29.45 -3.834
      vertex 5.25625 29.45 -3.834
    endloop
  endfacet
  facet normal 0 -1 -0
    outer loop
      vertex 6.08125 29.45 -3.834
      vertex 5.25625 29.45 -5.334
      vertex 6.08125 29.45 -5.334
    endloop
  endfacet
  facet normal 0 1 -0
    outer loop
      vertex 6.08125 26.275 -5.334
      vertex 5.25625 26.275 -3.834
      vertex 6.08125 26.275 -3.834
    endloop
  endfacet
  facet normal 0 1 0
    outer loop
      vertex 5.25625 26.275 -3.834
      vertex 6.08125 26.275 -5.334
      vertex 5.25625 26.275 -5.334
    endloop
  endfacet
  facet normal -1 0 0
    outer loop
      vertex 11.1062 36.545 -5.334
      vertex 11.1062 36.345 -3.834
      vertex 11.1062 36.545 -3.834
    endloop
  endfacet
  facet normal -1 0 0
    outer loop
      vertex 11.1062 35.345 -5.334
      vertex 11.1062 36.345 -3.834
      vertex 11.1062 36.545 -5.334
    endloop
  endfacet
  facet normal -1 -0 0
    outer loop
      vertex 11.1062 36.345 -3.834
      vertex 11.1062 35.345 -5.334
      vertex 11.1062 35.345 -3.834
    endloop
  endfacet
  facet normal 1 0 0
    outer loop
      vertex 7.80625 36.545 -3.834
      vertex 7.80625 36.345 -3.834
      vertex 7.80625 36.545 -5.334
    endloop
  endfacet
  facet normal 1 0 0
    outer loop
      vertex 7.80625 35.345 -5.334
      vertex 7.80625 36.345 -3.834
      vertex 7.80625 35.345 -3.834
    endloop
  endfacet
  facet normal 1 0 0
    outer loop
      vertex 7.80625 36.345 -3.834
      vertex 7.80625 35.345 -5.334
      vertex 7.80625 36.545 -5.334
    endloop
  endfacet
  facet normal 0 -1 0
    outer loop
      vertex 7.80625 36.545 -5.334
      vertex 11.1062 36.545 -3.834
      vertex 7.80625 36.545 -3.834
    endloop
  endfacet
  facet normal 0 -1 -0
    outer loop
      vertex 11.1062 36.545 -3.834
      vertex 7.80625 36.545 -5.334
      vertex 11.1062 36.545 -5.334
    endloop
  endfacet
  facet normal 0 0 1
    outer loop
      vertex 13.8313 36.345 -3.834
      vertex 12.8313 35.345 -3.834
      vertex 13.8313 30.875 -3.834
    endloop
  endfacet
  facet normal -0 0 1
    outer loop
      vertex 11.1062 36.345 -3.834
      vertex 12.8313 35.345 -3.834
      vertex 13.8313 36.345 -3.834
    endloop
  endfacet
  facet normal 0 0 1
    outer loop
      vertex 12.8313 35.345 -3.834
      vertex 11.1062 36.345 -3.834
      vertex 11.1062 35.345 -3.834
    endloop
  endfacet
  facet normal 0 0 1
    outer loop
      vertex 13.8313 30.875 -3.834
      vertex 12.8313 35.345 -3.834
      vertex 12.8313 30.875 -3.834
    endloop
  endfacet
  facet normal 0 0 1
    outer loop
      vertex 7.80625 36.345 -3.834
      vertex 6.08125 35.345 -3.834
      vertex 7.80625 35.345 -3.834
    endloop
  endfacet
  facet normal 0 0 1
    outer loop
      vertex 6.08125 35.345 -3.834
      vertex 5.25625 29.45 -3.834
      vertex 6.08125 29.45 -3.834
    endloop
  endfacet
  facet normal 0 0 1
    outer loop
      vertex 5.08125 22.045 -3.834
      vertex 5.25625 29.45 -3.834
      vertex 5.08125 36.345 -3.834
    endloop
  endfacet
  facet normal 0 0 1
    outer loop
      vertex 6.08125 35.345 -3.834
      vertex 5.08125 36.345 -3.834
      vertex 5.25625 29.45 -3.834
    endloop
  endfacet
  facet normal -0 0 1
    outer loop
      vertex 5.08125 36.345 -3.834
      vertex 6.08125 35.345 -3.834
      vertex 7.80625 36.345 -3.834
    endloop
  endfacet
  facet normal 0 0 1
    outer loop
      vertex 6.08125 26.275 -3.834
      vertex 5.25625 26.275 -3.834
      vertex 6.08125 23.045 -3.834
    endloop
  endfacet
  facet normal 0 0 1
    outer loop
      vertex 12.8313 23.045 -3.834
      vertex 13.8313 26.275 -3.834
      vertex 12.8313 26.275 -3.834
    endloop
  endfacet
  facet normal 0 0 1
    outer loop
      vertex 13.8313 26.275 -3.834
      vertex 12.8313 23.045 -3.834
      vertex 13.8313 22.045 -3.834
    endloop
  endfacet
  facet normal -0 0 1
    outer loop
      vertex 6.08125 23.045 -3.834
      vertex 13.8313 22.045 -3.834
      vertex 12.8313 23.045 -3.834
    endloop
  endfacet
  facet normal 0 0 1
    outer loop
      vertex 6.08125 23.045 -3.834
      vertex 5.08125 22.045 -3.834
      vertex 13.8313 22.045 -3.834
    endloop
  endfacet
  facet normal 0 0 1
    outer loop
      vertex 5.25625 26.275 -3.834
      vertex 5.08125 22.045 -3.834
      vertex 6.08125 23.045 -3.834
    endloop
  endfacet
  facet normal 0 0 1
    outer loop
      vertex 5.25625 29.45 -3.834
      vertex 5.08125 22.045 -3.834
      vertex 5.25625 26.275 -3.834
    endloop
  endfacet
  facet normal 0 -1 0
    outer loop
      vertex 12.8313 30.875 -3.834
      vertex 12.8313 30.875 -5.334
      vertex 13.8313 30.875 -3.834
    endloop
  endfacet
  facet normal 0 -1 0
    outer loop
      vertex 14.4312 30.875 -5.334
      vertex 13.9312 30.875 -3.834
      vertex 13.8313 30.875 -3.834
    endloop
  endfacet
  facet normal 0 -1 0
    outer loop
      vertex 14.4312 30.875 -5.334
      vertex 13.8313 30.875 -3.834
      vertex 12.8313 30.875 -5.334
    endloop
  endfacet
  facet normal 0 -1 0
    outer loop
      vertex 13.9312 30.875 -3.834
      vertex 14.4312 30.875 -5.334
      vertex 14.4312 30.875 -3.834
    endloop
  endfacet
  facet normal 0 -1 0
    outer loop
      vertex 28.4312 30.875 -5.334
      vertex 28.9312 30.875 -3.834
      vertex 28.4312 30.875 -3.834
    endloop
  endfacet
  facet normal 0 -1 -0
    outer loop
      vertex 28.9312 30.875 -3.834
      vertex 28.4312 30.875 -5.334
      vertex 29.0312 30.875 -3.834
    endloop
  endfacet
  facet normal 0 -1 0
    outer loop
      vertex 30.0312 30.875 -5.334
      vertex 29.0312 30.875 -3.834
      vertex 28.4312 30.875 -5.334
    endloop
  endfacet
  facet normal 0 -1 0
    outer loop
      vertex 29.0312 30.875 -3.834
      vertex 30.0312 30.875 -5.334
      vertex 30.0312 30.875 -3.834
    endloop
  endfacet
  facet normal 0 1 -0
    outer loop
      vertex 14.4312 26.275 -5.334
      vertex 13.9312 26.275 -3.834
      vertex 14.4312 26.275 -3.834
    endloop
  endfacet
  facet normal 0 1 0
    outer loop
      vertex 13.9312 26.275 -3.834
      vertex 14.4312 26.275 -5.334
      vertex 13.8313 26.275 -3.834
    endloop
  endfacet
  facet normal 0 1 0
    outer loop
      vertex 12.8313 26.275 -5.334
      vertex 13.8313 26.275 -3.834
      vertex 14.4312 26.275 -5.334
    endloop
  endfacet
  facet normal 0 1 0
    outer loop
      vertex 13.8313 26.275 -3.834
      vertex 12.8313 26.275 -5.334
      vertex 12.8313 26.275 -3.834
    endloop
  endfacet
  facet normal 0 1 0
    outer loop
      vertex 30.0312 26.275 -3.834
      vertex 30.0312 26.275 -5.334
      vertex 29.0312 26.275 -3.834
    endloop
  endfacet
  facet normal 0 1 0
    outer loop
      vertex 28.4312 26.275 -5.334
      vertex 28.9312 26.275 -3.834
      vertex 29.0312 26.275 -3.834
    endloop
  endfacet
  facet normal 0 1 0
    outer loop
      vertex 28.4312 26.275 -5.334
      vertex 29.0312 26.275 -3.834
      vertex 30.0312 26.275 -5.334
    endloop
  endfacet
  facet normal 0 1 0
    outer loop
      vertex 28.9312 26.275 -3.834
      vertex 28.4312 26.275 -5.334
      vertex 28.4312 26.275 -3.834
    endloop
  endfacet
  facet normal -1 0 0
    outer loop
      vertex 66.5312 21.575 -5.334
      vertex 66.5312 35.575 -3.834
      vertex 66.5312 35.575 -5.334
    endloop
  endfacet
  facet normal -1 -0 0
    outer loop
      vertex 66.5312 35.575 -3.834
      vertex 66.5312 21.575 -5.334
      vertex 66.5312 21.575 -3.834
    endloop
  endfacet
  facet normal 1 -0 0
    outer loop
      vertex 52.5312 21.575 -3.834
      vertex 52.5312 35.575 -5.334
      vertex 52.5312 35.575 -3.834
    endloop
  endfacet
  facet normal 1 0 0
    outer loop
      vertex 52.5312 35.575 -5.334
      vertex 52.5312 21.575 -3.834
      vertex 52.5312 21.575 -5.334
    endloop
  endfacet
  facet normal 0 -1 0
    outer loop
      vertex 52.5312 35.575 -5.334
      vertex 66.5312 35.575 -3.834
      vertex 52.5312 35.575 -3.834
    endloop
  endfacet
  facet normal 0 -1 -0
    outer loop
      vertex 66.5312 35.575 -3.834
      vertex 52.5312 35.575 -5.334
      vertex 66.5312 35.575 -5.334
    endloop
  endfacet
  facet normal 0 1 -0
    outer loop
      vertex 66.5312 21.575 -5.334
      vertex 52.5312 21.575 -3.834
      vertex 66.5312 21.575 -3.834
    endloop
  endfacet
  facet normal 0 1 0
    outer loop
      vertex 52.5312 21.575 -3.834
      vertex 66.5312 21.575 -5.334
      vertex 52.5312 21.575 -5.334
    endloop
  endfacet
  facet normal -1 0 0
    outer loop
      vertex 95.1062 21.575 -5.334
      vertex 95.1062 35.575 -3.834
      vertex 95.1062 35.575 -5.334
    endloop
  endfacet
  facet normal -1 -0 0
    outer loop
      vertex 95.1062 35.575 -3.834
      vertex 95.1062 21.575 -5.334
      vertex 95.1062 21.575 -3.834
    endloop
  endfacet
  facet normal 1 -0 0
    outer loop
      vertex 81.1062 21.575 -3.834
      vertex 81.1062 35.575 -5.334
      vertex 81.1062 35.575 -3.834
    endloop
  endfacet
  facet normal 1 0 0
    outer loop
      vertex 81.1062 35.575 -5.334
      vertex 81.1062 21.575 -3.834
      vertex 81.1062 21.575 -5.334
    endloop
  endfacet
  facet normal 0 -1 0
    outer loop
      vertex 81.1062 35.575 -5.334
      vertex 95.1062 35.575 -3.834
      vertex 81.1062 35.575 -3.834
    endloop
  endfacet
  facet normal 0 -1 -0
    outer loop
      vertex 95.1062 35.575 -3.834
      vertex 81.1062 35.575 -5.334
      vertex 95.1062 35.575 -5.334
    endloop
  endfacet
  facet normal 0 1 -0
    outer loop
      vertex 95.1062 21.575 -5.334
      vertex 81.1062 21.575 -3.834
      vertex 95.1062 21.575 -3.834
    endloop
  endfacet
  facet normal 0 1 0
    outer loop
      vertex 81.1062 21.575 -3.834
      vertex 95.1062 21.575 -5.334
      vertex 81.1062 21.575 -5.334
    endloop
  endfacet
  facet normal -1 0 0
    outer loop
      vertex 116.537 21.575 -5.334
      vertex 116.537 35.575 -3.834
      vertex 116.537 35.575 -5.334
    endloop
  endfacet
  facet normal -1 -0 0
    outer loop
      vertex 116.537 35.575 -3.834
      vertex 116.537 21.575 -5.334
      vertex 116.537 21.575 -3.834
    endloop
  endfacet
  facet normal 1 -0 0
    outer loop
      vertex 102.537 21.575 -3.834
      vertex 102.537 35.575 -5.334
      vertex 102.537 35.575 -3.834
    endloop
  endfacet
  facet normal 1 0 0
    outer loop
      vertex 102.537 35.575 -5.334
      vertex 102.537 21.575 -3.834
      vertex 102.537 21.575 -5.334
    endloop
  endfacet
  facet normal 0 -1 0
    outer loop
      vertex 102.537 35.575 -5.334
      vertex 116.537 35.575 -3.834
      vertex 102.537 35.575 -3.834
    endloop
  endfacet
  facet normal 0 -1 -0
    outer loop
      vertex 116.537 35.575 -3.834
      vertex 102.537 35.575 -5.334
      vertex 116.537 35.575 -5.334
    endloop
  endfacet
  facet normal 0 1 -0
    outer loop
      vertex 116.537 21.575 -5.334
      vertex 102.537 21.575 -3.834
      vertex 116.537 21.575 -3.834
    endloop
  endfacet
  facet normal 0 1 0
    outer loop
      vertex 102.537 21.575 -3.834
      vertex 116.537 21.575 -5.334
      vertex 102.537 21.575 -5.334
    endloop
  endfacet
  facet normal 0 0 1
    outer loop
      vertex 170.95 34.29 -4
      vertex 168.91 -1.27 -4
      vertex 170.95 -1.27 -4
    endloop
  endfacet
  facet normal 0 0 1
    outer loop
      vertex 168.91 -1.27 -4
      vertex 153.67 -1.27 -4
      vertex 168.91 -18.55 -4
    endloop
  endfacet
  facet normal 0 0 1
    outer loop
      vertex 170.95 34.29 -4
      vertex 153.67 -1.27 -4
      vertex 168.91 -1.27 -4
    endloop
  endfacet
  facet normal -0 0 1
    outer loop
      vertex 151.13 34.29 -4
      vertex 153.67 -1.27 -4
      vertex 170.95 34.29 -4
    endloop
  endfacet
  facet normal 0 0 1
    outer loop
      vertex 153.67 -1.27 -4
      vertex 151.13 34.29 -4
      vertex 151.13 -1.27 -4
    endloop
  endfacet
  facet normal 0 0 1
    outer loop
      vertex 168.91 -18.55 -4
      vertex 153.67 -1.27 -4
      vertex 153.67 -18.55 -4
    endloop
  endfacet
  facet normal 1 -0 0
    outer loop
      vertex 151.13 -1.27 -3.834
      vertex 151.13 34.29 -4
      vertex 151.13 34.29 -3.834
    endloop
  endfacet
  facet normal 1 0 0
    outer loop
      vertex 151.13 34.29 -4
      vertex 151.13 -1.27 -3.834
      vertex 151.13 -1.27 -4
    endloop
  endfacet
  facet normal 0 -1 0
    outer loop
      vertex 151.13 34.29 -4
      vertex 170.95 34.29 -3.834
      vertex 151.13 34.29 -3.834
    endloop
  endfacet
  facet normal 0 -1 -0
    outer loop
      vertex 170.95 34.29 -3.834
      vertex 151.13 34.29 -4
      vertex 170.95 34.29 -4
    endloop
  endfacet
  facet normal 0 1 -0
    outer loop
      vertex 153.67 -1.27 -4
      vertex 151.13 -1.27 -3.834
      vertex 153.67 -1.27 -3.834
    endloop
  endfacet
  facet normal 0 1 0
    outer loop
      vertex 151.13 -1.27 -3.834
      vertex 153.67 -1.27 -4
      vertex 151.13 -1.27 -4
    endloop
  endfacet
  facet normal 0 1 -0
    outer loop
      vertex 170.95 -1.27 -4
      vertex 168.91 -1.27 -3.834
      vertex 170.95 -1.27 -3.834
    endloop
  endfacet
  facet normal 0 1 0
    outer loop
      vertex 168.91 -1.27 -3.834
      vertex 170.95 -1.27 -4
      vertex 168.91 -1.27 -4
    endloop
  endfacet
  facet normal 1 -0 0
    outer loop
      vertex 153.67 -18.55 -3.834
      vertex 153.67 -1.27 -4
      vertex 153.67 -1.27 -3.834
    endloop
  endfacet
  facet normal 1 0 0
    outer loop
      vertex 153.67 -1.27 -4
      vertex 153.67 -18.55 -3.834
      vertex 153.67 -18.55 -4
    endloop
  endfacet
  facet normal -1 0 0
    outer loop
      vertex 168.91 -18.55 -4
      vertex 168.91 -1.27 -3.834
      vertex 168.91 -1.27 -4
    endloop
  endfacet
  facet normal -1 -0 0
    outer loop
      vertex 168.91 -1.27 -3.834
      vertex 168.91 -18.55 -4
      vertex 168.91 -18.55 -3.834
    endloop
  endfacet
  facet normal 1 0 0
    outer loop
      vertex 170.95 -1.27 -3.834
      vertex 170.95 -18.55 -3.834
      vertex 170.95 -1.27 -4
    endloop
  endfacet
  facet normal 1 0 0
    outer loop
      vertex 170.95 34.29 -4
      vertex 170.95 75.7 -3.834
      vertex 170.95 34.29 -3.834
    endloop
  endfacet
  facet normal 1 0 0
    outer loop
      vertex 170.95 75.7 -3.834
      vertex 170.95 34.29 -4
      vertex 170.95 75.7 -5.334
    endloop
  endfacet
  facet normal 1 0 0
    outer loop
      vertex 170.95 -18.55 -5.334
      vertex 170.95 34.29 -4
      vertex 170.95 -1.27 -4
    endloop
  endfacet
  facet normal 1 0 0
    outer loop
      vertex 170.95 -18.55 -5.334
      vertex 170.95 -1.27 -4
      vertex 170.95 -18.55 -3.834
    endloop
  endfacet
  facet normal 1 0 0
    outer loop
      vertex 170.95 34.29 -4
      vertex 170.95 -18.55 -5.334
      vertex 170.95 75.7 -5.334
    endloop
  endfacet
  facet normal 0 -1 0
    outer loop
      vertex -18.55 -18.55 -3.834
      vertex 153.67 -18.55 -4
      vertex 153.67 -18.55 -3.834
    endloop
  endfacet
  facet normal 0 -1 0
    outer loop
      vertex 170.95 -18.55 -5.334
      vertex 153.67 -18.55 -4
      vertex -18.55 -18.55 -5.334
    endloop
  endfacet
  facet normal 0 -1 0
    outer loop
      vertex -18.55 -18.55 -5.334
      vertex 153.67 -18.55 -4
      vertex -18.55 -18.55 -3.834
    endloop
  endfacet
  facet normal 0 -1 0
    outer loop
      vertex 168.91 -18.55 -4
      vertex 170.95 -18.55 -3.834
      vertex 168.91 -18.55 -3.834
    endloop
  endfacet
  facet normal 0 -1 0
    outer loop
      vertex 168.91 -18.55 -4
      vertex 170.95 -18.55 -5.334
      vertex 170.95 -18.55 -3.834
    endloop
  endfacet
  facet normal 0 -1 0
    outer loop
      vertex 153.67 -18.55 -4
      vertex 170.95 -18.55 -5.334
      vertex 168.91 -18.55 -4
    endloop
  endfacet
  facet normal -1 0 0
    outer loop
      vertex -18.55 -18.55 -5.334
      vertex -18.55 75.7 -3.834
      vertex -18.55 75.7 -5.334
    endloop
  endfacet
  facet normal -1 -0 0
    outer loop
      vertex -18.55 75.7 -3.834
      vertex -18.55 -18.55 -5.334
      vertex -18.55 -18.55 -3.834
    endloop
  endfacet
  facet normal 0 1 -0
    outer loop
      vertex 170.95 75.7 -5.334
      vertex -18.55 75.7 -3.834
      vertex 170.95 75.7 -3.834
    endloop
  endfacet
  facet normal 0 1 0
    outer loop
      vertex -18.55 75.7 -3.834
      vertex 170.95 75.7 -5.334
      vertex -18.55 75.7 -5.334
    endloop
  endfacet
endsolid OpenSCAD_Model
