solid OpenSCAD_Model
  facet normal -1 0 0
    outer loop
      vertex -2 0 3.66211e-07
      vertex -2 57.15 5
      vertex -2 57.15 3.66211e-07
    endloop
  endfacet
  facet normal -1 -0 0
    outer loop
      vertex -2 57.15 5
      vertex -2 0 3.66211e-07
      vertex -2 0 5
    endloop
  endfacet
  facet normal 0.433808 -0.901006 0
    outer loop
      vertex 133.35 -2 3.66211e-07
      vertex 134.914 -1.24698 5
      vertex 133.35 -2 5
    endloop
  endfacet
  facet normal 0.433808 -0.901006 0
    outer loop
      vertex 134.914 -1.24698 5
      vertex 133.35 -2 3.66211e-07
      vertex 134.914 -1.24698 3.66211e-07
    endloop
  endfacet
  facet normal -0.330281 -0.943883 0
    outer loop
      vertex -1.24698 -1.56366 3.66211e-07
      vertex 0 -2 5
      vertex -1.24698 -1.56366 5
    endloop
  endfacet
  facet normal -0.330281 -0.943883 -0
    outer loop
      vertex 0 -2 5
      vertex -1.24698 -1.56366 3.66211e-07
      vertex 0 -2 3.66211e-07
    endloop
  endfacet
  facet normal 0.943963 -0.330052 0
    outer loop
      vertex 134.914 -1.24698 5
      vertex 135.35 0 3.66211e-07
      vertex 135.35 0 5
    endloop
  endfacet
  facet normal 0.943963 -0.330052 0
    outer loop
      vertex 135.35 0 3.66211e-07
      vertex 134.914 -1.24698 5
      vertex 134.914 -1.24698 3.66211e-07
    endloop
  endfacet
  facet normal -0.433875 0.900973 0
    outer loop
      vertex 0 59.15 3.66211e-07
      vertex -1.56366 58.397 5
      vertex 0 59.15 5
    endloop
  endfacet
  facet normal -0.433875 0.900973 0
    outer loop
      vertex -1.56366 58.397 5
      vertex 0 59.15 3.66211e-07
      vertex -1.56366 58.397 3.66211e-07
    endloop
  endfacet
  facet normal 0.330249 0.943894 -0
    outer loop
      vertex 134.597 58.7137 3.66211e-07
      vertex 133.35 59.15 5
      vertex 134.597 58.7137 5
    endloop
  endfacet
  facet normal 0.330249 0.943894 0
    outer loop
      vertex 133.35 59.15 5
      vertex 134.597 58.7137 3.66211e-07
      vertex 133.35 59.15 3.66211e-07
    endloop
  endfacet
  facet normal 0 1 -0
    outer loop
      vertex 133.35 59.15 3.66211e-07
      vertex 0 59.15 5
      vertex 133.35 59.15 5
    endloop
  endfacet
  facet normal 0 1 0
    outer loop
      vertex 0 59.15 5
      vertex 133.35 59.15 3.66211e-07
      vertex 0 59.15 3.66211e-07
    endloop
  endfacet
  facet normal 0 -1 0
    outer loop
      vertex 0 -2 3.66211e-07
      vertex 96.52 -2 5
      vertex 0 -2 5
    endloop
  endfacet
  facet normal 0 -1 -0
    outer loop
      vertex 96.52 -2 5
      vertex 0 -2 3.66211e-07
      vertex 96.52 -2 3.66211e-07
    endloop
  endfacet
  facet normal 0 -1 0
    outer loop
      vertex 128.015 -2 3.66211e-07
      vertex 133.35 -2 5
      vertex 128.015 -2 5
    endloop
  endfacet
  facet normal 0 -1 -0
    outer loop
      vertex 133.35 -2 5
      vertex 128.015 -2 3.66211e-07
      vertex 133.35 -2 3.66211e-07
    endloop
  endfacet
  facet normal 0 -1 0
    outer loop
      vertex 118.015 -2 3.66211e-07
      vertex 120.015 -2 5
      vertex 118.015 -2 5
    endloop
  endfacet
  facet normal 0 -1 -0
    outer loop
      vertex 120.015 -2 5
      vertex 118.015 -2 3.66211e-07
      vertex 120.015 -2 3.66211e-07
    endloop
  endfacet
  facet normal 0 -1 0
    outer loop
      vertex 111.76 -2 3.66211e-07
      vertex 118.015 -2 5
      vertex 111.76 -2 5
    endloop
  endfacet
  facet normal 0 -1 -0
    outer loop
      vertex 118.015 -2 5
      vertex 111.76 -2 3.66211e-07
      vertex 118.015 -2 3.66211e-07
    endloop
  endfacet
  facet normal 0 -1 0
    outer loop
      vertex 125.615 -2 3.66211e-07
      vertex 128.015 -2 5
      vertex 125.615 -2 5
    endloop
  endfacet
  facet normal 0 -1 -0
    outer loop
      vertex 128.015 -2 5
      vertex 125.615 -2 3.66211e-07
      vertex 128.015 -2 3.66211e-07
    endloop
  endfacet
  facet normal 0.900977 0.433866 0
    outer loop
      vertex 135.35 57.15 5
      vertex 134.597 58.7137 3.66211e-07
      vertex 134.597 58.7137 5
    endloop
  endfacet
  facet normal 0.900977 0.433866 0
    outer loop
      vertex 134.597 58.7137 3.66211e-07
      vertex 135.35 57.15 5
      vertex 135.35 57.15 3.66211e-07
    endloop
  endfacet
  facet normal 1 -0 0
    outer loop
      vertex 135.35 0 5
      vertex 135.35 57.15 3.66211e-07
      vertex 135.35 57.15 5
    endloop
  endfacet
  facet normal 1 0 0
    outer loop
      vertex 135.35 57.15 3.66211e-07
      vertex 135.35 0 5
      vertex 135.35 0 3.66211e-07
    endloop
  endfacet
  facet normal -0.943884 0.330276 0
    outer loop
      vertex -2 57.15 3.66211e-07
      vertex -1.56366 58.397 5
      vertex -1.56366 58.397 3.66211e-07
    endloop
  endfacet
  facet normal -0.943884 0.330276 0
    outer loop
      vertex -1.56366 58.397 5
      vertex -2 57.15 3.66211e-07
      vertex -2 57.15 5
    endloop
  endfacet
  facet normal -0.900969 -0.433884 0
    outer loop
      vertex -1.24698 -1.56366 3.66211e-07
      vertex -2 0 5
      vertex -2 0 3.66211e-07
    endloop
  endfacet
  facet normal -0.900969 -0.433884 0
    outer loop
      vertex -2 0 5
      vertex -1.24698 -1.56366 3.66211e-07
      vertex -1.24698 -1.56366 5
    endloop
  endfacet
  facet normal 0 0 -1
    outer loop
      vertex 127.615 -1 5
      vertex 125.615 -1 5
      vertex 127.615 3.5 5
    endloop
  endfacet
  facet normal 0 0 -1
    outer loop
      vertex 127.615 3.5 5
      vertex 129.85 4 5
      vertex 129.35 3.5 5
    endloop
  endfacet
  facet normal -0 0 -1
    outer loop
      vertex 129.85 4 5
      vertex 127.615 3.5 5
      vertex 129.85 53.15 5
    endloop
  endfacet
  facet normal 0 0 -1
    outer loop
      vertex 115.515 3.5 5
      vertex 129.85 53.15 5
      vertex 127.615 3.5 5
    endloop
  endfacet
  facet normal 0 0 -1
    outer loop
      vertex 120.015 -1 5
      vertex 127.615 3.5 5
      vertex 125.615 -1 5
    endloop
  endfacet
  facet normal 0 0 -1
    outer loop
      vertex 120.015 -1 5
      vertex 125.615 -1 5
      vertex 120.015 -2 5
    endloop
  endfacet
  facet normal -0 0 -1
    outer loop
      vertex 127.615 3.5 5
      vertex 120.015 -1 5
      vertex 115.515 3.5 5
    endloop
  endfacet
  facet normal 0 0 -1
    outer loop
      vertex 115.515 3.5 5
      vertex 120.015 -1 5
      vertex 115.515 -1 5
    endloop
  endfacet
  facet normal 0 0 -1
    outer loop
      vertex 114.3 3.5 5
      vertex 129.85 53.15 5
      vertex 115.515 3.5 5
    endloop
  endfacet
  facet normal 0 0 -1
    outer loop
      vertex 95.76 53.65 5
      vertex 129.85 53.15 5
      vertex 114.3 3.5 5
    endloop
  endfacet
  facet normal 0 0 -1
    outer loop
      vertex 96.52 -1.26999 5
      vertex 114.3 3.5 5
      vertex 111.76 -1.26999 5
    endloop
  endfacet
  facet normal 0 0 -1
    outer loop
      vertex 96.52 -1.26999 5
      vertex 111.76 -1.26999 5
      vertex 96.52 -2 5
    endloop
  endfacet
  facet normal 0 0 -1
    outer loop
      vertex 93.98 -0.5 5
      vertex 114.3 3.5 5
      vertex 96.52 -1.26999 5
    endloop
  endfacet
  facet normal 0 0 -1
    outer loop
      vertex 129.85 53.15 5
      vertex 95.76 53.65 5
      vertex 129.35 53.65 5
    endloop
  endfacet
  facet normal 0 0 -1
    outer loop
      vertex 95.76 53.65 5
      vertex 95.26 57.66 5
      vertex 95.76 57.16 5
    endloop
  endfacet
  facet normal -0 0 -1
    outer loop
      vertex 114.3 3.5 5
      vertex 93.98 -0.5 5
      vertex 95.76 53.65 5
    endloop
  endfacet
  facet normal 0 0 -1
    outer loop
      vertex 93.98 -0.5 5
      vertex 96.52 -1.26999 5
      vertex 93.98 -1.26999 5
    endloop
  endfacet
  facet normal 0 0 -1
    outer loop
      vertex 0 57.66 5
      vertex 95.76 53.65 5
      vertex 93.98 -0.5 5
    endloop
  endfacet
  facet normal 0 0 -1
    outer loop
      vertex 0 57.66 5
      vertex 93.98 -0.5 5
      vertex 0 -0.5 5
    endloop
  endfacet
  facet normal 0 0 -1
    outer loop
      vertex 95.76 53.65 5
      vertex 0 57.66 5
      vertex 95.26 57.66 5
    endloop
  endfacet
  facet normal 0 0 -1
    outer loop
      vertex -0.5 0 5
      vertex 0 57.66 5
      vertex 0 -0.5 5
    endloop
  endfacet
  facet normal 0 0 -1
    outer loop
      vertex 0 57.66 5
      vertex -0.5 0 5
      vertex -0.5 57.16 5
    endloop
  endfacet
  facet normal 0 0 -1
    outer loop
      vertex 114.3 -1.26999 5
      vertex 111.76 -1.26999 5
      vertex 114.3 3.5 5
    endloop
  endfacet
  facet normal 0 0 -1
    outer loop
      vertex 135.35 0 5
      vertex 138.35 0 5
      vertex 137.969 -1.91342 5
    endloop
  endfacet
  facet normal 0 0 -1
    outer loop
      vertex 138.35 0 5
      vertex 135.35 0 5
      vertex 138.35 57.15 5
    endloop
  endfacet
  facet normal 0 0 -1
    outer loop
      vertex 134.914 -1.24698 5
      vertex 137.969 -1.91342 5
      vertex 136.886 -3.53554 5
    endloop
  endfacet
  facet normal 0 0 -1
    outer loop
      vertex 135.35 57.15 5
      vertex 138.35 57.15 5
      vertex 135.35 0 5
    endloop
  endfacet
  facet normal 0 0 -1
    outer loop
      vertex 138.35 57.15 5
      vertex 135.35 57.15 5
      vertex 137.969 59.0634 5
    endloop
  endfacet
  facet normal 0 0 -1
    outer loop
      vertex 134.914 -1.24698 5
      vertex 136.886 -3.53554 5
      vertex 135.263 -4.6194 5
    endloop
  endfacet
  facet normal 0 0 -1
    outer loop
      vertex 137.969 -1.91342 5
      vertex 134.914 -1.24698 5
      vertex 135.35 0 5
    endloop
  endfacet
  facet normal 0 0 -1
    outer loop
      vertex 133.35 -2 5
      vertex 135.263 -4.6194 5
      vertex 133.35 -5 5
    endloop
  endfacet
  facet normal 0 0 -1
    outer loop
      vertex 135.263 -4.6194 5
      vertex 133.35 -2 5
      vertex 134.914 -1.24698 5
    endloop
  endfacet
  facet normal 0 0 -1
    outer loop
      vertex 133.35 -5 5
      vertex 128.015 -2 5
      vertex 133.35 -2 5
    endloop
  endfacet
  facet normal 0 0 -1
    outer loop
      vertex 133.35 -5 5
      vertex 125.615 -2 5
      vertex 128.015 -2 5
    endloop
  endfacet
  facet normal 0 0 -1
    outer loop
      vertex 125.615 -2 5
      vertex 120.015 -2 5
      vertex 125.615 -1 5
    endloop
  endfacet
  facet normal 0 0 -1
    outer loop
      vertex 133.35 -5 5
      vertex 120.015 -2 5
      vertex 125.615 -2 5
    endloop
  endfacet
  facet normal 0 0 -1
    outer loop
      vertex 133.35 -5 5
      vertex 118.015 -2 5
      vertex 120.015 -2 5
    endloop
  endfacet
  facet normal 0 0 -1
    outer loop
      vertex 133.35 -5 5
      vertex 111.76 -2 5
      vertex 118.015 -2 5
    endloop
  endfacet
  facet normal 0 0 -1
    outer loop
      vertex 111.76 -2 5
      vertex 96.52 -2 5
      vertex 111.76 -1.26999 5
    endloop
  endfacet
  facet normal 0 0 -1
    outer loop
      vertex 133.35 -5 5
      vertex 96.52 -2 5
      vertex 111.76 -2 5
    endloop
  endfacet
  facet normal 0 0 -1
    outer loop
      vertex 0 -5 5
      vertex 96.52 -2 5
      vertex 133.35 -5 5
    endloop
  endfacet
  facet normal 0 0 -1
    outer loop
      vertex 0 -5 5
      vertex 0 -2 5
      vertex 96.52 -2 5
    endloop
  endfacet
  facet normal 0 0 -1
    outer loop
      vertex -1.91342 -4.6194 5
      vertex 0 -2 5
      vertex 0 -5 5
    endloop
  endfacet
  facet normal -0 0 -1
    outer loop
      vertex 0 -2 5
      vertex -1.91342 -4.6194 5
      vertex -1.24698 -1.56366 5
    endloop
  endfacet
  facet normal 0 0 -1
    outer loop
      vertex -3.53554 -3.53554 5
      vertex -1.24698 -1.56366 5
      vertex -1.91342 -4.6194 5
    endloop
  endfacet
  facet normal -0 0 -1
    outer loop
      vertex -1.24698 -1.56366 5
      vertex -4.6194 -1.91342 5
      vertex -2 0 5
    endloop
  endfacet
  facet normal 0 0 -1
    outer loop
      vertex -4.6194 -1.91342 5
      vertex -1.24698 -1.56366 5
      vertex -3.53554 -3.53554 5
    endloop
  endfacet
  facet normal 0 0 -1
    outer loop
      vertex 134.597 58.7137 5
      vertex 137.969 59.0634 5
      vertex 135.35 57.15 5
    endloop
  endfacet
  facet normal -0 0 -1
    outer loop
      vertex 137.969 59.0634 5
      vertex 134.597 58.7137 5
      vertex 136.886 60.6855 5
    endloop
  endfacet
  facet normal -0 0 -1
    outer loop
      vertex 136.886 60.6855 5
      vertex 134.597 58.7137 5
      vertex 135.263 61.7694 5
    endloop
  endfacet
  facet normal 0 0 -1
    outer loop
      vertex 133.35 59.15 5
      vertex 135.263 61.7694 5
      vertex 134.597 58.7137 5
    endloop
  endfacet
  facet normal 0 0 -1
    outer loop
      vertex 133.35 59.15 5
      vertex 133.35 62.15 5
      vertex 135.263 61.7694 5
    endloop
  endfacet
  facet normal 0 0 -1
    outer loop
      vertex 0 59.15 5
      vertex 133.35 62.15 5
      vertex 133.35 59.15 5
    endloop
  endfacet
  facet normal 0 0 -1
    outer loop
      vertex 0 59.15 5
      vertex 0 62.15 5
      vertex 133.35 62.15 5
    endloop
  endfacet
  facet normal 0 0 -1
    outer loop
      vertex -1.91342 61.7694 5
      vertex 0 59.15 5
      vertex -1.56366 58.397 5
    endloop
  endfacet
  facet normal 0 0 -1
    outer loop
      vertex 0 59.15 5
      vertex -1.91342 61.7694 5
      vertex 0 62.15 5
    endloop
  endfacet
  facet normal 0 0 -1
    outer loop
      vertex -4.6194 59.0634 5
      vertex -1.56366 58.397 5
      vertex -2 57.15 5
    endloop
  endfacet
  facet normal 0 0 -1
    outer loop
      vertex -2 0 5
      vertex -5 0 5
      vertex -2 57.15 5
    endloop
  endfacet
  facet normal 0 0 -1
    outer loop
      vertex -5 57.15 5
      vertex -2 57.15 5
      vertex -5 0 5
    endloop
  endfacet
  facet normal -0 0 -1
    outer loop
      vertex -2 0 5
      vertex -4.6194 -1.91342 5
      vertex -5 0 5
    endloop
  endfacet
  facet normal 0 -0 -1
    outer loop
      vertex -4.6194 59.0634 5
      vertex -2 57.15 5
      vertex -5 57.15 5
    endloop
  endfacet
  facet normal 0 0 -1
    outer loop
      vertex -1.56366 58.397 5
      vertex -3.53554 60.6855 5
      vertex -1.91342 61.7694 5
    endloop
  endfacet
  facet normal 0 0 -1
    outer loop
      vertex -1.56366 58.397 5
      vertex -4.6194 59.0634 5
      vertex -3.53554 60.6855 5
    endloop
  endfacet
  facet normal 0 0 -1
    outer loop
      vertex 96.52 -2 3.66211e-07
      vertex 93.98 -1.26999 3.66211e-07
      vertex 96.52 -1.26999 3.66211e-07
    endloop
  endfacet
  facet normal 0 0 -1
    outer loop
      vertex 0 -2 3.66211e-07
      vertex 93.98 -1.26999 3.66211e-07
      vertex 96.52 -2 3.66211e-07
    endloop
  endfacet
  facet normal 0 0 -1
    outer loop
      vertex 0 -2 3.66211e-07
      vertex 93.98 -0.5 3.66211e-07
      vertex 93.98 -1.26999 3.66211e-07
    endloop
  endfacet
  facet normal 0 0 -1
    outer loop
      vertex 0 -2 3.66211e-07
      vertex 0 -0.5 3.66211e-07
      vertex 93.98 -0.5 3.66211e-07
    endloop
  endfacet
  facet normal 0 0 -1
    outer loop
      vertex -1.24698 -1.56366 3.66211e-07
      vertex 0 -0.5 3.66211e-07
      vertex 0 -2 3.66211e-07
    endloop
  endfacet
  facet normal 0 0 -1
    outer loop
      vertex -2 0 3.66211e-07
      vertex -0.5 0 3.66211e-07
      vertex -1.24698 -1.56366 3.66211e-07
    endloop
  endfacet
  facet normal -0 0 -1
    outer loop
      vertex 0 -0.5 3.66211e-07
      vertex -1.24698 -1.56366 3.66211e-07
      vertex -0.5 0 3.66211e-07
    endloop
  endfacet
  facet normal 0 0 -1
    outer loop
      vertex 125.615 -2 3.66211e-07
      vertex 127.615 -1 3.66211e-07
      vertex 128.015 -2 3.66211e-07
    endloop
  endfacet
  facet normal -0 0 -1
    outer loop
      vertex 127.615 -1 3.66211e-07
      vertex 125.615 -2 3.66211e-07
      vertex 125.615 -1 3.66211e-07
    endloop
  endfacet
  facet normal 0 0 -1
    outer loop
      vertex 133.35 -2 3.66211e-07
      vertex 135.35 0 3.66211e-07
      vertex 134.914 -1.24698 3.66211e-07
    endloop
  endfacet
  facet normal 0 0 -1
    outer loop
      vertex 135.35 0 3.66211e-07
      vertex 129.85 4 3.66211e-07
      vertex 135.35 57.15 3.66211e-07
    endloop
  endfacet
  facet normal -0 0 -1
    outer loop
      vertex 135.35 0 3.66211e-07
      vertex 133.35 -2 3.66211e-07
      vertex 129.85 4 3.66211e-07
    endloop
  endfacet
  facet normal 0 0 -1
    outer loop
      vertex 135.35 57.15 3.66211e-07
      vertex 129.85 4 3.66211e-07
      vertex 129.85 53.15 3.66211e-07
    endloop
  endfacet
  facet normal 0 -0 -1
    outer loop
      vertex 133.35 59.15 3.66211e-07
      vertex 135.35 57.15 3.66211e-07
      vertex 129.85 53.15 3.66211e-07
    endloop
  endfacet
  facet normal 0 0 -1
    outer loop
      vertex 133.35 -2 3.66211e-07
      vertex 129.35 3.5 3.66211e-07
      vertex 129.85 4 3.66211e-07
    endloop
  endfacet
  facet normal 0 0 -1
    outer loop
      vertex 127.615 -1 3.66211e-07
      vertex 133.35 -2 3.66211e-07
      vertex 128.015 -2 3.66211e-07
    endloop
  endfacet
  facet normal 0 0 -1
    outer loop
      vertex 133.35 -2 3.66211e-07
      vertex 127.615 -1 3.66211e-07
      vertex 129.35 3.5 3.66211e-07
    endloop
  endfacet
  facet normal -0 0 -1
    outer loop
      vertex 129.35 3.5 3.66211e-07
      vertex 127.615 -1 3.66211e-07
      vertex 127.615 3.5 3.66211e-07
    endloop
  endfacet
  facet normal 0 0 -1
    outer loop
      vertex 135.35 57.15 3.66211e-07
      vertex 133.35 59.15 3.66211e-07
      vertex 134.597 58.7137 3.66211e-07
    endloop
  endfacet
  facet normal 0 0 -1
    outer loop
      vertex 129.35 53.65 3.66211e-07
      vertex 133.35 59.15 3.66211e-07
      vertex 129.85 53.15 3.66211e-07
    endloop
  endfacet
  facet normal 0 0 -1
    outer loop
      vertex 95.76 57.16 3.66211e-07
      vertex 129.35 53.65 3.66211e-07
      vertex 95.76 53.65 3.66211e-07
    endloop
  endfacet
  facet normal 0 0 -1
    outer loop
      vertex 129.35 53.65 3.66211e-07
      vertex 95.76 57.16 3.66211e-07
      vertex 133.35 59.15 3.66211e-07
    endloop
  endfacet
  facet normal 0 0 -1
    outer loop
      vertex 95.26 57.66 3.66211e-07
      vertex 133.35 59.15 3.66211e-07
      vertex 95.76 57.16 3.66211e-07
    endloop
  endfacet
  facet normal 0 0 -1
    outer loop
      vertex 0 59.15 3.66211e-07
      vertex 95.26 57.66 3.66211e-07
      vertex 0 57.66 3.66211e-07
    endloop
  endfacet
  facet normal 0 0 -1
    outer loop
      vertex 95.26 57.66 3.66211e-07
      vertex 0 59.15 3.66211e-07
      vertex 133.35 59.15 3.66211e-07
    endloop
  endfacet
  facet normal 0 0 -1
    outer loop
      vertex -1.56366 58.397 3.66211e-07
      vertex 0 57.66 3.66211e-07
      vertex -0.5 57.16 3.66211e-07
    endloop
  endfacet
  facet normal 0 0 -1
    outer loop
      vertex 0 57.66 3.66211e-07
      vertex -1.56366 58.397 3.66211e-07
      vertex 0 59.15 3.66211e-07
    endloop
  endfacet
  facet normal 0 0 -1
    outer loop
      vertex -0.5 0 3.66211e-07
      vertex -2 0 3.66211e-07
      vertex -0.5 57.16 3.66211e-07
    endloop
  endfacet
  facet normal 0 0 -1
    outer loop
      vertex -0.5 57.16 3.66211e-07
      vertex -2 0 3.66211e-07
      vertex -2 57.15 3.66211e-07
    endloop
  endfacet
  facet normal -0 0 -1
    outer loop
      vertex -0.5 57.16 3.66211e-07
      vertex -2 57.15 3.66211e-07
      vertex -1.56366 58.397 3.66211e-07
    endloop
  endfacet
  facet normal 0 0 -1
    outer loop
      vertex 118.015 -2 3.66211e-07
      vertex 120.015 -1 3.66211e-07
      vertex 120.015 -2 3.66211e-07
    endloop
  endfacet
  facet normal 0 0 -1
    outer loop
      vertex 118.015 -2 3.66211e-07
      vertex 115.515 -1 3.66211e-07
      vertex 120.015 -1 3.66211e-07
    endloop
  endfacet
  facet normal 0 0 -1
    outer loop
      vertex 114.3 3.5 3.66211e-07
      vertex 115.515 -1 3.66211e-07
      vertex 114.3 -1.26999 3.66211e-07
    endloop
  endfacet
  facet normal 0 0 -1
    outer loop
      vertex 118.015 -2 3.66211e-07
      vertex 114.3 -1.26999 3.66211e-07
      vertex 115.515 -1 3.66211e-07
    endloop
  endfacet
  facet normal 0 0 -1
    outer loop
      vertex 111.76 -2 3.66211e-07
      vertex 114.3 -1.26999 3.66211e-07
      vertex 118.015 -2 3.66211e-07
    endloop
  endfacet
  facet normal -0 0 -1
    outer loop
      vertex 114.3 -1.26999 3.66211e-07
      vertex 111.76 -2 3.66211e-07
      vertex 111.76 -1.26999 3.66211e-07
    endloop
  endfacet
  facet normal 0 0 -1
    outer loop
      vertex 115.515 -1 3.66211e-07
      vertex 114.3 3.5 3.66211e-07
      vertex 115.515 3.5 3.66211e-07
    endloop
  endfacet
  facet normal 0 1 -0
    outer loop
      vertex 115.515 3.5 3.66211e-07
      vertex 114.3 3.5 5
      vertex 115.515 3.5 5
    endloop
  endfacet
  facet normal 0 1 0
    outer loop
      vertex 114.3 3.5 5
      vertex 115.515 3.5 3.66211e-07
      vertex 114.3 3.5 3.66211e-07
    endloop
  endfacet
  facet normal 0 1 -0
    outer loop
      vertex 129.35 3.5 3.66211e-07
      vertex 127.615 3.5 5
      vertex 129.35 3.5 5
    endloop
  endfacet
  facet normal 0 1 0
    outer loop
      vertex 127.615 3.5 5
      vertex 129.35 3.5 3.66211e-07
      vertex 127.615 3.5 3.66211e-07
    endloop
  endfacet
  facet normal -0.707107 0.707107 0
    outer loop
      vertex 129.35 3.5 3.66211e-07
      vertex 129.85 4 5
      vertex 129.85 4 3.66211e-07
    endloop
  endfacet
  facet normal -0.707107 0.707107 0
    outer loop
      vertex 129.85 4 5
      vertex 129.35 3.5 3.66211e-07
      vertex 129.35 3.5 5
    endloop
  endfacet
  facet normal -1 0 0
    outer loop
      vertex 129.85 4 3.66211e-07
      vertex 129.85 53.15 5
      vertex 129.85 53.15 3.66211e-07
    endloop
  endfacet
  facet normal -1 -0 0
    outer loop
      vertex 129.85 53.15 5
      vertex 129.85 4 3.66211e-07
      vertex 129.85 4 5
    endloop
  endfacet
  facet normal -0.707107 -0.707107 0
    outer loop
      vertex 129.85 53.15 3.66211e-07
      vertex 129.35 53.65 5
      vertex 129.35 53.65 3.66211e-07
    endloop
  endfacet
  facet normal -0.707107 -0.707107 0
    outer loop
      vertex 129.35 53.65 5
      vertex 129.85 53.15 3.66211e-07
      vertex 129.85 53.15 5
    endloop
  endfacet
  facet normal 0 -1 0
    outer loop
      vertex 95.76 53.65 3.66211e-07
      vertex 129.35 53.65 5
      vertex 95.76 53.65 5
    endloop
  endfacet
  facet normal 0 -1 -0
    outer loop
      vertex 129.35 53.65 5
      vertex 95.76 53.65 3.66211e-07
      vertex 129.35 53.65 3.66211e-07
    endloop
  endfacet
  facet normal -1 0 0
    outer loop
      vertex 95.76 53.65 3.66211e-07
      vertex 95.76 57.16 5
      vertex 95.76 57.16 3.66211e-07
    endloop
  endfacet
  facet normal -1 -0 0
    outer loop
      vertex 95.76 57.16 5
      vertex 95.76 53.65 3.66211e-07
      vertex 95.76 53.65 5
    endloop
  endfacet
  facet normal -0.707107 -0.707107 0
    outer loop
      vertex 95.76 57.16 3.66211e-07
      vertex 95.26 57.66 5
      vertex 95.26 57.66 3.66211e-07
    endloop
  endfacet
  facet normal -0.707107 -0.707107 0
    outer loop
      vertex 95.26 57.66 5
      vertex 95.76 57.16 3.66211e-07
      vertex 95.76 57.16 5
    endloop
  endfacet
  facet normal 0 -1 0
    outer loop
      vertex 0 57.66 3.66211e-07
      vertex 95.26 57.66 5
      vertex 0 57.66 5
    endloop
  endfacet
  facet normal 0 -1 -0
    outer loop
      vertex 95.26 57.66 5
      vertex 0 57.66 3.66211e-07
      vertex 95.26 57.66 3.66211e-07
    endloop
  endfacet
  facet normal 0.707107 -0.707107 0
    outer loop
      vertex -0.5 57.16 5
      vertex 0 57.66 3.66211e-07
      vertex 0 57.66 5
    endloop
  endfacet
  facet normal 0.707107 -0.707107 0
    outer loop
      vertex 0 57.66 3.66211e-07
      vertex -0.5 57.16 5
      vertex -0.5 57.16 3.66211e-07
    endloop
  endfacet
  facet normal 1 -0 0
    outer loop
      vertex -0.5 0 5
      vertex -0.5 57.16 3.66211e-07
      vertex -0.5 57.16 5
    endloop
  endfacet
  facet normal 1 0 0
    outer loop
      vertex -0.5 57.16 3.66211e-07
      vertex -0.5 0 5
      vertex -0.5 0 3.66211e-07
    endloop
  endfacet
  facet normal 0.707107 0.707107 0
    outer loop
      vertex 0 -0.5 5
      vertex -0.5 0 3.66211e-07
      vertex -0.5 0 5
    endloop
  endfacet
  facet normal 0.707107 0.707107 0
    outer loop
      vertex -0.5 0 3.66211e-07
      vertex 0 -0.5 5
      vertex 0 -0.5 3.66211e-07
    endloop
  endfacet
  facet normal 0 1 -0
    outer loop
      vertex 93.98 -0.5 3.66211e-07
      vertex 0 -0.5 5
      vertex 93.98 -0.5 5
    endloop
  endfacet
  facet normal 0 1 0
    outer loop
      vertex 0 -0.5 5
      vertex 93.98 -0.5 3.66211e-07
      vertex 0 -0.5 3.66211e-07
    endloop
  endfacet
  facet normal 0 1 -0
    outer loop
      vertex 114.3 -1.26999 3.66211e-07
      vertex 111.76 -1.26999 5
      vertex 114.3 -1.26999 5
    endloop
  endfacet
  facet normal 0 1 0
    outer loop
      vertex 111.76 -1.26999 5
      vertex 114.3 -1.26999 3.66211e-07
      vertex 111.76 -1.26999 3.66211e-07
    endloop
  endfacet
  facet normal -1 0 0
    outer loop
      vertex 114.3 -1.26999 3.66211e-07
      vertex 114.3 3.5 5
      vertex 114.3 3.5 3.66211e-07
    endloop
  endfacet
  facet normal -1 -0 0
    outer loop
      vertex 114.3 3.5 5
      vertex 114.3 -1.26999 3.66211e-07
      vertex 114.3 -1.26999 5
    endloop
  endfacet
  facet normal 1 -0 0
    outer loop
      vertex 93.98 -1.26999 5
      vertex 93.98 -0.5 3.66211e-07
      vertex 93.98 -0.5 5
    endloop
  endfacet
  facet normal 1 0 0
    outer loop
      vertex 93.98 -0.5 3.66211e-07
      vertex 93.98 -1.26999 5
      vertex 93.98 -1.26999 3.66211e-07
    endloop
  endfacet
  facet normal 0 1 -0
    outer loop
      vertex 96.52 -1.26999 3.66211e-07
      vertex 93.98 -1.26999 5
      vertex 96.52 -1.26999 5
    endloop
  endfacet
  facet normal 0 1 0
    outer loop
      vertex 93.98 -1.26999 5
      vertex 96.52 -1.26999 3.66211e-07
      vertex 93.98 -1.26999 3.66211e-07
    endloop
  endfacet
  facet normal 1 -0 0
    outer loop
      vertex 96.52 -2 5
      vertex 96.52 -1.26999 3.66211e-07
      vertex 96.52 -1.26999 5
    endloop
  endfacet
  facet normal 1 0 0
    outer loop
      vertex 96.52 -1.26999 3.66211e-07
      vertex 96.52 -2 5
      vertex 96.52 -2 3.66211e-07
    endloop
  endfacet
  facet normal -1 0 0
    outer loop
      vertex 111.76 -2 3.66211e-07
      vertex 111.76 -1.26999 5
      vertex 111.76 -1.26999 3.66211e-07
    endloop
  endfacet
  facet normal -1 -0 0
    outer loop
      vertex 111.76 -1.26999 5
      vertex 111.76 -2 3.66211e-07
      vertex 111.76 -2 5
    endloop
  endfacet
  facet normal -1 0 0
    outer loop
      vertex 125.615 -2 3.66211e-07
      vertex 125.615 -1 5
      vertex 125.615 -1 3.66211e-07
    endloop
  endfacet
  facet normal -1 -0 0
    outer loop
      vertex 125.615 -1 5
      vertex 125.615 -2 3.66211e-07
      vertex 125.615 -2 5
    endloop
  endfacet
  facet normal 0 1 -0
    outer loop
      vertex 127.615 -1 3.66211e-07
      vertex 125.615 -1 5
      vertex 127.615 -1 5
    endloop
  endfacet
  facet normal 0 1 0
    outer loop
      vertex 125.615 -1 5
      vertex 127.615 -1 3.66211e-07
      vertex 125.615 -1 3.66211e-07
    endloop
  endfacet
  facet normal -1 0 0
    outer loop
      vertex 127.615 -1 3.66211e-07
      vertex 127.615 3.5 5
      vertex 127.615 3.5 3.66211e-07
    endloop
  endfacet
  facet normal -1 -0 0
    outer loop
      vertex 127.615 3.5 5
      vertex 127.615 -1 3.66211e-07
      vertex 127.615 -1 5
    endloop
  endfacet
  facet normal 1 -0 0
    outer loop
      vertex 115.515 -1 5
      vertex 115.515 3.5 3.66211e-07
      vertex 115.515 3.5 5
    endloop
  endfacet
  facet normal 1 0 0
    outer loop
      vertex 115.515 3.5 3.66211e-07
      vertex 115.515 -1 5
      vertex 115.515 -1 3.66211e-07
    endloop
  endfacet
  facet normal 0 1 -0
    outer loop
      vertex 120.015 -1 3.66211e-07
      vertex 115.515 -1 5
      vertex 120.015 -1 5
    endloop
  endfacet
  facet normal 0 1 0
    outer loop
      vertex 115.515 -1 5
      vertex 120.015 -1 3.66211e-07
      vertex 115.515 -1 3.66211e-07
    endloop
  endfacet
  facet normal 1 -0 0
    outer loop
      vertex 120.015 -2 5
      vertex 120.015 -1 3.66211e-07
      vertex 120.015 -1 5
    endloop
  endfacet
  facet normal 1 0 0
    outer loop
      vertex 120.015 -1 3.66211e-07
      vertex 120.015 -2 5
      vertex 120.015 -2 3.66211e-07
    endloop
  endfacet
  facet normal 0.831675 -0.555263 0
    outer loop
      vertex 136.886 -3.53554 7
      vertex 137.969 -1.91342 5
      vertex 137.969 -1.91342 7
    endloop
  endfacet
  facet normal 0.831675 -0.555263 0
    outer loop
      vertex 137.969 -1.91342 5
      vertex 136.886 -3.53554 7
      vertex 136.886 -3.53554 5
    endloop
  endfacet
  facet normal 0.55536 -0.83161 0
    outer loop
      vertex 135.263 -4.6194 5
      vertex 136.886 -3.53554 7
      vertex 135.263 -4.6194 7
    endloop
  endfacet
  facet normal 0.55536 -0.83161 0
    outer loop
      vertex 136.886 -3.53554 7
      vertex 135.263 -4.6194 5
      vertex 136.886 -3.53554 5
    endloop
  endfacet
  facet normal -0.195089 -0.980786 0
    outer loop
      vertex -1.91342 -4.6194 5
      vertex 0 -5 7
      vertex -1.91342 -4.6194 7
    endloop
  endfacet
  facet normal -0.195089 -0.980786 -0
    outer loop
      vertex 0 -5 7
      vertex -1.91342 -4.6194 5
      vertex 0 -5 5
    endloop
  endfacet
  facet normal -0.195089 0.980786 0
    outer loop
      vertex 0 62.15 5
      vertex -1.91342 61.7694 7
      vertex 0 62.15 7
    endloop
  endfacet
  facet normal -0.195089 0.980786 0
    outer loop
      vertex -1.91342 61.7694 7
      vertex 0 62.15 5
      vertex -1.91342 61.7694 5
    endloop
  endfacet
  facet normal 0.980746 0.195288 0
    outer loop
      vertex 138.35 57.15 7
      vertex 137.969 59.0634 5
      vertex 137.969 59.0634 7
    endloop
  endfacet
  facet normal 0.980746 0.195288 0
    outer loop
      vertex 137.969 59.0634 5
      vertex 138.35 57.15 7
      vertex 138.35 57.15 5
    endloop
  endfacet
  facet normal -1 0 0
    outer loop
      vertex -5 0 5
      vertex -5 57.15 7
      vertex -5 57.15 5
    endloop
  endfacet
  facet normal -1 -0 0
    outer loop
      vertex -5 57.15 7
      vertex -5 0 5
      vertex -5 0 7
    endloop
  endfacet
  facet normal -0.555582 0.831462 0
    outer loop
      vertex -1.91342 61.7694 5
      vertex -3.53554 60.6855 7
      vertex -1.91342 61.7694 7
    endloop
  endfacet
  facet normal -0.555582 0.831462 0
    outer loop
      vertex -3.53554 60.6855 7
      vertex -1.91342 61.7694 5
      vertex -3.53554 60.6855 5
    endloop
  endfacet
  facet normal 0.555374 0.831601 -0
    outer loop
      vertex 136.886 60.6855 5
      vertex 135.263 61.7694 7
      vertex 136.886 60.6855 7
    endloop
  endfacet
  facet normal 0.555374 0.831601 0
    outer loop
      vertex 135.263 61.7694 7
      vertex 136.886 60.6855 5
      vertex 135.263 61.7694 5
    endloop
  endfacet
  facet normal 0.19513 0.980777 -0
    outer loop
      vertex 135.263 61.7694 5
      vertex 133.35 62.15 7
      vertex 135.263 61.7694 7
    endloop
  endfacet
  facet normal 0.19513 0.980777 0
    outer loop
      vertex 133.35 62.15 7
      vertex 135.263 61.7694 5
      vertex 133.35 62.15 5
    endloop
  endfacet
  facet normal 0 -1 0
    outer loop
      vertex 0 -5 5
      vertex 133.35 -5 7
      vertex 0 -5 7
    endloop
  endfacet
  facet normal 0 -1 -0
    outer loop
      vertex 133.35 -5 7
      vertex 0 -5 5
      vertex 133.35 -5 5
    endloop
  endfacet
  facet normal -0.980785 0.195091 0
    outer loop
      vertex -5 57.15 5
      vertex -4.6194 59.0634 7
      vertex -4.6194 59.0634 5
    endloop
  endfacet
  facet normal -0.980785 0.195091 0
    outer loop
      vertex -4.6194 59.0634 7
      vertex -5 57.15 5
      vertex -5 57.15 7
    endloop
  endfacet
  facet normal -0.980786 -0.195089 0
    outer loop
      vertex -4.6194 -1.91342 5
      vertex -5 0 7
      vertex -5 0 5
    endloop
  endfacet
  facet normal -0.980786 -0.195089 0
    outer loop
      vertex -5 0 7
      vertex -4.6194 -1.91342 5
      vertex -4.6194 -1.91342 7
    endloop
  endfacet
  facet normal -0.831468 0.555573 0
    outer loop
      vertex -4.6194 59.0634 5
      vertex -3.53554 60.6855 7
      vertex -3.53554 60.6855 5
    endloop
  endfacet
  facet normal -0.831468 0.555573 0
    outer loop
      vertex -3.53554 60.6855 7
      vertex -4.6194 59.0634 5
      vertex -4.6194 59.0634 7
    endloop
  endfacet
  facet normal 0.19513 -0.980777 0
    outer loop
      vertex 133.35 -5 5
      vertex 135.263 -4.6194 7
      vertex 133.35 -5 7
    endloop
  endfacet
  facet normal 0.19513 -0.980777 0
    outer loop
      vertex 135.263 -4.6194 7
      vertex 133.35 -5 5
      vertex 135.263 -4.6194 5
    endloop
  endfacet
  facet normal -0.555568 -0.831471 0
    outer loop
      vertex -3.53554 -3.53554 5
      vertex -1.91342 -4.6194 7
      vertex -3.53554 -3.53554 7
    endloop
  endfacet
  facet normal -0.555568 -0.831471 -0
    outer loop
      vertex -1.91342 -4.6194 7
      vertex -3.53554 -3.53554 5
      vertex -1.91342 -4.6194 5
    endloop
  endfacet
  facet normal 0.831671 0.555268 0
    outer loop
      vertex 137.969 59.0634 7
      vertex 136.886 60.6855 5
      vertex 136.886 60.6855 7
    endloop
  endfacet
  facet normal 0.831671 0.555268 0
    outer loop
      vertex 136.886 60.6855 5
      vertex 137.969 59.0634 7
      vertex 137.969 59.0634 5
    endloop
  endfacet
  facet normal -0.831471 -0.555568 0
    outer loop
      vertex -3.53554 -3.53554 5
      vertex -4.6194 -1.91342 7
      vertex -4.6194 -1.91342 5
    endloop
  endfacet
  facet normal -0.831471 -0.555568 0
    outer loop
      vertex -4.6194 -1.91342 7
      vertex -3.53554 -3.53554 5
      vertex -3.53554 -3.53554 7
    endloop
  endfacet
  facet normal 1 -0 0
    outer loop
      vertex 138.35 0 7
      vertex 138.35 57.15 5
      vertex 138.35 57.15 7
    endloop
  endfacet
  facet normal 1 0 0
    outer loop
      vertex 138.35 57.15 5
      vertex 138.35 0 7
      vertex 138.35 0 5
    endloop
  endfacet
  facet normal 0 1 -0
    outer loop
      vertex 133.35 62.15 5
      vertex 0 62.15 7
      vertex 133.35 62.15 7
    endloop
  endfacet
  facet normal 0 1 0
    outer loop
      vertex 0 62.15 7
      vertex 133.35 62.15 5
      vertex 0 62.15 5
    endloop
  endfacet
  facet normal 0.980746 -0.195286 0
    outer loop
      vertex 137.969 -1.91342 7
      vertex 138.35 0 5
      vertex 138.35 0 7
    endloop
  endfacet
  facet normal 0.980746 -0.195286 0
    outer loop
      vertex 138.35 0 5
      vertex 137.969 -1.91342 7
      vertex 137.969 -1.91342 5
    endloop
  endfacet
  facet normal 0 0 1
    outer loop
      vertex 133.35 62.15 7
      vertex 138.35 57.15 7
      vertex 137.969 59.0634 7
    endloop
  endfacet
  facet normal 0 0 1
    outer loop
      vertex 138.35 57.15 7
      vertex 133.35 62.15 7
      vertex 138.35 0 7
    endloop
  endfacet
  facet normal 0 0 1
    outer loop
      vertex 133.35 62.15 7
      vertex 137.969 59.0634 7
      vertex 136.886 60.6855 7
    endloop
  endfacet
  facet normal 0 0 1
    outer loop
      vertex 133.35 -5 7
      vertex 138.35 0 7
      vertex 133.35 62.15 7
    endloop
  endfacet
  facet normal 0 0 1
    outer loop
      vertex 133.35 62.15 7
      vertex 136.886 60.6855 7
      vertex 135.263 61.7694 7
    endloop
  endfacet
  facet normal 0 0 1
    outer loop
      vertex 138.35 0 7
      vertex 133.35 -5 7
      vertex 137.969 -1.91342 7
    endloop
  endfacet
  facet normal 0 0 1
    outer loop
      vertex 137.969 -1.91342 7
      vertex 133.35 -5 7
      vertex 136.886 -3.53554 7
    endloop
  endfacet
  facet normal 0 0 1
    outer loop
      vertex 136.886 -3.53554 7
      vertex 133.35 -5 7
      vertex 135.263 -4.6194 7
    endloop
  endfacet
  facet normal -0 0 1
    outer loop
      vertex 0 62.15 7
      vertex 133.35 -5 7
      vertex 133.35 62.15 7
    endloop
  endfacet
  facet normal 0 0 1
    outer loop
      vertex 0 62.15 7
      vertex 0 -5 7
      vertex 133.35 -5 7
    endloop
  endfacet
  facet normal 0 0 1
    outer loop
      vertex -5 57.15 7
      vertex 0 62.15 7
      vertex -1.91342 61.7694 7
    endloop
  endfacet
  facet normal 0 0 1
    outer loop
      vertex 0 62.15 7
      vertex -5 57.15 7
      vertex 0 -5 7
    endloop
  endfacet
  facet normal 0 0 1
    outer loop
      vertex -5 57.15 7
      vertex -1.91342 61.7694 7
      vertex -3.53554 60.6855 7
    endloop
  endfacet
  facet normal -0 0 1
    outer loop
      vertex -5 0 7
      vertex 0 -5 7
      vertex -5 57.15 7
    endloop
  endfacet
  facet normal 0 0 1
    outer loop
      vertex -5 57.15 7
      vertex -3.53554 60.6855 7
      vertex -4.6194 59.0634 7
    endloop
  endfacet
  facet normal 0 0 1
    outer loop
      vertex 0 -5 7
      vertex -5 0 7
      vertex -1.91342 -4.6194 7
    endloop
  endfacet
  facet normal 0 0 1
    outer loop
      vertex -1.91342 -4.6194 7
      vertex -5 0 7
      vertex -3.53554 -3.53554 7
    endloop
  endfacet
  facet normal 0 0 1
    outer loop
      vertex -3.53554 -3.53554 7
      vertex -5 0 7
      vertex -4.6194 -1.91342 7
    endloop
  endfacet
endsolid OpenSCAD_Model
