<?xml version="1.0" standalone="no"?>
<!DOCTYPE svg PUBLIC "-//W3C//DTD SVG 1.1//EN" "http://www.w3.org/Graphics/SVG/1.1/DTD/svg11.dtd">
<svg width="180mm" height="58mm" viewBox="0 -58 180 58" xmlns="http://www.w3.org/2000/svg" version="1.1">
<title>OpenSCAD Model</title>
<path d="
M 157.353,-2.53999 L 169.855,-2.53999 L 169.855,-0 L 179.955,-0 L 179.955,-13.1 L 170.18,-13.1
 L 170.18,-33.02 L 157.353,-33.02 L 157.353,-57.15 L 0,-57.15 L 0,-0 L 157.353,-0
 z
M 120.844,-39.6598 L 134,-44.4481 L 138.788,-31.2924 L 125.632,-26.5041 z
M 14.4312,-21.575 L 14.4312,-26.275 L 12.8312,-26.275 L 12.8312,-23.045 L 6.08124,-23.045 L 6.08124,-26.275
 L 5.25624,-26.275 L 5.25624,-29.45 L 6.08124,-29.45 L 6.08124,-35.345 L 7.80624,-35.345 L 7.80624,-36.545
 L 11.1062,-36.545 L 11.1062,-35.345 L 12.8312,-35.345 L 12.8312,-30.875 L 14.4312,-30.875 L 14.4312,-35.575
 L 28.4312,-35.575 L 28.4312,-30.875 L 30.0312,-30.875 L 30.0312,-35.345 L 31.7562,-35.345 L 31.7562,-36.545
 L 35.0562,-36.545 L 35.0562,-35.345 L 36.7812,-35.345 L 36.7812,-29.45 L 37.6062,-29.45 L 37.6062,-26.275
 L 36.7812,-26.275 L 36.7812,-23.045 L 30.0312,-23.045 L 30.0312,-26.275 L 28.4312,-26.275 L 28.4312,-21.575
 z
M 52.5312,-21.575 L 52.5312,-35.575 L 66.5312,-35.575 L 66.5312,-21.575 z
M 102.537,-21.575 L 102.537,-35.575 L 116.537,-35.575 L 116.537,-21.575 z
M 81.1062,-21.575 L 81.1062,-35.575 L 95.1062,-35.575 L 95.1062,-21.575 z
M 52.6265,-2.52499 L 52.6265,-7.22499 L 13.0265,-7.22499 L 13.0265,-3.995 L 6.27649,-3.995 L 6.27649,-7.22499
 L 5.45149,-7.22499 L 5.45149,-10.4 L 6.27649,-10.4 L 6.27649,-16.295 L 8.0015,-16.295 L 8.0015,-17.495
 L 11.3015,-17.495 L 11.3015,-16.295 L 13.0265,-16.295 L 13.0265,-11.825 L 52.6265,-11.825 L 52.6265,-16.525
 L 66.6265,-16.525 L 66.6265,-11.825 L 106.227,-11.825 L 106.227,-16.295 L 107.951,-16.295 L 107.951,-17.495
 L 111.251,-17.495 L 111.251,-16.295 L 112.977,-16.295 L 112.977,-10.4 L 113.801,-10.4 L 113.801,-7.22499
 L 112.977,-7.22499 L 112.977,-3.995 L 106.227,-3.995 L 106.227,-7.22499 L 66.6265,-7.22499 L 66.6265,-2.52499
 z
" stroke="black" fill="lightgray" stroke-width="0.5"/>
</svg>
